<svg width="100" height="75" viewBox="0 0 100 75" fill="none" xmlns="http://www.w3.org/2000/svg">
<rect y="0.356934" width="100" height="74.2857" rx="25.7143" fill="url(#paint0_linear_226_522)"/>
<path d="M59.375 18.8099H55.8594V17.1284C55.859 16.7141 55.6942 16.317 55.4013 16.024C55.1083 15.7311 54.7111 15.5663 54.2969 15.5659H45.7031C45.2889 15.5663 44.8917 15.7311 44.5987 16.024C44.3058 16.317 44.141 16.7141 44.1406 17.1284V18.8099H40.625C39.7965 18.8109 39.0022 19.1404 38.4163 19.7263C37.8305 20.3121 37.5009 21.1064 37.5 21.9349V56.3099C37.5009 57.1384 37.8305 57.9328 38.4163 58.5186C39.0022 59.1044 39.7965 59.434 40.625 59.4349H59.375C60.2035 59.434 60.9978 59.1044 61.5837 58.5186C62.1695 57.9328 62.4991 57.1384 62.5 56.3099V21.9349C62.4991 21.1064 62.1695 20.3121 61.5837 19.7263C60.9978 19.1404 60.2035 18.8109 59.375 18.8099ZM45.7031 17.1284H54.2969V18.8099H45.7031V17.1284ZM60.9375 56.3099C60.9371 56.7242 60.7723 57.1214 60.4794 57.4143C60.1865 57.7073 59.7893 57.872 59.375 57.8724H40.625C40.2107 57.872 39.8135 57.7073 39.5206 57.4143C39.2277 57.1214 39.0629 56.7242 39.0625 56.3099V21.9349C39.0629 21.5207 39.2277 21.1235 39.5206 20.8305C39.8135 20.5376 40.2107 20.3728 40.625 20.3724H59.375C59.7893 20.3728 60.1865 20.5376 60.4794 20.8305C60.7723 21.1235 60.9371 21.5207 60.9375 21.9349V56.3099Z" fill="white"/>
<path d="M54.3731 31.7724C52.7567 30.7965 50.8661 30.3742 48.988 30.5696C47.11 30.765 45.3468 31.5674 43.966 32.8553C43.9437 32.6512 43.8418 32.4641 43.6824 32.3347C43.5229 32.2054 43.3189 32.1441 43.1146 32.1644C42.9103 32.1846 42.7222 32.2846 42.5912 32.4427C42.4603 32.6009 42.397 32.8043 42.4152 33.0088L42.5708 34.8162C42.5876 35.011 42.6768 35.1925 42.8209 35.3247C42.965 35.4569 43.1535 35.5303 43.349 35.5303C43.3719 35.5303 43.3952 35.5292 43.4181 35.5272L45.2213 35.367C45.4277 35.3487 45.6183 35.2491 45.7513 35.0903C45.8843 34.9314 45.9487 34.7262 45.9304 34.5198C45.9126 34.3403 45.8323 34.1728 45.7037 34.0464C45.5751 33.92 45.4063 33.8426 45.2266 33.8278C46.3529 32.856 47.7545 32.2601 49.2358 32.1234C50.7171 31.9866 52.2041 32.3158 53.4893 33.065C54.7745 33.8142 55.7937 34.946 56.4045 36.3023C57.0154 37.6587 57.1876 39.172 56.8969 40.6309C56.8771 40.7316 56.8774 40.8352 56.8977 40.9358C56.918 41.0364 56.9579 41.132 57.0152 41.2171C57.1308 41.3891 57.31 41.5081 57.5133 41.548C57.7167 41.5878 57.9275 41.5453 58.0995 41.4297C58.2715 41.3141 58.3905 41.1349 58.4304 40.9315C58.773 39.1731 58.5677 37.3519 57.8421 35.7139C57.1165 34.076 55.9057 32.7002 54.3731 31.7724Z" fill="white"/>
<path d="M57.1525 42.8967C56.9934 42.7636 56.788 42.699 56.5814 42.717L54.7782 42.8772C54.5718 42.8955 54.3812 42.9951 54.2482 43.154C54.1152 43.3128 54.0508 43.5181 54.0691 43.7244C54.0867 43.9039 54.1667 44.0715 54.2951 44.1981C54.4235 44.3247 54.5923 44.4023 54.772 44.4173C53.6456 45.3887 52.244 45.9843 50.7628 46.1207C49.2816 46.2572 47.7948 45.9279 46.5098 45.1787C45.2248 44.4294 44.2058 43.2977 43.595 41.9415C42.9841 40.5852 42.812 39.0721 43.1026 37.6133C43.1424 37.4099 43.0999 37.1991 42.9843 37.0271C42.8687 36.8551 42.6895 36.7361 42.4861 36.6962C42.2828 36.6564 42.0719 36.6989 41.8999 36.8145C41.7279 36.9301 41.6089 37.1093 41.5691 37.3127C41.2048 39.1186 41.4238 40.9935 42.1943 42.6668C42.9649 44.3402 44.2472 45.7254 45.8563 46.6226C47.4653 47.5198 49.3177 47.8826 51.1463 47.6585C52.9749 47.4345 54.685 46.6353 56.0298 45.3762C56.0479 45.5694 56.1374 45.749 56.2808 45.8798C56.4242 46.0105 56.6112 46.0832 56.8053 46.0835C56.828 46.0836 56.8507 46.0826 56.8732 46.0804C56.9754 46.0716 57.0749 46.0428 57.166 45.9956C57.2571 45.9484 57.3379 45.8836 57.404 45.8051C57.47 45.7266 57.5199 45.6359 57.5509 45.5381C57.5818 45.4402 57.5932 45.3373 57.5843 45.2351L57.4287 43.4281C57.4199 43.3257 57.391 43.226 57.3436 43.1348C57.2962 43.0436 57.2312 42.9627 57.1525 42.8967Z" fill="white"/>
<defs>
<linearGradient id="paint0_linear_226_522" x1="50" y1="0.356934" x2="50" y2="74.6426" gradientUnits="userSpaceOnUse">
<stop stop-color="#9893EA"/>
<stop offset="1" stop-color="#4D4A8E"/>
</linearGradient>
</defs>
</svg>
