<svg width="100" height="75" viewBox="0 0 100 75" fill="none" xmlns="http://www.w3.org/2000/svg">
<rect y="0.356934" width="100" height="74.2857" rx="25.7143" fill="url(#paint0_linear_226_585)"/>
<path d="M31.9103 27.0242C34.414 27.0242 36.4436 24.9945 36.4436 22.4909C36.4436 19.9872 34.414 17.9575 31.9103 17.9575C29.4066 17.9575 27.377 19.9872 27.377 22.4909C27.377 24.9945 29.4066 27.0242 31.9103 27.0242Z" stroke="white" stroke-width="1.5" stroke-miterlimit="10" stroke-linecap="round" stroke-linejoin="round"/>
<path d="M27.5333 49.1101C30.037 49.1101 32.0667 47.0805 32.0667 44.5768C32.0667 42.0731 30.037 40.0435 27.5333 40.0435C25.0296 40.0435 23 42.0731 23 44.5768C23 47.0805 25.0296 49.1101 27.5333 49.1101Z" stroke="white" stroke-width="1.5" stroke-miterlimit="10" stroke-linecap="round" stroke-linejoin="round"/>
<path d="M41.1327 58.1766V49.11L31.9102 45.7241" stroke="white" stroke-width="1.5" stroke-miterlimit="10" stroke-linecap="round" stroke-linejoin="round"/>
<path d="M45.6659 58.1762V40.1845L32.0234 34.0504V26.9529" stroke="white" stroke-width="1.5" stroke-miterlimit="10" stroke-linecap="round" stroke-linejoin="round"/>
<path d="M68.4884 27.0242C70.9921 27.0242 73.0217 24.9945 73.0217 22.4909C73.0217 19.9872 70.9921 17.9575 68.4884 17.9575C65.9847 17.9575 63.9551 19.9872 63.9551 22.4909C63.9551 24.9945 65.9847 27.0242 68.4884 27.0242Z" stroke="white" stroke-width="1.5" stroke-miterlimit="10" stroke-linecap="round" stroke-linejoin="round"/>
<path d="M54.7334 58.1762V40.1845L68.3759 34.0504V26.9529" stroke="white" stroke-width="1.5" stroke-miterlimit="10" stroke-linecap="round" stroke-linejoin="round"/>
<path d="M72.8663 49.1101C75.37 49.1101 77.3997 47.0805 77.3997 44.5768C77.3997 42.0731 75.37 40.0435 72.8663 40.0435C70.3627 40.0435 68.333 42.0731 68.333 44.5768C68.333 47.0805 70.3627 49.1101 72.8663 49.1101Z" stroke="white" stroke-width="1.5" stroke-miterlimit="10" stroke-linecap="round" stroke-linejoin="round"/>
<path d="M59.2656 58.1766V49.11L68.4881 45.7241" stroke="white" stroke-width="1.5" stroke-miterlimit="10" stroke-linecap="round" stroke-linejoin="round"/>
<defs>
<linearGradient id="paint0_linear_226_585" x1="50" y1="0.356934" x2="50" y2="74.6426" gradientUnits="userSpaceOnUse">
<stop stop-color="#9893EA"/>
<stop offset="1" stop-color="#4D4A8E"/>
</linearGradient>
</defs>
</svg>
