<svg width="100" height="75" viewBox="0 0 100 75" fill="none" xmlns="http://www.w3.org/2000/svg">
<rect y="0.357178" width="100" height="74.2857" rx="25.7143" fill="url(#paint0_linear_226_735)"/>
<path d="M59.375 18.8102H55.8594V17.1287C55.859 16.7144 55.6942 16.3172 55.4013 16.0243C55.1083 15.7313 54.7111 15.5666 54.2969 15.5662H45.7031C45.2889 15.5666 44.8917 15.7313 44.5987 16.0243C44.3058 16.3172 44.141 16.7144 44.1406 17.1287V18.8102H40.625C39.7965 18.8111 39.0022 19.1407 38.4163 19.7265C37.8305 20.3124 37.5009 21.1067 37.5 21.9352V56.3102C37.5009 57.1387 37.8305 57.933 38.4163 58.5188C39.0022 59.1047 39.7965 59.4342 40.625 59.4352H59.375C60.2035 59.4342 60.9978 59.1047 61.5837 58.5188C62.1695 57.933 62.4991 57.1387 62.5 56.3102V21.9352C62.4991 21.1067 62.1695 20.3124 61.5837 19.7265C60.9978 19.1407 60.2035 18.8111 59.375 18.8102ZM45.7031 17.1287H54.2969V18.8102H45.7031V17.1287ZM60.9375 56.3102C60.9371 56.7245 60.7723 57.1216 60.4794 57.4146C60.1865 57.7075 59.7893 57.8723 59.375 57.8727H40.625C40.2107 57.8723 39.8135 57.7075 39.5206 57.4146C39.2277 57.1216 39.0629 56.7245 39.0625 56.3102V21.9352C39.0629 21.5209 39.2277 21.1237 39.5206 20.8308C39.8135 20.5378 40.2107 20.3731 40.625 20.3727H59.375C59.7893 20.3731 60.1865 20.5378 60.4794 20.8308C60.7723 21.1237 60.9371 21.5209 60.9375 21.9352V56.3102Z" fill="white"/>
<path d="M54.3731 31.7724C52.7567 30.7965 50.8661 30.3742 48.988 30.5696C47.11 30.765 45.3468 31.5674 43.966 32.8553C43.9437 32.6512 43.8418 32.4641 43.6824 32.3347C43.5229 32.2054 43.3189 32.1441 43.1146 32.1644C42.9103 32.1846 42.7222 32.2846 42.5912 32.4427C42.4603 32.6009 42.397 32.8043 42.4152 33.0088L42.5708 34.8162C42.5876 35.011 42.6768 35.1925 42.8209 35.3247C42.965 35.4569 43.1535 35.5303 43.349 35.5303C43.3719 35.5303 43.3952 35.5292 43.4181 35.5272L45.2213 35.367C45.4277 35.3487 45.6183 35.2491 45.7513 35.0903C45.8843 34.9314 45.9487 34.7262 45.9304 34.5198C45.9126 34.3403 45.8323 34.1728 45.7037 34.0464C45.5751 33.92 45.4063 33.8426 45.2266 33.8278C46.3529 32.856 47.7545 32.2601 49.2358 32.1234C50.7171 31.9866 52.2041 32.3158 53.4893 33.065C54.7745 33.8142 55.7937 34.946 56.4045 36.3023C57.0154 37.6587 57.1876 39.172 56.8969 40.6309C56.8771 40.7316 56.8774 40.8352 56.8977 40.9358C56.918 41.0364 56.9579 41.132 57.0152 41.2171C57.1308 41.3891 57.31 41.5081 57.5133 41.548C57.7167 41.5878 57.9275 41.5453 58.0995 41.4297C58.2715 41.3141 58.3905 41.1349 58.4304 40.9315C58.773 39.1731 58.5677 37.3519 57.8421 35.7139C57.1165 34.076 55.9057 32.7002 54.3731 31.7724Z" fill="white"/>
<path d="M57.1525 42.8974C56.9934 42.7643 56.788 42.6997 56.5814 42.7177L54.7782 42.8779C54.5718 42.8962 54.3812 42.9958 54.2482 43.1547C54.1152 43.3136 54.0508 43.5188 54.0691 43.7252C54.0867 43.9046 54.1667 44.0723 54.2951 44.1989C54.4235 44.3255 54.5923 44.403 54.772 44.418C53.6456 45.3895 52.244 45.985 50.7628 46.1215C49.2816 46.258 47.7948 45.9286 46.5098 45.1794C45.2248 44.4302 44.2058 43.2985 43.595 41.9422C42.9841 40.5859 42.812 39.0728 43.1026 37.614C43.1424 37.4107 43.0999 37.1998 42.9843 37.0278C42.8687 36.8558 42.6895 36.7368 42.4861 36.697C42.2828 36.6571 42.0719 36.6997 41.8999 36.8153C41.7279 36.9309 41.6089 37.1101 41.5691 37.3134C41.2048 39.1193 41.4238 40.9942 42.1943 42.6676C42.9649 44.3409 44.2472 45.7262 45.8563 46.6234C47.4653 47.5206 49.3177 47.8833 51.1463 47.6593C52.9749 47.4352 54.685 46.636 56.0298 45.3769C56.0479 45.5701 56.1374 45.7497 56.2808 45.8805C56.4242 46.0113 56.6112 46.0839 56.8053 46.0842C56.828 46.0843 56.8507 46.0833 56.8732 46.0811C56.9754 46.0724 57.0749 46.0436 57.166 45.9963C57.2571 45.9491 57.3379 45.8844 57.404 45.8059C57.47 45.7274 57.5199 45.6366 57.5509 45.5388C57.5818 45.441 57.5932 45.338 57.5843 45.2358L57.4287 43.4288C57.4199 43.3264 57.391 43.2267 57.3436 43.1355C57.2962 43.0443 57.2312 42.9634 57.1525 42.8974Z" fill="white"/>
<defs>
<linearGradient id="paint0_linear_226_735" x1="50" y1="0.357178" x2="50" y2="74.6429" gradientUnits="userSpaceOnUse">
<stop stop-color="#9893EA"/>
<stop offset="1" stop-color="#4D4A8E"/>
</linearGradient>
</defs>
</svg>
