<svg width="100" height="75" viewBox="0 0 100 75" fill="none" xmlns="http://www.w3.org/2000/svg">
<rect width="100" height="75" rx="25.9615" fill="url(#paint0_linear_226_659)"/>
<path d="M52.4749 33.7682C52.4763 33.7448 52.4789 33.7218 52.48 33.6984C52.4882 33.5348 52.4925 33.3705 52.4925 33.2055C52.4925 31.9012 51.9481 30.2552 50.8743 28.3135C50.8611 28.2896 50.8433 28.2694 50.8277 28.2473C48.2667 23.6372 43.6254 18.8086 43.3561 18.5302C43.2155 18.3848 43.0219 18.3027 42.8195 18.3027C42.6172 18.3027 42.4236 18.3848 42.2829 18.5302C41.9099 18.9158 33.1465 28.0329 33.1465 33.2055C33.1465 35.8534 34.2167 38.2554 35.9463 40.0039C35.9579 40.0173 35.967 40.0325 35.9797 40.0452C37.569 41.6348 39.6144 42.6022 41.8207 42.8271C41.8248 42.8275 41.8289 42.8282 41.833 42.8286C41.9738 42.8428 42.1154 42.8529 42.2574 42.861C42.2805 42.8623 42.3033 42.8649 42.3265 42.8661C42.4902 42.8742 42.6545 42.8786 42.8195 42.8786C42.9845 42.8786 43.1488 42.8742 43.3124 42.8661C43.3359 42.8649 43.3589 42.8623 43.3822 42.861C43.524 42.8529 43.6654 42.8428 43.8059 42.8286C43.8103 42.8282 43.8146 42.8275 43.819 42.827C46.025 42.602 48.0701 41.6346 49.6595 40.0452C51.2487 38.4561 52.2159 36.4111 52.441 34.2051C52.4414 34.2007 52.4422 34.1963 52.4426 34.1919C52.4568 34.0513 52.4668 33.91 52.4749 33.7682ZM50.9886 33.6222C50.9876 33.6423 50.9854 33.6622 50.9842 33.6824C50.9773 33.802 50.969 33.9213 50.957 34.0396C50.9566 34.0433 50.956 34.0471 50.9556 34.0509C50.5598 37.8877 47.5012 40.9461 43.6644 41.3417C43.6608 41.3421 43.6573 41.3426 43.6537 41.343C43.5353 41.3551 43.4157 41.3634 43.2958 41.3703C43.2759 41.3714 43.2562 41.3737 43.2363 41.3747C43.0982 41.3816 42.9593 41.3852 42.8195 41.3852C42.6874 41.3852 42.556 41.3815 42.4254 41.3752C42.3899 41.3735 42.3546 41.3706 42.3192 41.3684C42.2211 41.3625 42.1232 41.3555 42.026 41.3461C41.9918 41.3428 41.9578 41.3389 41.9237 41.3352C41.8197 41.3238 41.7162 41.3109 41.6135 41.2956C41.591 41.2923 41.5685 41.289 41.5461 41.2855C40.0909 41.057 38.7623 40.4432 37.6671 39.5524L49.9744 29.8215C50.089 30.0515 50.1979 30.2793 50.2959 30.5024C50.2992 30.5098 50.3022 30.5172 50.3055 30.5246C50.3624 30.6549 50.4162 30.7839 50.467 30.9115C50.479 30.9417 50.4898 30.9711 50.5013 31.0011C50.5433 31.1092 50.5839 31.2167 50.621 31.3225C50.6382 31.3717 50.6529 31.4191 50.6689 31.4675C50.6979 31.5546 50.7272 31.6419 50.7526 31.7273C50.7725 31.7944 50.7885 31.8588 50.8059 31.9242C50.8236 31.9899 50.843 32.0566 50.8583 32.1211C50.8785 32.2068 50.8938 32.289 50.9097 32.3716C50.918 32.4144 50.9287 32.4584 50.9358 32.5005C50.9536 32.6061 50.9658 32.7077 50.9761 32.8079C50.9779 32.8259 50.9816 32.8449 50.9832 32.8628C50.9938 32.9809 50.9992 33.0951 50.9992 33.2054C50.9992 33.3452 50.9956 33.4842 50.9886 33.6222ZM42.8196 20.1351C44.5481 21.9939 47.409 25.3714 49.2485 28.4917L36.5912 38.4994C35.3757 37.0714 34.6398 35.2233 34.6398 33.2055C34.6398 29.6659 40.1166 23.0427 42.8196 20.1351Z" fill="white"/>
<path d="M60.4843 39.4375C60.3436 39.292 60.15 39.21 59.9477 39.21C59.7453 39.21 59.5517 39.292 59.4111 39.4375C58.759 40.1114 53.041 46.1254 53.041 49.7256C53.041 53.5341 56.1393 56.6323 59.9477 56.6323C63.7561 56.6323 66.8544 53.5341 66.8544 49.7256C66.8544 46.1254 61.1363 40.1114 60.4843 39.4375ZM59.9477 55.139C56.9628 55.139 54.5343 52.7105 54.5343 49.7256C54.5343 47.4262 58.0528 43.1136 59.9478 41.0469C61.8427 43.1128 65.3611 47.4238 65.3611 49.7256C65.3611 52.7105 62.9326 55.139 59.9477 55.139Z" fill="white"/>
<line x1="55.5702" y1="52.9475" x2="64.5702" y2="45.9475" stroke="white" stroke-width="1.4"/>
<defs>
<linearGradient id="paint0_linear_226_659" x1="50" y1="0" x2="50" y2="75" gradientUnits="userSpaceOnUse">
<stop stop-color="#9893EA"/>
<stop offset="1" stop-color="#4D4A8E"/>
</linearGradient>
</defs>
</svg>
