<svg width="100" height="76" viewBox="0 0 100 76" fill="none" xmlns="http://www.w3.org/2000/svg">
<rect y="0.857178" width="100" height="75" rx="25.9615" fill="url(#paint0_linear_226_692)"/>
<path d="M43.6211 53.8201H40.6024" stroke="white" stroke-width="1.2" stroke-miterlimit="10" stroke-linecap="round" stroke-linejoin="round"/>
<path d="M34.5664 53.8203C34.5664 55.4654 35.9201 56.8029 37.5851 56.8029C39.2501 56.8029 40.6038 55.4654 40.6038 53.8203C40.6038 52.1751 39.2501 50.8376 37.5851 50.8376C35.9201 50.8376 34.5664 52.1751 34.5664 53.8203Z" stroke="white" stroke-width="1.2" stroke-miterlimit="10" stroke-linecap="round" stroke-linejoin="round"/>
<path d="M49.6585 53.8203C49.6585 55.4654 48.3048 56.8029 46.6398 56.8029C44.9748 56.8029 43.6211 55.4654 43.6211 53.8203C43.6211 52.1751 44.9748 50.8376 46.6398 50.8376C48.3048 50.8376 49.6585 52.1751 49.6585 53.8203Z" stroke="white" stroke-width="1.2" stroke-miterlimit="10" stroke-linecap="round" stroke-linejoin="round"/>
<path d="M27.5508 18.1397C27.5508 18.1397 28.1944 17.6431 28.6381 17.5728" stroke="white" stroke-width="1.2" stroke-miterlimit="10" stroke-linecap="round" stroke-linejoin="round"/>
<path d="M28.5596 15.4275C28.5596 15.4275 29.0526 16.3828 29.2689 16.6209" stroke="white" stroke-width="1.2" stroke-miterlimit="10" stroke-linecap="round" stroke-linejoin="round"/>
<path d="M69.4341 43.6899C67.7907 41.3329 53.2103 22.7361 50.6124 19.6457C48.0146 16.5552 44.7279 14.4065 40.0088 12.7314C35.2897 11.055 32.003 10.4785 31.2608 10.5841C30.5186 10.6883 24.6067 15.194 24.0767 15.8232C23.5467 16.4524 26.6745 20.0665 27.4962 20.1977C28.3179 20.329 31.3662 19.5956 31.3662 19.1504C31.3662 18.7053 31.143 17.0694 28.6356 17.5795C28.3357 17.6404 29.2751 17.1316 29.2272 16.654C29.1984 16.3645 29.6832 17.5443 30.7158 16.9571C30.9349 16.8326 32.0743 18.4441 32.0208 18.8365C31.9674 19.2289 31.2581 20.4345 27.7071 20.9582C24.1547 21.4818 25.0558 25.5681 28.626 24.2231C32.1961 22.8782 31.3293 22.686 32.5316 22.7564C33.734 22.8268 36.8618 23.437 38.7352 22.8268C40.6086 22.2152 40.7319 21.517 41.633 21.8485C42.5341 22.18 48.1543 27.8724 49.1444 32.6231C50.1345 37.3724 51.0301 42.096 52.1133 43.5195C52.7844 44.4017 53.0706 44.6398 51.2972 44.1067C49.9976 43.7157 49.0389 43.1352 46.4931 42.5412C45.3825 42.2827 41.2263 41.7374 37.6219 43.2218C35.3185 44.1703 33.9285 38.5996 24 36.3887V65.7506C26.8087 64.0268 27.2031 62.9281 29.8311 62.2597C30.8431 62.0026 36.3174 65.3787 54.431 63.4492C57.8067 63.0893 66.1693 62.1446 68.7439 58.9906C69.8901 57.5861 74.3641 57.1044 74.9475 54.9571C75.5322 52.8043 71.0774 46.047 69.4341 43.6899Z" stroke="white" stroke-width="1.2" stroke-miterlimit="10" stroke-linecap="round" stroke-linejoin="round"/>
<path d="M59.2879 49.1355C59.2879 49.1355 55.1686 45.5986 52.2695 44.3591" stroke="white" stroke-width="1.2" stroke-miterlimit="10" stroke-linecap="round" stroke-linejoin="round"/>
<path d="M55.0976 54.5592C55.0976 56.3263 53.8012 58.0523 51.4275 59.371C49.0741 60.6785 45.7822 61.5059 42.1134 61.5059C38.4446 61.5059 35.1528 60.6785 32.7994 59.371C30.4257 58.0523 29.1293 56.3263 29.1293 54.5592C29.1293 52.7921 30.4257 51.0661 32.7994 49.7473C35.1528 48.4399 38.4446 47.6125 42.1134 47.6125C45.7822 47.6125 49.0741 48.4399 51.4275 49.7473C53.8012 51.0661 55.0976 52.7921 55.0976 54.5592Z" stroke="white" stroke-width="1.2"/>
<defs>
<linearGradient id="paint0_linear_226_692" x1="50" y1="0.857178" x2="50" y2="75.8572" gradientUnits="userSpaceOnUse">
<stop stop-color="#9893EA"/>
<stop offset="1" stop-color="#4D4A8E"/>
</linearGradient>
</defs>
</svg>
