<svg width="100" height="75" viewBox="0 0 100 75" fill="none" xmlns="http://www.w3.org/2000/svg">
<rect y="0.357178" width="100" height="74.2857" rx="25.7143" fill="url(#paint0_linear_226_639)"/>
<path d="M30.7961 47.4823C23.0682 38.6991 23.0682 25.3621 30.7947 16.5789" stroke="white" stroke-width="1.3" stroke-miterlimit="10" stroke-linecap="round" stroke-linejoin="round"/>
<path d="M69.5365 16.5789C77.2644 25.3621 77.263 38.6991 69.5352 47.4823" stroke="white" stroke-width="1.3" stroke-miterlimit="10" stroke-linecap="round" stroke-linejoin="round"/>
<path d="M35.7079 43.331C30.2745 36.8328 30.2745 27.2253 35.7079 20.7271" stroke="white" stroke-width="1.3" stroke-miterlimit="10" stroke-linecap="round" stroke-linejoin="round"/>
<path d="M64.624 20.7285C70.0575 27.2267 70.0588 36.8342 64.624 43.3325" stroke="white" stroke-width="1.3" stroke-miterlimit="10" stroke-linecap="round" stroke-linejoin="round"/>
<path d="M42.4603 41.1012C36.8661 36.3245 36.8661 27.7345 42.4603 22.9578" stroke="white" stroke-width="1.3" stroke-miterlimit="10" stroke-linecap="round" stroke-linejoin="round"/>
<path d="M57.8711 22.9578C63.4653 27.7345 63.4653 36.3245 57.8711 41.1012" stroke="white" stroke-width="1.3" stroke-miterlimit="10" stroke-linecap="round" stroke-linejoin="round"/>
<path d="M50.1653 33.8833C50.1688 33.8833 50.1719 33.8858 50.1726 33.8892L54.6323 54.4387C54.7676 55.0619 54.2928 55.6508 53.6551 55.6508H46.6767C46.0391 55.6508 45.5643 55.062 45.6995 54.4388L50.1579 33.8892C50.1587 33.8858 50.1617 33.8833 50.1653 33.8833Z" fill="white"/>
<path d="M52.2001 32.0305C52.2001 33.1534 51.2894 34.0641 50.1665 34.0641C49.0436 34.0641 48.1328 33.1534 48.1328 32.0305C48.1328 30.9076 49.0436 29.9968 50.1665 29.9968C51.2894 29.9968 52.2001 30.9076 52.2001 32.0305Z" stroke="white" stroke-width="1.3" stroke-miterlimit="10" stroke-linecap="round" stroke-linejoin="round"/>
<defs>
<linearGradient id="paint0_linear_226_639" x1="50" y1="0.357178" x2="50" y2="74.6429" gradientUnits="userSpaceOnUse">
<stop stop-color="#9893EA"/>
<stop offset="1" stop-color="#4D4A8E"/>
</linearGradient>
</defs>
</svg>
