<svg width="100" height="75" viewBox="0 0 100 75" fill="none" xmlns="http://www.w3.org/2000/svg">
<rect y="0.357178" width="100" height="74.2857" rx="25.7143" fill="url(#paint0_linear_226_534)"/>
<path d="M30.7961 48.4818C23.0682 39.6986 23.0682 26.3616 30.7947 17.5784" stroke="white" stroke-width="1.3" stroke-miterlimit="10" stroke-linecap="round" stroke-linejoin="round"/>
<path d="M69.5365 17.5784C77.2644 26.3616 77.263 39.6986 69.5352 48.4818" stroke="white" stroke-width="1.3" stroke-miterlimit="10" stroke-linecap="round" stroke-linejoin="round"/>
<path d="M35.7079 44.3305C30.2745 37.8323 30.2745 28.2248 35.7079 21.7266" stroke="white" stroke-width="1.3" stroke-miterlimit="10" stroke-linecap="round" stroke-linejoin="round"/>
<path d="M64.624 21.728C70.0575 28.2263 70.0588 37.8338 64.624 44.332" stroke="white" stroke-width="1.3" stroke-miterlimit="10" stroke-linecap="round" stroke-linejoin="round"/>
<path d="M42.4603 42.101C36.8661 37.3242 36.8661 28.7342 42.4603 23.9575" stroke="white" stroke-width="1.3" stroke-miterlimit="10" stroke-linecap="round" stroke-linejoin="round"/>
<path d="M57.8711 23.9575C63.4653 28.7342 63.4653 37.3242 57.8711 42.101" stroke="white" stroke-width="1.3" stroke-miterlimit="10" stroke-linecap="round" stroke-linejoin="round"/>
<path d="M50.1653 34.8828C50.1688 34.8828 50.1719 34.8853 50.1726 34.8888L54.6323 55.4382C54.7676 56.0615 54.2928 56.6503 53.6551 56.6503H46.6767C46.0391 56.6503 45.5643 56.0615 45.6995 55.4383L50.1579 34.8888C50.1587 34.8853 50.1617 34.8828 50.1653 34.8828Z" fill="white"/>
<path d="M52.2001 33.0302C52.2001 34.1531 51.2894 35.0639 50.1665 35.0639C49.0436 35.0639 48.1328 34.1531 48.1328 33.0302C48.1328 31.9073 49.0436 30.9966 50.1665 30.9966C51.2894 30.9966 52.2001 31.9073 52.2001 33.0302Z" stroke="white" stroke-width="1.3" stroke-miterlimit="10" stroke-linecap="round" stroke-linejoin="round"/>
<defs>
<linearGradient id="paint0_linear_226_534" x1="50" y1="0.357178" x2="50" y2="74.6429" gradientUnits="userSpaceOnUse">
<stop stop-color="#9893EA"/>
<stop offset="1" stop-color="#4D4A8E"/>
</linearGradient>
</defs>
</svg>
