<svg width="100" height="75" viewBox="0 0 100 75" fill="none" xmlns="http://www.w3.org/2000/svg">
<rect y="0.356934" width="100" height="74.2857" rx="25.7143" fill="url(#paint0_linear_226_503)"/>
<path fill-rule="evenodd" clip-rule="evenodd" d="M62.1172 52.607C62.0357 52.607 61.9522 52.5883 61.8737 52.5511C61.5921 52.4156 61.4733 52.0781 61.6077 51.7965L70.0304 34.2309C70.1649 33.9493 70.5023 33.8306 70.784 33.965C71.0658 34.1004 71.1843 34.438 71.0499 34.7197L62.6274 52.2851C62.5303 52.4882 62.328 52.607 62.1172 52.607ZM59.3861 53.3753C59.281 53.3753 59.1741 53.346 59.0799 53.2841L46.8244 45.3413C46.5624 45.1715 46.4877 44.8213 46.6575 44.5593C46.8273 44.2972 47.1766 44.2227 47.4395 44.3924L59.6942 52.3351C59.9562 52.5049 60.0307 52.8553 59.861 53.1173C59.7531 53.2841 59.5715 53.3754 59.3861 53.3753ZM33.5187 57.912C33.3873 57.912 33.2556 57.8668 33.1487 57.7746C32.9124 57.5704 32.8867 57.2133 33.0908 56.9768L43.4968 44.9527C43.7009 44.7163 44.0579 44.6908 44.2944 44.8949C44.53 45.099 44.5565 45.4562 44.3514 45.6927L33.9466 57.7167C33.8346 57.8462 33.6767 57.912 33.5187 57.912Z" fill="white"/>
<path fill-rule="evenodd" clip-rule="evenodd" d="M61.1889 52.3955C60.3166 52.3955 59.6071 53.1051 59.6071 53.9775C59.6072 54.8499 60.3165 55.5594 61.1889 55.5594C62.0613 55.5593 62.7718 54.8499 62.7718 53.9775C62.7718 53.105 62.0613 52.3956 61.1889 52.3955ZM61.1889 56.6897C59.6935 56.6897 58.4766 55.473 58.4766 53.9775C58.4767 52.4819 59.6934 51.2651 61.1889 51.2651C62.6855 51.265 63.9022 52.4819 63.9022 53.9775C63.9023 55.473 62.6854 56.6898 61.1889 56.6897Z" fill="white"/>
<path fill-rule="evenodd" clip-rule="evenodd" d="M71.4683 30.9566C70.5959 30.9566 69.8863 31.6661 69.8863 32.5385C69.8865 33.4108 70.5959 34.1204 71.4682 34.1204C72.3407 34.1204 73.0511 33.4109 73.0511 32.5385C73.0512 31.6661 72.3406 30.9566 71.4683 30.9566ZM71.4683 35.2508C69.9729 35.2508 68.7559 34.034 68.7559 32.5385C68.756 31.0429 69.9727 29.8262 71.4682 29.8262C72.9649 29.8261 74.1816 31.043 74.1816 32.5385C74.1817 34.034 72.9647 35.2509 71.4683 35.2508Z" fill="white"/>
<path fill-rule="evenodd" clip-rule="evenodd" d="M32.1138 57.3887C31.2415 57.3887 30.5318 58.0982 30.5318 58.9706C30.5321 59.8429 31.2413 60.5525 32.1138 60.5525C32.9862 60.5525 33.6956 59.843 33.6956 58.9706C33.6956 58.0982 32.9861 57.3888 32.1138 57.3887ZM32.1138 61.6829C30.6184 61.6829 29.4014 60.4661 29.4014 58.9706C29.4016 57.475 30.6182 56.2583 32.1138 56.2583C33.6093 56.2582 34.8261 57.4751 34.8261 58.9706C34.8261 60.4661 33.6092 61.683 32.1138 61.6829Z" fill="white"/>
<path fill-rule="evenodd" clip-rule="evenodd" d="M45.3297 42.1167C44.4574 42.1167 43.7467 42.8263 43.7467 43.6987C43.7469 44.5709 44.4572 45.2805 45.3296 45.2805C46.2021 45.2805 46.9114 44.571 46.9114 43.6987C46.9115 42.8262 46.202 42.1168 45.3297 42.1167ZM45.3297 46.4109C43.8341 46.4109 42.6172 45.1942 42.6172 43.6987C42.6173 42.2031 43.8341 40.9863 45.3296 40.9863C46.8252 40.9862 48.0419 42.2031 48.0419 43.6987C48.042 45.1942 46.8251 46.411 45.3297 46.4109Z" fill="white"/>
<path fill-rule="evenodd" clip-rule="evenodd" d="M57.7939 18.2843C55.4367 18.2843 53.5191 20.2018 53.5191 22.5589C53.5193 24.916 55.4366 26.8345 57.7937 26.8345C60.152 26.8345 62.0693 24.916 62.0693 22.5589C62.0693 20.2018 60.1518 18.2843 57.7939 18.2843ZM57.7939 27.9639C54.8136 27.9639 52.3887 25.5391 52.3887 22.5589C52.3888 19.5786 54.8134 17.1538 57.7937 17.1538C60.7751 17.1538 63.1998 19.5786 63.1998 22.5589C63.1998 25.539 60.7749 27.9639 57.7939 27.9639Z" fill="white"/>
<path fill-rule="evenodd" clip-rule="evenodd" d="M57.7939 13.4478C52.7706 13.4478 48.6822 17.535 48.6822 22.5593C48.6824 27.1361 51.6419 32.7905 53.8674 36.6451C53.8706 36.6509 53.8744 36.6578 53.8773 36.6637L57.7939 44.0579L61.7112 36.6637C61.7141 36.6577 61.718 36.651 61.7209 36.6451C63.9465 32.7904 66.9062 27.1362 66.9062 22.5593C66.9063 17.535 62.818 13.4479 57.7939 13.4478ZM57.7939 45.8302C57.5848 45.8302 57.3923 45.7144 57.2942 45.5299L52.8834 37.2014C50.3997 32.8994 47.5518 27.3501 47.5518 22.5593C47.5519 16.9118 52.1462 12.3174 57.7937 12.3174C63.4423 12.3173 68.0366 16.9119 68.0366 22.5593C68.0368 27.35 65.1889 32.8994 62.7052 37.2015L58.2933 45.5299C58.1962 45.7143 58.0037 45.8302 57.7939 45.8302Z" fill="white"/>
<path fill-rule="evenodd" clip-rule="evenodd" d="M34.6896 25.316C32.987 25.316 31.6012 26.7017 31.6012 28.4052C31.6013 30.1087 32.9868 31.4944 34.6894 31.4944C36.393 31.4943 37.7786 30.1088 37.7786 28.4052C37.7787 26.7016 36.3929 25.316 34.6896 25.316ZM34.6896 32.6248C32.3637 32.6248 30.4707 30.7319 30.4707 28.4052C30.4708 26.0784 32.3637 24.1855 34.6894 24.1855C37.0161 24.1855 38.909 26.0785 38.909 28.4052C38.9092 30.7318 37.0161 32.6249 34.6896 32.6248Z" fill="white"/>
<path fill-rule="evenodd" clip-rule="evenodd" d="M34.6897 21.6641C30.9734 21.6641 27.9488 24.6886 27.9488 28.4048C27.949 31.8265 30.1725 36.0737 31.8447 38.9706C31.8487 38.9765 31.8515 38.9824 31.8554 38.9883L34.6897 44.3393L37.5247 38.9881C37.5275 38.9823 37.5314 38.9765 37.5343 38.9706C39.2076 36.0737 41.4301 31.8266 41.4301 28.4048C41.4303 24.6886 38.4067 21.6642 34.6897 21.6641ZM34.6897 46.1126C34.4806 46.1126 34.2881 45.9968 34.19 45.8123L30.8604 39.5269C28.9784 36.2641 26.8184 32.0533 26.8184 28.4048C26.8185 24.0644 30.3501 20.5337 34.6895 20.5337C39.0298 20.5337 42.5606 24.0645 42.5606 28.4048C42.5608 32.0533 40.4017 36.2641 38.5186 39.527L35.1891 45.8123C35.092 45.9967 34.8995 46.1126 34.6897 46.1126Z" fill="white"/>
<defs>
<linearGradient id="paint0_linear_226_503" x1="50" y1="0.356934" x2="50" y2="74.6426" gradientUnits="userSpaceOnUse">
<stop stop-color="#9893EA"/>
<stop offset="1" stop-color="#4D4A8E"/>
</linearGradient>
</defs>
</svg>
