<svg width="100" height="75" viewBox="0 0 100 75" fill="none" xmlns="http://www.w3.org/2000/svg">
<rect y="0.5" width="100" height="74.2857" rx="25.7143" fill="url(#paint0_linear_226_747)"/>
<path d="M62.3139 20.8574C70.0417 29.6406 70.0404 42.9776 62.3125 51.7608" stroke="white" stroke-width="1.3" stroke-miterlimit="10" stroke-linecap="round" stroke-linejoin="round"/>
<path d="M57.4004 25.0068C62.8338 31.5051 62.8352 41.1126 57.4004 47.6108" stroke="white" stroke-width="1.3" stroke-miterlimit="10" stroke-linecap="round" stroke-linejoin="round"/>
<path d="M50.6484 27.2363C56.2427 32.013 56.2427 40.603 50.6484 45.3798" stroke="white" stroke-width="1.3" stroke-miterlimit="10" stroke-linecap="round" stroke-linejoin="round"/>
<path d="M39.602 48.3806C39.5468 48.3806 39.502 48.3359 39.502 48.2806V38.1595C39.502 38.0705 39.3943 38.0258 39.3313 38.0888L32.9852 44.4349C32.9462 44.474 32.8828 44.474 32.8438 44.4349L32.0707 43.6618C32.0317 43.6228 32.0317 43.5595 32.0707 43.5204L39.1626 36.4285C39.2017 36.3895 39.2017 36.3261 39.1626 36.2871L32.0707 29.1952C32.0317 29.1561 32.0317 29.0928 32.0707 29.0538L32.8438 28.2807C32.8828 28.2416 32.9462 28.2416 32.9852 28.2807L39.3313 34.6268C39.3943 34.6897 39.502 34.6451 39.502 34.556V24.435C39.502 24.3797 39.5468 24.335 39.602 24.335H40.1064C40.1329 24.335 40.1584 24.3455 40.1771 24.3643L46.5458 30.7329C46.5848 30.772 46.5848 30.8353 46.5458 30.8743L41.133 36.2871C41.094 36.3261 41.094 36.3895 41.133 36.4285L46.5458 41.8412C46.5848 41.8803 46.5848 41.9436 46.5458 41.9827L40.1771 48.3513C40.1584 48.3701 40.1329 48.3806 40.1064 48.3806H39.602ZM40.7937 34.556C40.7937 34.6451 40.9014 34.6897 40.9644 34.6268L44.7167 30.8745C44.7558 30.8354 44.7557 30.7719 44.7165 30.7329L40.9642 26.9952C40.9012 26.9324 40.7937 26.9771 40.7937 27.0661V34.556ZM40.7937 45.6508C40.7937 45.7398 40.9012 45.7844 40.9643 45.7216L44.7165 41.9827C44.7557 41.9436 44.7558 41.8802 44.7167 41.8411L40.9644 38.0888C40.9014 38.0258 40.7937 38.0705 40.7937 38.1595V45.6508Z" fill="white"/>
<defs>
<linearGradient id="paint0_linear_226_747" x1="50" y1="0.5" x2="50" y2="74.7857" gradientUnits="userSpaceOnUse">
<stop stop-color="#9893EA"/>
<stop offset="1" stop-color="#4D4A8E"/>
</linearGradient>
</defs>
</svg>
