<svg width="100" height="75" viewBox="0 0 100 75" fill="none" xmlns="http://www.w3.org/2000/svg">
<rect width="100" height="75" rx="25.9615" fill="url(#paint0_linear_226_554)"/>
<path d="M52.4749 33.768C52.4763 33.7446 52.4789 33.7215 52.48 33.6981C52.4882 33.5345 52.4925 33.3702 52.4925 33.2052C52.4925 31.9009 51.9481 30.255 50.8743 28.3132C50.8611 28.2893 50.8433 28.2691 50.8277 28.247C48.2667 23.6369 43.6254 18.8083 43.3561 18.53C43.2155 18.3845 43.0219 18.3025 42.8195 18.3025C42.6172 18.3025 42.4236 18.3845 42.2829 18.53C41.9099 18.9155 33.1465 28.0327 33.1465 33.2052C33.1465 35.8531 34.2167 38.2551 35.9463 40.0036C35.9579 40.0171 35.967 40.0323 35.9797 40.045C37.569 41.6345 39.6144 42.602 41.8207 42.8269C41.8248 42.8273 41.8289 42.828 41.833 42.8284C41.9738 42.8426 42.1154 42.8527 42.2574 42.8608C42.2805 42.8621 42.3033 42.8647 42.3265 42.8658C42.4902 42.874 42.6545 42.8784 42.8195 42.8784C42.9845 42.8784 43.1488 42.874 43.3124 42.8658C43.3359 42.8647 43.3589 42.8621 43.3822 42.8607C43.524 42.8526 43.6654 42.8425 43.8059 42.8284C43.8103 42.828 43.8146 42.8272 43.819 42.8268C46.025 42.6017 48.0701 41.6344 49.6595 40.045C51.2487 38.4558 52.2159 36.4108 52.441 34.2048C52.4414 34.2004 52.4422 34.1961 52.4426 34.1917C52.4568 34.0511 52.4668 33.9097 52.4749 33.768ZM50.9886 33.622C50.9876 33.6421 50.9854 33.662 50.9842 33.6821C50.9773 33.8018 50.969 33.9211 50.957 34.0393C50.9566 34.0431 50.956 34.0469 50.9556 34.0507C50.5598 37.8875 47.5012 40.9459 43.6644 41.3414C43.6608 41.3418 43.6573 41.3424 43.6537 41.3428C43.5352 41.3548 43.4157 41.3631 43.2958 41.37C43.2759 41.3712 43.2562 41.3734 43.2363 41.3744C43.0982 41.3814 42.9593 41.385 42.8195 41.385C42.6874 41.385 42.556 41.3812 42.4254 41.375C42.3899 41.3733 42.3546 41.3703 42.3192 41.3682C42.2211 41.3622 42.1232 41.3552 42.026 41.3458C41.9918 41.3426 41.9578 41.3386 41.9237 41.3349C41.8197 41.3235 41.7162 41.3106 41.6135 41.2954C41.591 41.2921 41.5685 41.2888 41.5461 41.2853C40.0909 41.0568 38.7623 40.4429 37.6671 39.5522L49.9744 29.8213C50.089 30.0513 50.1979 30.279 50.2959 30.5022C50.2992 30.5096 50.3022 30.5169 50.3055 30.5243C50.3624 30.6547 50.4162 30.7837 50.467 30.9112C50.479 30.9415 50.4898 30.9709 50.5013 31.0008C50.5433 31.1089 50.5839 31.2164 50.621 31.3222C50.6382 31.3714 50.6529 31.4188 50.6689 31.4672C50.6979 31.5544 50.7272 31.6417 50.7526 31.7271C50.7725 31.7942 50.7885 31.8585 50.8059 31.9239C50.8236 31.9897 50.843 32.0563 50.8583 32.1208C50.8785 32.2066 50.8938 32.2888 50.9097 32.3714C50.918 32.4141 50.9287 32.4582 50.9358 32.5003C50.9536 32.6059 50.9658 32.7075 50.9761 32.8076C50.9779 32.8257 50.9816 32.8447 50.9832 32.8626C50.9938 32.9806 50.9992 33.0949 50.9992 33.2051C50.9992 33.345 50.9956 33.4839 50.9886 33.622ZM42.8196 20.1349C44.5481 21.9937 47.409 25.3712 49.2485 28.4915L36.5912 38.4991C35.3757 37.0712 34.6398 35.223 34.6398 33.2052C34.6398 29.6657 40.1166 23.0424 42.8196 20.1349Z" fill="white"/>
<path d="M60.4833 39.4377C60.3426 39.2922 60.1491 39.2102 59.9467 39.2102C59.7444 39.2102 59.5508 39.2922 59.4101 39.4377C58.7581 40.1117 53.04 46.1256 53.04 49.7259C53.04 53.5343 56.1384 56.6326 59.9467 56.6326C63.7551 56.6326 66.8535 53.5343 66.8535 49.7259C66.8535 46.1256 61.1353 40.1116 60.4833 39.4377ZM59.9467 55.1392C56.9618 55.1392 54.5334 52.7107 54.5334 49.7259C54.5334 47.4265 58.0519 43.1138 59.9468 41.0472C61.8417 43.1131 65.3601 47.4241 65.3601 49.7259C65.3601 52.7107 62.9316 55.1392 59.9467 55.1392Z" fill="white"/>
<defs>
<linearGradient id="paint0_linear_226_554" x1="50" y1="0" x2="50" y2="75" gradientUnits="userSpaceOnUse">
<stop stop-color="#9893EA"/>
<stop offset="1" stop-color="#4D4A8E"/>
</linearGradient>
</defs>
</svg>
