<svg width="100" height="76" viewBox="0 0 100 76" fill="none" xmlns="http://www.w3.org/2000/svg">
<rect y="0.857178" width="100" height="74.2857" rx="25.7143" fill="url(#paint0_linear_549_1368)"/>
<path d="M57.866 40.713C57.7671 40.713 57.6691 40.6907 57.5771 40.646C52.6443 38.1769 46.0402 31.9537 46.8027 25.8413C47.1096 23.3783 49.1969 20.4726 51.8129 20.0711C52.1216 20.0238 52.4405 19.9998 52.762 19.9998C54.5149 19.9998 56.6942 20.7442 57.8669 22.7293C59.0403 20.7442 61.2196 19.9998 62.9743 19.9998C63.2932 19.9998 63.6121 20.0238 63.9216 20.0711C66.5376 20.4717 68.6232 23.3783 68.9301 25.8413C69.6961 31.9528 63.0903 38.1778 58.1557 40.646C58.0637 40.6898 57.9648 40.713 57.866 40.713ZM52.7612 21.2893C52.5059 21.2893 52.2522 21.3091 52.0072 21.346C49.999 21.6538 48.3269 24.0472 48.0819 26.0012C47.4122 31.3743 53.3071 36.9571 57.866 39.3444C62.3071 37.0112 68.3146 31.3132 67.6501 26.0012C67.4068 24.0472 65.7338 21.6538 63.7256 21.346C63.4806 21.3091 63.227 21.2893 62.9734 21.2893C61.2858 21.2893 59.1014 22.1533 58.4918 24.5888C58.4196 24.875 58.1609 25.0762 57.866 25.0762C57.5703 25.0762 57.3115 24.875 57.241 24.5879C56.6315 22.1533 54.447 21.2893 52.7612 21.2893Z" fill="white"/>
<path d="M53.9966 54.2497C50.8132 54.2497 46.3686 52.208 45.3293 51.7085L42.1175 52.5114C41.7779 52.6008 41.422 52.3885 41.3369 52.0421C41.2492 51.6973 41.4598 51.3466 41.8054 51.2606L45.2442 50.4009C45.3937 50.3657 45.5511 50.3803 45.6895 50.4499C45.7402 50.4748 50.7539 52.9611 53.9975 52.9611C58.0947 52.9611 65.6823 47.0275 68.1574 44.5533C68.6878 44.0229 68.8056 43.4495 68.6457 43.1787C68.4677 42.8761 67.8479 42.8271 67.0707 43.0497C64.1813 43.875 59.8846 46.4962 58.8667 47.1315C58.8564 47.3353 58.816 47.5321 58.7524 47.717C58.4163 48.6712 57.2712 49.5034 55.5604 49.0736L48.6829 47.3542C48.3373 47.2674 48.1275 46.9175 48.2144 46.5727C48.3003 46.2271 48.6563 46.0165 48.995 46.1033L55.8725 47.8227C56.8112 48.0557 57.382 47.7221 57.5342 47.2889C57.7036 46.8057 57.3898 46.0956 56.3049 45.5944C56.1708 45.5325 55.949 45.4233 55.6567 45.278C53.541 44.2327 47.1019 41.0699 43.7389 41.3536C41.6404 41.5427 40.8709 44.2911 40.8641 44.3186C40.8237 44.4691 40.73 44.5998 40.5984 44.6866L38.0194 46.406C37.7236 46.6028 37.3239 46.5229 37.1261 46.2271C36.9284 45.9306 37.0084 45.5308 37.3041 45.3331L39.6932 43.7392C39.9734 42.9165 41.0584 40.3005 43.6219 40.0684C46.967 39.7752 52.4165 42.2373 56.2266 44.1218C56.5052 44.2602 56.7167 44.3642 56.8448 44.4244C57.6658 44.8027 58.2082 45.3004 58.522 45.8257C59.9843 44.9264 63.8916 42.6173 66.7139 41.8109C68.7402 41.2289 69.5165 42.1178 69.7547 42.5253C70.2533 43.373 69.9764 44.5551 69.066 45.4655C66.8162 47.7153 58.7352 54.2497 53.9966 54.2497Z" fill="white"/>
<path d="M38.5222 57.688C38.4939 57.688 38.4655 57.6863 38.4363 57.682C38.2617 57.6596 38.1036 57.5642 38.0013 57.4223L31.1238 47.9658C30.9209 47.6873 30.9725 47.2987 31.2416 47.0829L35.54 43.6441C35.6775 43.535 35.8572 43.4842 36.0283 43.51C36.2028 43.5324 36.361 43.6269 36.465 43.7688L43.3425 53.2253C43.5454 53.5039 43.4921 53.8925 43.223 54.1082L38.9246 57.547C38.8111 57.6381 38.6684 57.688 38.5222 57.688ZM32.5294 47.7053L38.646 56.1182L41.9369 53.4867L35.8185 45.0738L32.5294 47.7053Z" fill="white"/>
<defs>
<linearGradient id="paint0_linear_549_1368" x1="50" y1="0.857178" x2="50" y2="75.1429" gradientUnits="userSpaceOnUse">
<stop stop-color="#9893EA"/>
<stop offset="1" stop-color="#4D4A8E"/>
</linearGradient>
</defs>
</svg>
