<svg width="100" height="76" viewBox="0 0 100 76" fill="none" xmlns="http://www.w3.org/2000/svg">
<rect y="0.857178" width="100" height="74.2857" rx="25.7143" fill="url(#paint0_linear_549_1383)"/>
<path d="M52.2357 41.8297H46.7877C43.559 41.8297 42.484 39.8497 42.1537 38.8955H41.758C41.4356 38.8955 41.1738 38.6337 41.1738 38.3112C41.1738 37.9888 41.4356 37.727 41.758 37.727H42.5962C42.8867 37.727 43.1329 37.9405 43.1742 38.2295C43.1897 38.3245 43.594 40.6613 46.7877 40.6613H52.2357C53.2093 40.6613 53.778 40.243 53.8972 39.8543C53.9867 39.5576 53.7788 39.3441 53.5887 39.2172C53.3745 39.0738 53.2802 38.8082 53.3542 38.5613C53.429 38.3151 53.6557 38.1469 53.9127 38.1469C54.5133 38.1469 54.8085 37.6367 54.8802 37.1997C54.9347 36.8593 54.8607 36.4496 54.5655 36.353C54.3264 36.272 54.1651 36.0492 54.1651 35.7976C54.1651 35.5468 54.3264 35.3232 54.5655 35.243C54.9674 35.109 55.11 34.6673 55.11 34.33C55.1084 33.992 54.9666 33.5511 54.5655 33.4179C54.3264 33.3377 54.1651 33.1149 54.1651 32.8633C54.1651 32.6117 54.3264 32.3889 54.5655 32.3087C54.8817 32.2035 54.8366 31.8172 54.8241 31.7408C54.7252 31.1293 54.0163 30.5132 52.6547 30.5132H48.8831C48.6759 30.5132 48.4842 30.4034 48.3799 30.2242C48.3495 30.172 47.6391 28.9195 48.8527 27.4605C49.9744 26.1153 49.9954 24.4857 49.5179 23.4668C49.2531 22.9021 48.8504 22.55 48.4632 22.55C48.0465 22.55 47.9047 22.8655 47.7466 24.1593C47.6313 25.1081 47.4989 26.1838 46.6592 26.6644C43.9726 28.1997 43.1586 30.5116 43.1508 30.5342C43.0698 30.771 42.8478 30.9323 42.597 30.9323H41.7588C41.4363 30.9323 41.1746 30.6713 41.1746 30.3481C41.1746 30.0256 41.4363 29.7638 41.7588 29.7638H42.2059C42.5814 28.9413 43.6633 27.0305 46.0796 25.6502C46.4099 25.4609 46.5042 24.6937 46.5875 24.0183C46.723 22.9052 46.91 21.3816 48.4632 21.3816C49.3201 21.3816 50.1091 21.9759 50.5765 22.9714C51.1638 24.2255 51.2994 26.3497 49.75 28.2083C49.3512 28.6873 49.292 29.0885 49.3146 29.3448H52.654C54.7018 29.3448 55.7986 30.454 55.9769 31.5531C56.0533 32.0251 55.9544 32.473 55.7214 32.8189C56.0728 33.2014 56.2768 33.7341 56.2784 34.3285C56.2784 34.9205 56.0759 35.4494 55.7292 35.8326C56.0136 36.2361 56.1312 36.7845 56.0338 37.3851C55.9302 38.0184 55.561 38.6844 54.9417 39.045C55.1045 39.401 55.1349 39.799 55.0165 40.1932C54.7688 41.0072 53.813 41.8297 52.2357 41.8297Z" fill="white"/>
<path d="M40.9219 39.3128H35.9514C35.6289 39.3128 35.3672 39.051 35.3672 38.7286V29.9272C35.3672 29.6047 35.6289 29.343 35.9514 29.343H40.9219C41.2443 29.343 41.5061 29.6047 41.5061 29.9272V38.7286C41.5061 39.0518 41.2443 39.3128 40.9219 39.3128ZM36.5356 38.1443H40.3377V30.5114H36.5356V38.1443Z" fill="white"/>
<path d="M37.1526 53.9998C37.0763 53.9998 36.9992 53.9842 36.926 53.9538C36.7102 53.8627 36.5684 53.65 36.5684 53.4155V47.7682H34.8158C31.0581 47.7682 28 44.7108 28 40.9524V23.8155C28 20.0579 31.0581 16.9998 34.8158 16.9998H58.1842C61.9434 16.9998 65 20.0579 65 23.8155V40.9524C65 44.7108 61.9434 47.7682 58.1842 47.7682H43.7612L37.5616 53.8331C37.451 53.9421 37.303 53.9998 37.1526 53.9998ZM34.8158 18.1682C31.7016 18.1682 29.1684 20.7013 29.1684 23.8155V40.9524C29.1684 44.0666 31.7016 46.5998 34.8158 46.5998H37.1526C37.4751 46.5998 37.7368 46.8615 37.7368 47.184V52.0267L43.1147 46.7664C43.223 46.6597 43.3702 46.5998 43.5221 46.5998H58.1834C61.2977 46.5998 63.8308 44.0666 63.8308 40.9524V23.8155C63.8308 20.7013 61.2977 18.1682 58.1834 18.1682H34.8158Z" fill="white"/>
<defs>
<linearGradient id="paint0_linear_549_1383" x1="50" y1="0.857178" x2="50" y2="75.1429" gradientUnits="userSpaceOnUse">
<stop stop-color="#9893EA"/>
<stop offset="1" stop-color="#4D4A8E"/>
</linearGradient>
</defs>
</svg>
