<svg width="100" height="76" viewBox="0 0 100 76" fill="none" xmlns="http://www.w3.org/2000/svg">
<rect y="0.5" width="100" height="75" rx="25.9615" fill="url(#paint0_linear_549_1011)"/>
<path d="M44.1582 47.6152H41.6722" stroke="white" stroke-width="1.2" stroke-miterlimit="10" stroke-linecap="round" stroke-linejoin="round"/>
<path d="M36.7031 47.6154C36.7031 48.9703 37.8179 50.0717 39.1891 50.0717C40.5603 50.0717 41.6751 48.9703 41.6751 47.6154C41.6751 46.2606 40.5603 45.1592 39.1891 45.1592C37.8179 45.1592 36.7031 46.2606 36.7031 47.6154Z" stroke="white" stroke-width="1.2" stroke-miterlimit="10" stroke-linecap="round" stroke-linejoin="round"/>
<path d="M49.1302 47.6155C49.1302 48.9703 48.0154 50.0717 46.6442 50.0717C45.273 50.0717 44.1582 48.9703 44.1582 47.6155C44.1582 46.2606 45.273 45.1592 46.6442 45.1592C48.0154 45.1592 49.1302 46.2606 49.1302 47.6155Z" stroke="white" stroke-width="1.2" stroke-miterlimit="10" stroke-linecap="round" stroke-linejoin="round"/>
<path d="M30.9238 18.2323C30.9238 18.2323 31.4539 17.8233 31.8193 17.7654" stroke="white" stroke-width="1.2" stroke-miterlimit="10" stroke-linecap="round" stroke-linejoin="round"/>
<path d="M31.7539 15.999C31.7539 15.999 32.1599 16.7857 32.3381 16.9818" stroke="white" stroke-width="1.2" stroke-miterlimit="10" stroke-linecap="round" stroke-linejoin="round"/>
<path d="M65.4163 39.2736C64.063 37.3325 52.0555 22.0175 49.9161 19.4724C47.7767 16.9274 45.0701 15.1578 41.1837 13.7783C37.2974 12.3977 34.5907 11.923 33.9795 12.0099C33.3682 12.0957 28.4996 15.8064 28.0632 16.3245C27.6267 16.8427 30.2026 19.819 30.8792 19.927C31.5559 20.0351 34.0663 19.4312 34.0663 19.0646C34.0663 18.698 33.8825 17.3508 31.8175 17.7709C31.5705 17.821 32.3442 17.402 32.3047 17.0087C32.281 16.7702 32.6803 17.7419 33.5306 17.2583C33.7111 17.1558 34.6494 18.4829 34.6054 18.8061C34.5614 19.1292 33.9772 20.1221 31.0529 20.5533C28.1274 20.9845 28.8695 24.3497 31.8096 23.2421C34.7498 22.1345 34.0359 21.9763 35.0261 22.0342C36.0162 22.0921 38.5921 22.5947 40.1349 22.0921C41.6777 21.5885 41.7792 21.0135 42.5213 21.2865C43.2634 21.5595 47.8918 26.2474 48.7071 30.1597C49.5225 34.0709 50.2601 37.9609 51.1522 39.1332C51.7048 39.8597 51.9405 40.0558 50.48 39.6168C49.4097 39.2948 48.6203 38.8167 46.5238 38.3275C45.6091 38.1147 42.1863 37.6656 39.218 38.888C37.3211 39.6692 36.1764 35.0816 28 33.2608V57.4412C30.3131 56.0216 30.6379 55.1168 32.8021 54.5663C33.6355 54.3546 38.1437 57.1349 53.0609 55.5459C55.8408 55.2495 62.7277 54.4716 64.8479 51.8741C65.7919 50.7175 69.4763 50.3208 69.9567 48.5524C70.4383 46.7795 66.7696 41.2147 65.4163 39.2736Z" stroke="white" stroke-width="1.2" stroke-miterlimit="10" stroke-linecap="round" stroke-linejoin="round"/>
<path d="M57.0611 43.758C57.0611 43.758 53.6688 40.8452 51.2812 39.8245" stroke="white" stroke-width="1.2" stroke-miterlimit="10" stroke-linecap="round" stroke-linejoin="round"/>
<path d="M53.5043 48.2247C53.5043 49.6241 52.4763 51.0171 50.5364 52.0949C48.6168 53.1613 45.9242 53.8397 42.9174 53.8397C39.9105 53.8397 37.218 53.1613 35.2984 52.0949C33.3585 51.0171 32.3305 49.6241 32.3305 48.2247C32.3305 46.8254 33.3585 45.4323 35.2984 44.3546C37.218 43.2881 39.9105 42.6098 42.9174 42.6098C45.9242 42.6098 48.6168 43.2881 50.5364 44.3546C52.4763 45.4323 53.5043 46.8254 53.5043 48.2247Z" stroke="white" stroke-width="1.2"/>
<defs>
<linearGradient id="paint0_linear_549_1011" x1="50" y1="0.5" x2="50" y2="75.5" gradientUnits="userSpaceOnUse">
<stop stop-color="#9893EA"/>
<stop offset="1" stop-color="#4D4A8E"/>
</linearGradient>
</defs>
</svg>
