<svg width="100" height="76" viewBox="0 0 100 76" fill="none" xmlns="http://www.w3.org/2000/svg">
<rect y="0.5" width="100" height="75" rx="25.9615" fill="url(#paint0_linear_549_973)"/>
<path d="M65.9 56H33.1C30.8394 56 29 54.1606 29 51.9V26.0053C29 23.7447 30.8394 21.9053 33.1 21.9053H38.2789C38.6363 21.9053 38.9263 22.1953 38.9263 22.5526C38.9263 22.91 38.6363 23.2 38.2789 23.2H33.1C31.5541 23.2 30.2947 24.4585 30.2947 26.0053V51.9C30.2947 53.4468 31.5541 54.7053 33.1 54.7053H65.9C67.4476 54.7053 68.7053 53.4468 68.7053 51.9V26.0053C68.7053 24.4585 67.4476 23.2 65.9 23.2H60.7211C60.3637 23.2 60.0737 22.91 60.0737 22.5526C60.0737 22.1953 60.3637 21.9053 60.7211 21.9053H65.9C68.1606 21.9053 70 23.7447 70 26.0053V51.9C70 54.1606 68.1606 56 65.9 56Z" fill="white"/>
<path d="M57.2699 26.6526H41.7331C40.5143 26.6526 39.3594 25.4986 39.3594 24.2789V22.5526C39.3594 21.333 40.5143 20.1789 41.7331 20.1789H43.6752V17.3737C43.6752 16.154 44.8301 15 46.0488 15H52.9541C54.1746 15 55.3278 16.154 55.3278 17.3737V20.1789H57.2699C58.4904 20.1789 59.6436 21.333 59.6436 22.5526V24.2789C59.6436 25.4986 58.4904 26.6526 57.2699 26.6526ZM41.7331 21.4737C41.229 21.4737 40.6541 22.0485 40.6541 22.5526V24.2789C40.6541 24.783 41.229 25.3579 41.7331 25.3579H57.2699C57.774 25.3579 58.3489 24.783 58.3489 24.2789V22.5526C58.3489 22.0485 57.774 21.4737 57.2699 21.4737H54.6804C54.3231 21.4737 54.0331 21.1837 54.0331 20.8263V17.3737C54.0331 16.8696 53.4582 16.2947 52.9541 16.2947H46.0488C45.5448 16.2947 44.9699 16.8696 44.9699 17.3737V20.8263C44.9699 21.1837 44.6799 21.4737 44.3225 21.4737H41.7331Z" fill="white"/>
<path d="M50.3639 19.7479H48.6376C48.2803 19.7479 47.9902 19.4578 47.9902 19.1005C47.9902 18.7431 48.2803 18.4531 48.6376 18.4531H50.3639C50.7213 18.4531 51.0113 18.7431 51.0113 19.1005C51.0113 19.4578 50.7213 19.7479 50.3639 19.7479Z" fill="white"/>
<path d="M37.4144 34.4213C37.1701 34.4213 36.9457 34.2831 36.8361 34.063L35.1098 30.6104C34.9492 30.291 35.0796 29.9026 35.3998 29.7421C35.72 29.5815 36.1076 29.7119 36.2681 30.0321L37.4144 32.3264L38.5624 30.0321C38.7229 29.7119 39.1105 29.5815 39.4307 29.7421C39.751 29.9018 39.8804 30.291 39.7208 30.6104L37.9944 34.063C37.8848 34.2831 37.6604 34.4213 37.4144 34.4213ZM63.3091 33.5581H42.5933C42.236 33.5581 41.946 33.2681 41.946 32.9107C41.946 32.5534 42.236 32.2634 42.5933 32.2634H63.3091C63.6665 32.2634 63.9565 32.5534 63.9565 32.9107C63.9565 33.2681 63.6665 33.5581 63.3091 33.5581Z" fill="white"/>
<path d="M37.4144 42.1895C37.1701 42.1895 36.9457 42.0514 36.8361 41.8313L35.1098 38.3786C34.9492 38.0593 35.0796 37.6709 35.3998 37.5103C35.72 37.3498 36.1076 37.4792 36.2681 37.8003L37.4144 40.0946L38.5624 37.8003C38.7229 37.4792 39.1105 37.3498 39.4307 37.5103C39.751 37.67 39.8804 38.0593 39.7208 38.3786L37.9944 41.8313C37.8848 42.0514 37.6604 42.1895 37.4144 42.1895ZM63.3091 41.3263H42.5933C42.236 41.3263 41.946 41.0363 41.946 40.679C41.946 40.3216 42.236 40.0316 42.5933 40.0316H63.3091C63.6665 40.0316 63.9565 40.3216 63.9565 40.679C63.9565 41.0363 63.6665 41.3263 63.3091 41.3263Z" fill="white"/>
<path d="M37.4144 49.9571C37.1701 49.9571 36.9457 49.819 36.8361 49.5989L35.1098 46.1463C34.9492 45.8269 35.0796 45.4385 35.3998 45.278C35.72 45.1191 36.1076 45.2477 36.2681 45.568L37.4144 47.8622L38.5624 45.568C38.7229 45.2477 39.1105 45.1191 39.4307 45.278C39.751 45.4376 39.8804 45.8269 39.7208 46.1463L37.9944 49.5989C37.8848 49.819 37.6604 49.9571 37.4144 49.9571ZM63.3091 49.094H42.5933C42.236 49.094 41.946 48.8039 41.946 48.4466C41.946 48.0893 42.236 47.7992 42.5933 47.7992H63.3091C63.6665 47.7992 63.9565 48.0893 63.9565 48.4466C63.9565 48.8039 63.6665 49.094 63.3091 49.094Z" fill="white"/>
<defs>
<linearGradient id="paint0_linear_549_973" x1="50" y1="0.5" x2="50" y2="75.5" gradientUnits="userSpaceOnUse">
<stop stop-color="#9893EA"/>
<stop offset="1" stop-color="#4D4A8E"/>
</linearGradient>
</defs>
</svg>
