<svg width="100" height="76" viewBox="0 0 100 76" fill="none" xmlns="http://www.w3.org/2000/svg">
<rect y="0.856934" width="100" height="74.2857" rx="25.7143" fill="url(#paint0_linear_549_994)"/>
<path d="M49 54.9995H32.1579C30.4181 54.9995 29 53.5822 29 51.8416V18.1574C29 16.4168 30.4181 14.9995 32.1579 14.9995H49C50.7415 14.9995 52.1579 16.4168 52.1579 18.1574C52.1579 18.506 51.8749 18.789 51.5263 18.789C51.1777 18.789 50.8947 18.506 50.8947 18.1574C50.8947 17.1132 50.0442 16.2627 49 16.2627H32.1579C31.1137 16.2627 30.2632 17.1132 30.2632 18.1574V51.8416C30.2632 52.8858 31.1137 53.7364 32.1579 53.7364H49C50.0442 53.7364 50.8947 52.8858 50.8947 51.8416V40.8942C50.8947 40.5456 51.1777 40.2627 51.5263 40.2627C51.8749 40.2627 52.1579 40.5456 52.1579 40.8942V51.8416C52.1579 53.5822 50.7415 54.9995 49 54.9995Z" fill="white"/>
<path d="M42.2632 51.6311H38.8947C38.5461 51.6311 38.2632 51.3481 38.2632 50.9995C38.2632 50.6509 38.5461 50.3679 38.8947 50.3679H42.2632C42.6118 50.3679 42.8947 50.6509 42.8947 50.9995C42.8947 51.3481 42.6118 51.6311 42.2632 51.6311ZM51.5263 48.2627H29.6316C29.2829 48.2627 29 47.9797 29 47.6311C29 47.2825 29.2829 46.9995 29.6316 46.9995H51.5263C51.8749 46.9995 52.1579 47.2825 52.1579 47.6311C52.1579 47.9797 51.8749 48.2627 51.5263 48.2627Z" fill="white"/>
<path d="M43.1047 44.0522C43.0163 44.0522 42.9253 44.0337 42.8411 43.995C42.6171 43.8914 42.4722 43.6674 42.4722 43.4207V38.9996H41.4196C39.6798 38.9996 38.2617 37.5824 38.2617 35.8417V23.2101C38.2617 21.4695 39.6798 20.0522 41.4196 20.0522H61.6301C63.3716 20.0522 64.788 21.4695 64.788 23.2101V35.8417C64.788 37.5824 63.3716 38.9996 61.6301 38.9996H49.2318L43.5148 43.8998C43.3986 44.0009 43.2529 44.0522 43.1047 44.0522ZM41.4205 21.3154C40.3763 21.3154 39.5257 22.1659 39.5257 23.2101V35.8417C39.5257 36.8859 40.3763 37.7365 41.4205 37.7365H43.1047C43.4533 37.7365 43.7363 38.0194 43.7363 38.368V42.0472L48.5885 37.8889C48.7038 37.7912 48.8504 37.7365 48.9994 37.7365H61.631C62.6752 37.7365 63.5257 36.8859 63.5257 35.8417V23.2101C63.5257 22.1659 62.6752 21.3154 61.631 21.3154H41.4205Z" fill="white"/>
<path d="M51.5258 35.6067C51.429 35.6067 51.333 35.5848 51.2429 35.5402C48.7065 34.2712 44.8513 30.912 45.3018 27.3002C45.4812 25.8796 46.6509 24.1971 48.2315 23.9554C49.3465 23.787 50.7006 24.1448 51.5258 25.1739C52.3528 24.1448 53.7086 23.787 54.8202 23.9554C56.4025 24.1971 57.5738 25.8796 57.7507 27.2994C58.2029 30.9128 54.346 34.2712 51.8079 35.5402C51.7195 35.584 51.6227 35.6067 51.5258 35.6067ZM48.7839 25.1764C48.6618 25.1764 48.5406 25.1857 48.4218 25.2034C47.4972 25.3448 46.6753 26.5095 46.5549 27.4568C46.2223 30.1229 49.2294 33.008 51.525 34.2619C53.8222 33.008 56.8311 30.1229 56.4968 27.456C56.378 26.5103 55.5544 25.3448 54.6281 25.2034C54.5111 25.1857 54.3898 25.1764 54.266 25.1764C53.4635 25.1764 52.4235 25.5832 52.138 26.7318C52.0673 27.0131 51.8138 27.2101 51.525 27.2101C51.2353 27.2101 50.9818 27.0131 50.9128 26.7318C50.6265 25.5832 49.5865 25.1764 48.7839 25.1764Z" fill="white"/>
<defs>
<linearGradient id="paint0_linear_549_994" x1="50" y1="0.856934" x2="50" y2="75.1426" gradientUnits="userSpaceOnUse">
<stop stop-color="#9893EA"/>
<stop offset="1" stop-color="#4D4A8E"/>
</linearGradient>
</defs>
</svg>
