<svg width="52" height="52" viewBox="0 0 52 52" fill="none" xmlns="http://www.w3.org/2000/svg">
<g clip-path="url(#clip0_35_406)">
<path fill-rule="evenodd" clip-rule="evenodd" d="M26 0.815674C39.8996 0.815674 51.1843 12.1004 51.1843 26C51.1843 39.8996 39.8996 51.1843 26 51.1843C12.1004 51.1843 0.815674 39.8996 0.815674 26C0.815674 12.1004 12.1004 0.815674 26 0.815674ZM5.07733 14.7444C3.3755 17.8987 2.36619 21.4808 2.25363 25.2863H9.95595C10.0613 22.8814 10.6966 20.6132 11.7478 18.5956L5.07733 14.7444ZM13.5102 5.79187C10.3799 7.73198 7.73279 10.3789 5.79258 13.5091L12.4631 17.3603C13.721 15.3946 15.3952 13.7204 17.3611 12.4626L13.5102 5.79187ZM25.2863 2.25363C21.4812 2.36619 17.8996 3.3752 14.7456 5.07672L18.5964 11.7474C20.6138 10.6965 22.8817 10.0613 25.2863 9.95595V2.25363ZM37.256 5.07763C34.1016 3.3756 30.5194 2.36619 26.7137 2.25363V9.95595C29.1187 10.0613 31.387 10.6967 33.4047 11.748L37.256 5.07763ZM46.2071 13.5086C44.2673 10.3792 41.6208 7.73279 38.4914 5.79289L34.64 12.4633C36.6053 13.7211 38.2792 15.3949 39.5369 17.3602L46.2071 13.5086ZM49.7463 25.2863C49.6338 21.4806 48.6244 17.8984 46.9224 14.7439L40.2522 18.5956C41.3034 20.6132 41.9387 22.8814 42.044 25.2863H49.7463ZM25.9036 49.7566C25.9358 49.7567 25.9679 49.7568 26 49.7568C38.873 49.7568 49.3684 39.4959 49.7463 26.7137H29.3347C29.0062 28.2534 27.6371 29.4097 26 29.4097C24.3629 29.4097 22.9938 28.2534 22.6653 26.7137H2.25363C2.40116 31.7009 4.08882 36.3043 6.85695 40.0643V30.6859C6.85695 30.2811 7.01774 29.8928 7.30395 29.6066C7.59025 29.3203 7.97852 29.1595 8.3833 29.1595H10.7366C11.1413 29.1595 11.5296 29.3203 11.8158 29.6066C12.1021 29.8928 12.2629 30.2811 12.2629 30.6859V45.3797C12.7226 45.7063 13.1942 46.0168 13.6773 46.3107V34.5834C13.6773 34.1786 13.8381 33.7903 14.1243 33.5041C14.4106 33.2178 14.7989 33.057 15.2037 33.057H17.5569C17.9617 33.057 18.35 33.2178 18.6362 33.5041C18.9225 33.7903 19.0833 34.1786 19.0833 34.5834V48.7326C19.5488 48.8742 20.0205 49.0019 20.4977 49.1153V38.4808C20.4977 38.076 20.6585 37.6877 20.9447 37.4015C21.231 37.1152 21.6191 36.9544 22.024 36.9544H24.3773C24.7821 36.9544 25.1703 37.1152 25.4565 37.4015C25.7428 37.6877 25.9036 38.076 25.9036 38.4808V49.7566ZM21.9251 49.408C22.7613 49.5528 23.6125 49.6539 24.4762 49.7086V38.4808C24.4762 38.4546 24.4658 38.4294 24.4472 38.4109C24.4287 38.3923 24.4035 38.3819 24.3773 38.3819H22.024C21.9977 38.3819 21.9726 38.3923 21.9541 38.4109C21.9355 38.4294 21.9251 38.4546 21.9251 38.4808V49.408ZM15.1048 47.1131C15.9282 47.5393 16.7798 47.9187 17.6558 48.2478V34.5834C17.6558 34.5571 17.6454 34.532 17.6269 34.5134C17.6083 34.4949 17.5831 34.4845 17.5569 34.4845H15.2037C15.1775 34.4845 15.1523 34.4949 15.1337 34.5134C15.1152 34.532 15.1048 34.5571 15.1048 34.5834V47.1131ZM8.2844 41.8221C9.07246 42.7037 9.92536 43.5263 10.8355 44.2823V30.6859C10.8355 30.6597 10.8251 30.6345 10.8065 30.616C10.7879 30.5974 10.7628 30.587 10.7366 30.587H8.3833C8.3571 30.587 8.33192 30.5974 8.31336 30.616C8.2948 30.6345 8.2844 30.6597 8.2844 30.6859V41.8221ZM11.3849 25.2863H22.6653C22.9938 23.7466 24.3629 22.5903 26 22.5903C26.2993 22.5903 26.5898 22.6291 26.8666 22.7017L29.9146 16.6676C30.0922 16.316 30.5218 16.1747 30.8735 16.3524C31.2251 16.53 31.3664 16.9596 31.1888 17.3112L28.1401 23.3464C28.7374 23.8287 29.1687 24.5086 29.3347 25.2863H40.615C40.2424 17.5414 33.8365 11.3678 26 11.3678C18.1635 11.3678 11.7576 17.5414 11.3849 25.2863ZM45.2896 33.5364C44.8565 35.1999 43.6409 37.9182 40.2533 40.907C34.7675 45.7468 30.6128 45.9514 30.6128 45.9514C30.2195 45.9745 29.8815 45.674 29.8583 45.2809C29.8351 44.8876 30.1356 44.5495 30.5288 44.5264C30.5288 44.5264 34.2902 44.2643 39.3088 39.8366C42.8185 36.7401 43.7575 34.0138 44.0078 32.7171L41.966 33.7901C41.6173 33.9733 41.1855 33.839 41.0022 33.4903C40.819 33.1416 40.9534 32.7097 41.302 32.5265L44.6425 30.7709C44.9914 30.5875 45.423 30.7218 45.6063 31.0707L47.3619 34.4111C47.5452 34.7598 47.4108 35.1917 47.0621 35.375C46.7134 35.5583 46.2816 35.4239 46.0984 35.0752L45.2896 33.5364ZM26 24.0178C24.9059 24.0178 24.0178 24.9059 24.0178 26C24.0178 27.094 24.9059 27.9822 26 27.9822C27.094 27.9822 27.9822 27.094 27.9822 26C27.9822 24.9059 27.094 24.0178 26 24.0178Z" fill="#F9F9F9"/>
</g>
<defs>
<clipPath id="clip0_35_406">
<rect width="52" height="52" fill="white"/>
</clipPath>
</defs>
</svg>
