<svg width="52" height="52" viewBox="0 0 52 52" fill="none" xmlns="http://www.w3.org/2000/svg">
<g clip-path="url(#clip0_35_399)">
<path d="M32.8311 5.12893C32.6083 4.459 32.0459 3.96847 31.3638 3.8506L28.8565 3.4164L27.6796 1.05213C27.3546 0.403867 26.7115 0 26 0C25.2885 0 24.6454 0.403867 24.3204 1.053L23.1435 3.41727L20.6371 3.85147C19.9541 3.96933 19.3908 4.459 19.1689 5.1298C18.9393 5.81793 19.1039 6.56847 19.5971 7.09107L21.3997 8.99947L21.0167 11.6567C20.9109 12.3864 21.2143 13.1014 21.8071 13.5217C22.1277 13.7497 22.503 13.8649 22.8791 13.8649C23.1712 13.8649 23.465 13.7956 23.7345 13.6543L25.9991 12.4748L28.2637 13.6543C28.8825 13.9785 29.6218 13.9256 30.1921 13.5217C30.7857 13.1014 31.0882 12.3855 30.9825 11.6567L30.5994 8.99947L32.4021 7.09107C32.8952 6.56847 33.0599 5.81793 32.8302 5.1298L32.8311 5.12893ZM31.1437 5.90027L29.0533 8.11373C28.8713 8.30613 28.7872 8.57047 28.8253 8.8322L29.2691 11.9037C29.2864 12.0267 29.2197 12.0874 29.1911 12.1082C29.1304 12.1489 29.0888 12.129 29.0654 12.1177L26.4004 10.7285C26.1499 10.5985 25.8501 10.5985 25.5996 10.7285L22.9346 12.1177C22.9112 12.1299 22.8687 12.1489 22.8089 12.1082C22.7803 12.0874 22.7145 12.0259 22.7309 11.9037L23.1747 8.8322C23.2128 8.57047 23.1287 8.30613 22.9467 8.11373L20.8563 5.90027C20.7775 5.8162 20.8 5.71567 20.813 5.67667C20.8355 5.6082 20.8754 5.5692 20.9326 5.5588L23.8723 5.0492C24.1436 5.00153 24.3767 4.8282 24.5007 4.5812L25.8735 1.8252C25.8847 1.80267 25.9194 1.73333 26 1.73333C26.0806 1.73333 26.1161 1.8018 26.1265 1.82433L27.4993 4.5812C27.6233 4.8282 27.8555 5.00153 28.1277 5.0492L31.0683 5.5588C31.1237 5.5692 31.1636 5.6082 31.187 5.67667C31.2009 5.71567 31.2225 5.8162 31.1437 5.90027Z" fill="#F9F9F9"/>
<path d="M17.2311 12.0623C17.0083 11.3924 16.4458 10.9018 15.7638 10.784L13.2565 10.3498L12.0796 7.98548C11.7563 7.33722 11.1133 6.93335 10.4009 6.93335C9.68845 6.93335 9.04625 7.33722 8.72125 7.98635L7.54432 10.3506L5.03792 10.7848C4.35498 10.9027 3.79165 11.3924 3.56978 12.0631C3.34012 12.7513 3.50478 13.5018 3.99792 14.0244L5.80058 15.9328L5.41752 18.59C5.31178 19.3198 5.61512 20.0348 6.20792 20.4551C6.52858 20.683 6.90385 20.7983 7.27998 20.7983C7.57205 20.7983 7.86585 20.729 8.13538 20.5877L10.4 19.4082L12.6646 20.5877C13.2843 20.9118 14.0235 20.859 14.5929 20.4551C15.1866 20.0348 15.489 19.3189 15.3833 18.59L15.0003 15.9328L16.8029 14.0244C17.2961 13.5018 17.4607 12.7504 17.2311 12.0623ZM15.5436 12.8336L13.4532 15.0471C13.2712 15.2395 13.1872 15.5038 13.2253 15.7656L13.6691 18.837C13.6864 18.9601 13.6197 19.0208 13.5911 19.0416C13.5304 19.0823 13.4888 19.0632 13.4654 19.0511L10.8004 17.6618C10.5499 17.5318 10.2501 17.5318 9.99958 17.6618L7.33458 19.0511C7.31118 19.0641 7.26958 19.0823 7.20892 19.0416C7.18032 19.0208 7.11445 18.9592 7.13092 18.837L7.57465 15.7656C7.61278 15.5038 7.52872 15.2395 7.34672 15.0471L5.25632 12.8336C5.17745 12.7496 5.19998 12.649 5.21298 12.61C5.23552 12.5416 5.27538 12.5026 5.33258 12.4921L8.27232 11.9826C8.54358 11.9349 8.77672 11.7616 8.90065 11.5146L10.2735 8.75855C10.2847 8.73602 10.3194 8.66668 10.4 8.66668C10.4806 8.66668 10.5161 8.73515 10.5265 8.75768L11.8993 11.5146C12.0232 11.7616 12.2555 11.9349 12.5276 11.9826L15.4683 12.4921C15.5237 12.5026 15.5636 12.5416 15.587 12.61C15.6009 12.649 15.6225 12.7496 15.5436 12.8336Z" fill="#F9F9F9"/>
<path d="M48.4311 12.0623C48.2083 11.3924 47.6459 10.9018 46.9638 10.784L44.4565 10.3498L43.2796 7.98548C42.9563 7.33722 42.3133 6.93335 41.6009 6.93335C40.8885 6.93335 40.2463 7.33722 39.9213 7.98635L38.7443 10.3506L36.2379 10.7848C35.555 10.9027 34.9917 11.3924 34.7698 12.0631C34.5401 12.7513 34.7048 13.5018 35.1979 14.0244L37.0006 15.9328L36.6175 18.59C36.5118 19.3198 36.8151 20.0348 37.4079 20.4551C37.7286 20.683 38.1039 20.7983 38.48 20.7983C38.7721 20.7983 39.0659 20.729 39.3354 20.5877L41.6 19.4082L43.8646 20.5877C44.4834 20.9118 45.2235 20.859 45.7929 20.4551C46.3866 20.0348 46.6891 19.3189 46.5833 18.59L46.2003 15.9328L48.0029 14.0244C48.4961 13.5018 48.6607 12.7504 48.4311 12.0623ZM46.7437 12.8336L44.6533 15.0471C44.4713 15.2395 44.3872 15.5038 44.4253 15.7656L44.8691 18.837C44.8864 18.9601 44.8197 19.0208 44.7911 19.0416C44.7304 19.0823 44.6888 19.0632 44.6654 19.0511L42.0004 17.6618C41.7499 17.5318 41.4501 17.5318 41.1996 17.6618L38.5346 19.0511C38.5121 19.0641 38.4687 19.0823 38.4089 19.0416C38.3803 19.0208 38.3145 18.9592 38.3309 18.837L38.7747 15.7656C38.8128 15.5038 38.7287 15.2395 38.5467 15.0471L36.4563 12.8336C36.3775 12.7496 36.4 12.649 36.413 12.61C36.4355 12.5416 36.4754 12.5026 36.5326 12.4921L39.4723 11.9826C39.7436 11.9349 39.9767 11.7616 40.1007 11.5146L41.4735 8.75855C41.4847 8.73602 41.5194 8.66668 41.6 8.66668C41.6806 8.66668 41.7161 8.73515 41.7265 8.75768L43.0993 11.5146C43.2233 11.7616 43.4555 11.9349 43.7277 11.9826L46.6683 12.4921C46.7237 12.5026 46.7636 12.5416 46.787 12.61C46.8009 12.649 46.8225 12.7496 46.7437 12.8336Z" fill="#F9F9F9"/>
<path d="M26 20.8C11.6636 20.8 0 32.4636 0 46.8C0 47.756 0.7774 48.5334 1.73333 48.5334H12.1333C13.0893 48.5334 13.8667 47.756 13.8667 46.8C13.8667 40.1094 19.3093 34.6667 26 34.6667C30.1037 34.6667 33.8971 36.7432 36.1322 40.144C32.2669 41.5108 29.2699 42.614 27.0634 43.4807C26.7211 43.3932 26.3692 43.3334 26 43.3334C23.6106 43.3334 21.6667 45.2773 21.6667 47.6667C21.6667 50.0561 23.6106 52 26 52C27.7065 52 29.172 50.9999 29.8783 49.5621C32.1429 48.3288 35.0497 46.6544 37.9739 44.9384C38.0692 45.552 38.1333 46.1726 38.1333 46.8C38.1333 47.756 38.9107 48.5334 39.8667 48.5334H50.2667C51.2226 48.5334 52 47.756 52 46.8C52 32.4636 40.3364 20.8 26 20.8ZM35.1667 36.4078C32.8839 34.392 29.9754 33.157 26.8667 32.9628V22.555C32.9039 22.7682 38.3855 25.1949 42.5239 29.0507L35.1667 36.4078ZM12.1333 46.8H1.73333C1.73333 40.4205 4.21113 34.6121 8.25067 30.2762L15.6156 37.6411C13.4559 40.0868 12.1333 43.2883 12.1333 46.8ZM16.8411 36.4157L9.47613 29.0507C13.6145 25.1958 19.0953 22.7691 25.1333 22.555V32.9767C21.9631 33.1743 19.0831 34.4353 16.8411 36.4157ZM44.421 39.0962C40.2619 41.5853 34.5003 45.0104 30.3004 47.3495C30.2207 46.2688 29.7605 45.2938 29.0307 44.5779C32.5191 43.2476 37.5804 41.444 44.421 39.0962ZM25.9991 50.2667C24.5657 50.2667 23.3991 49.1002 23.3991 47.6667C23.3991 46.2332 24.5657 45.0667 25.9991 45.0667C27.4326 45.0667 28.5991 46.2332 28.5991 47.6667C28.5991 49.1002 27.4326 50.2667 25.9991 50.2667ZM39.8658 46.8C39.8658 45.8519 39.7653 44.9124 39.5755 43.9955C41.613 42.7926 43.5994 41.6078 45.3145 40.5826C46.0937 40.1102 46.3805 39.1734 45.9983 38.3544C45.6179 37.5406 44.7252 37.1575 43.8655 37.4539C41.6633 38.2096 39.6509 38.9082 37.8083 39.5547C37.3871 38.8692 36.9113 38.2296 36.3887 37.6368L43.7476 30.2779C47.7871 34.6138 50.2649 40.4222 50.2649 46.8018H39.8649L39.8658 46.8Z" fill="#F9F9F9"/>
</g>
<defs>
<clipPath id="clip0_35_399">
<rect width="52" height="52" fill="white"/>
</clipPath>
</defs>
</svg>
