<svg width="52" height="52" viewBox="0 0 52 52" fill="none" xmlns="http://www.w3.org/2000/svg">
<path d="M48.2114 35.9542C48.1371 35.5085 47.9886 35.0628 47.84 34.6913C47.6914 34.3199 47.32 34.0971 46.8743 34.2456C46.5771 34.3199 46.3543 34.6171 46.3543 34.9885C43.5314 33.7999 40.8571 33.6513 38.2571 34.6913C36.4743 35.4342 35.5829 35.5828 33.4286 35.9542C32.6857 36.1028 31.4971 35.7313 30.5314 35.5085C27.4857 34.9142 25.2571 34.7656 22.88 34.9142C19.9086 35.1371 18.4971 36.3256 16.7143 34.7656C16.8629 34.5428 16.9371 34.1713 16.7886 33.9485C16.64 33.6513 16.3429 33.5771 16.0457 33.5771C13.7429 23.1028 15.0057 17.0856 15.3771 15.6742L20.5029 13.8171C20.8 13.7428 21.0229 13.4456 21.0229 13.1485V8.17134C21.0229 8.02277 20.9486 7.79991 20.8743 7.72562L16.9371 2.74848C16.7143 2.52562 16.4171 2.37705 16.12 2.52562L10.4 4.53134C8.54285 5.19991 6.98285 6.68562 6.24 8.54277V8.61705C2.52571 21.9885 0.742853 32.9828 3.71428 43.6056C3.71428 43.6799 3.78857 43.7542 3.86285 43.8285C6.09142 46.7256 21.0229 52.3713 31.4229 47.2456C32.0171 46.9485 32.6857 47.0228 33.28 47.4685C35.1371 48.7313 36.7714 49.4742 39.3714 49.4742C45.3143 49.4742 49.7714 45.3142 49.7714 39.8171C49.7714 38.1085 49.2514 36.8456 48.2114 35.9542ZM39.3714 47.9885C37.1429 47.9885 35.8057 47.3942 34.0971 46.2799C33.0571 45.6113 31.8686 45.4628 30.7543 45.9828C20.7257 50.8856 6.98285 45.0913 5.12571 43.0856C2.30285 32.8342 4.08571 22.0628 7.65142 9.06277C8.24571 7.57705 9.43428 6.46277 10.92 5.94277L16.12 4.08562L19.1657 7.8742L16.0457 9.4342C15.6743 9.58277 15.5257 10.0285 15.7486 10.3999C15.8971 10.7713 16.4171 10.9199 16.7143 10.6971L19.6114 9.28562V12.6285L14.6343 14.4113C14.4114 14.4856 14.2629 14.6342 14.1886 14.8571C14.1143 15.1542 11.96 21.6171 14.9314 34.6913C14.9314 34.8399 15.0057 34.9142 15.08 34.9885C17.8286 38.2571 20.0571 36.5485 23.1029 36.3256C25.7771 36.1771 28.5257 36.4742 31.0514 37.0685C31.9429 37.2913 32.9086 37.4399 33.7257 37.3656C36.0286 36.9942 36.9943 36.7713 38.9257 36.0285C41.3771 35.0628 43.9029 35.2856 46.6514 36.6971C47.7657 37.2913 48.2857 38.2571 48.2857 39.8913C48.2857 44.5713 44.5714 47.9885 39.3714 47.9885Z" fill="#F9F9F9"/>
<path d="M26.8914 32.0171C26.8171 32.3886 27.1143 32.8343 27.4857 32.9086C27.9314 32.9828 28.3771 33.1314 28.8228 33.28H29.0457C29.3428 33.28 29.64 33.0571 29.7886 32.76C29.9371 32.3886 29.7143 31.9428 29.3428 31.7943C28.8228 31.6457 28.3771 31.4971 27.7828 31.4228C27.3371 31.3486 26.9657 31.6457 26.8914 32.0171Z" fill="#F9F9F9"/>
<path d="M20.0571 31.7198C19.5371 31.8684 19.0914 32.0169 18.5714 32.2398C18.2 32.3884 18.0514 32.8341 18.2 33.2055C18.3486 33.5027 18.5714 33.6512 18.8686 33.6512C18.9429 33.6512 19.0914 33.6512 19.1657 33.5769C19.6114 33.3541 20.0571 33.2055 20.5029 33.1312C20.8743 32.9827 21.0971 32.6112 21.0229 32.2398C20.8743 31.8684 20.4286 31.6455 20.0571 31.7198Z" fill="#F9F9F9"/>
<path d="M23.1771 32.6857C23.6971 32.6857 24.1429 32.6114 24.5886 32.6114H24.6629C25.1086 32.6114 25.4057 32.3143 25.4057 31.8686C25.4057 31.4229 25.1086 31.1257 24.6629 31.1257H24.5886C24.0686 31.1257 23.6229 31.1257 23.1029 31.2C22.6571 31.2 22.36 31.5714 22.4343 32.0172C22.5086 32.3886 22.8057 32.6857 23.1771 32.6857Z" fill="#F9F9F9"/>
<path d="M31.9428 34.2457C32.5371 34.2457 33.1314 34.0971 33.6514 33.8C34.0228 33.5771 34.1714 33.1314 33.9486 32.76C33.7257 32.3886 33.28 32.24 32.9086 32.4629C32.6114 32.6114 32.24 32.76 31.8686 32.76V33.5029L31.9428 34.2457Z" fill="#F9F9F9"/>
<path d="M44.2 32.0913C44.5714 32.3141 44.8686 32.537 45.1657 32.8341C45.3143 32.9827 45.5371 33.057 45.6857 33.057C45.8343 33.057 46.0571 32.9827 46.2057 32.8341C46.5029 32.537 46.5029 32.0913 46.28 31.7941C45.9086 31.3484 45.4629 30.977 44.9429 30.7541C44.5714 30.5313 44.1257 30.6798 43.9028 31.0513C43.68 31.4227 43.8286 31.8684 44.2 32.0913Z" fill="#F9F9F9"/>
<path d="M41.7486 30.0112H41.4514C41.08 30.0112 40.6343 30.0112 40.1886 30.0855C39.7429 30.0855 39.4457 30.4569 39.52 30.9027C39.52 31.2741 39.8914 31.5712 40.2629 31.5712H40.3371C40.7829 31.5712 41.1543 31.4969 41.5257 31.4969H41.7486C42.1943 31.4969 42.4914 31.1998 42.4914 30.7541C42.4914 30.3084 42.12 30.0112 41.7486 30.0112Z" fill="#F9F9F9"/>
<path d="M35.88 32.3884C35.9543 32.3884 36.1029 32.3884 36.1771 32.3141C36.5486 32.1655 36.9943 32.0169 37.44 31.9427C37.8114 31.8684 38.1086 31.4227 38.0343 31.0512C37.8857 30.6055 37.5143 30.3827 37.1429 30.4569C36.5486 30.6055 36.1029 30.7541 35.5829 30.9027C35.2114 31.0512 34.9886 31.4969 35.2114 31.8684C35.2857 32.1655 35.5829 32.3884 35.88 32.3884Z" fill="#F9F9F9"/>
<path d="M25.48 29.0456C25.7771 29.3427 26.2229 29.3427 26.52 29.0456L28.8971 26.6684C29.1943 26.3713 29.1943 25.9256 28.8971 25.6284C28.6 25.3313 28.1543 25.3313 27.8571 25.6284L26.7429 26.6684V17.1598C26.7429 16.7141 26.4457 16.417 26 16.417C25.5543 16.417 25.2571 16.7141 25.2571 17.1598V26.6684L24.1429 25.5541C23.8457 25.257 23.4 25.257 23.1029 25.5541C22.8057 25.8513 22.8057 26.297 23.1029 26.5941L25.48 29.0456Z" fill="#F9F9F9"/>
<path d="M38.8514 26.0743C39.1486 26.3715 39.5943 26.3715 39.8914 26.0743L42.2686 23.6972C42.5657 23.4 42.5657 22.9543 42.2686 22.6572C41.9714 22.36 41.5257 22.36 41.2286 22.6572L40.1143 23.6972V16.4172C40.1143 15.9715 39.8171 15.6743 39.3714 15.6743C38.9257 15.6743 38.6286 15.9715 38.6286 16.4172V23.6972L37.5143 22.5829C37.2171 22.2857 36.7714 22.2857 36.4743 22.5829C36.1771 22.88 36.1771 23.3257 36.4743 23.6229L38.8514 26.0743Z" fill="#F9F9F9"/>
</svg>
