<svg width="52" height="52" viewBox="0 0 52 52" fill="none" xmlns="http://www.w3.org/2000/svg">
<g clip-path="url(#clip0_35_410)">
<path d="M11.0933 30.3332H9.37387C9.00791 29.2981 8.03121 28.6044 6.93333 28.5999H2.6C1.16406 28.5999 0 29.7639 0 31.1999V49.3999C0 50.8358 1.16406 51.9999 2.6 51.9999H6.93333C7.6687 51.9975 8.36833 51.6824 8.85733 51.1332H30.5933C31.8649 51.1336 33.1121 50.7837 34.1978 50.1218L50.44 40.234C51.8506 39.3758 52.3916 37.595 51.6966 36.0973C51.0017 34.5995 49.2926 33.8627 47.7265 34.3857C29.6582 40.4099 31.6819 39.8665 30.3671 39.8665C31.4175 36.9528 28.7907 33.7999 25.5077 33.7999H20.9733C19.3745 33.7979 17.8236 33.2538 16.5741 32.2563C15.0171 31.0141 13.0851 30.3362 11.0933 30.3332ZM6.93333 50.2665H2.6C2.12135 50.2665 1.73333 49.8785 1.73333 49.3999V31.1999C1.73333 30.7212 2.12135 30.3332 2.6 30.3332H6.93333C7.41198 30.3332 7.8 30.7212 7.8 31.1999V49.3999C7.8 49.8785 7.41198 50.2665 6.93333 50.2665ZM25.5077 35.5332C27.807 35.5332 29.8029 38.0231 28.4284 39.8665H23.1617C21.4503 39.8649 19.7771 40.3717 18.3543 41.3225L17.719 41.7455C17.3208 42.0111 17.2133 42.5493 17.4789 42.9475C17.7446 43.3458 18.2828 43.4532 18.681 43.1876C19.9567 42.1753 21.5332 41.6166 23.1617 41.5999C31.4019 41.5999 31.3317 41.6779 32.2357 41.378L48.2785 36.0298C49.0067 35.7902 49.799 36.1336 50.1219 36.8289C50.4447 37.5242 50.1959 38.3511 49.543 38.7529L33.2973 48.6415C32.4826 49.1375 31.5472 49.3999 30.5933 49.3999H9.53333V32.0665C11.5024 32.0665 13.3727 31.9149 15.4917 33.6101C17.0489 34.8524 18.9812 35.5304 20.9733 35.5332H25.5077Z" fill="#F9F9F9"/>
<path d="M32.9333 32.9333C40.5791 32.9333 46.8 27.137 46.8 20.0122C46.8 13.065 34.0747 0.761755 33.5331 0.241755C33.1978 -0.0796083 32.6688 -0.0796083 32.3336 0.241755C31.7919 0.761755 19.0667 13.065 19.0667 20.0122C19.0667 27.137 25.2876 32.9333 32.9333 32.9333ZM32.9333 2.07995C36.8125 5.92622 45.0667 15.1285 45.0667 20.0139C45.0667 26.1811 39.624 31.2 32.9333 31.2C26.2427 31.2 20.8 26.1811 20.8 20.0122C20.8 15.1268 29.0541 5.92449 32.9333 2.07995Z" fill="#F9F9F9"/>
<path d="M26.8666 22.5333H30.3333V26C30.3333 26.9573 31.1093 27.7333 32.0666 27.7333H33.8C34.7573 27.7333 35.5333 26.9573 35.5333 26V22.5333H39C39.9573 22.5333 40.7333 21.7573 40.7333 20.8V19.0666C40.7333 18.1093 39.9573 17.3333 39 17.3333H35.5333V13.8666C35.5333 12.9093 34.7573 12.1333 33.8 12.1333H32.0666C31.1093 12.1333 30.3333 12.9093 30.3333 13.8666V17.3333H26.8666C25.9093 17.3333 25.1333 18.1093 25.1333 19.0666V20.8C25.1333 21.7573 25.9093 22.5333 26.8666 22.5333ZM26.8666 19.0666H30.3333C31.2906 19.0666 32.0666 18.2906 32.0666 17.3333V13.8666H33.8V17.3333C33.8 18.2906 34.576 19.0666 35.5333 19.0666H39V20.8H35.5333C34.576 20.8 33.8 21.576 33.8 22.5333V26H32.0666V22.5333C32.0666 21.576 31.2906 20.8 30.3333 20.8H26.8666V19.0666Z" fill="#F9F9F9"/>
</g>
<defs>
<clipPath id="clip0_35_410">
<rect width="52" height="52" fill="white"/>
</clipPath>
</defs>
</svg>
