<svg width="86" height="57" viewBox="0 0 86 57" fill="none" xmlns="http://www.w3.org/2000/svg">
<path d="M51.2817 46.127C51.2817 46.127 48.2259 54.6353 43.6585 55.0645C38.6713 55.5332 34.4581 46.127 34.4581 46.127" stroke="#2D2D2D" stroke-width="1.68078" stroke-linecap="round"/>
<path fill-rule="evenodd" clip-rule="evenodd" d="M63.7689 45.8649C64.0587 45.5025 64.5875 45.4437 64.9499 45.7335C65.3124 46.0233 65.3714 46.5521 65.0815 46.9146L64.4737 46.4287C65.0815 46.9147 65.0814 46.9148 65.0813 46.9149L65.08 46.9166L65.0768 46.9205L65.0655 46.9345C65.0558 46.9465 65.0418 46.9638 65.0237 46.9859C64.9874 47.0302 64.9346 47.0943 64.8663 47.1757C64.7297 47.3383 64.5314 47.5703 64.2808 47.8516C63.7802 48.4135 63.0681 49.1757 62.2216 49.9769C60.5593 51.5505 58.2644 53.3861 55.9794 54.0331C54.351 54.4941 52.2574 54.4835 50.6413 54.3777C49.8191 54.3238 49.0931 54.2431 48.5723 54.1759C48.3116 54.1423 48.1015 54.1119 47.9556 54.0897C47.8827 54.0787 47.8257 54.0697 47.7864 54.0633C47.7668 54.0601 47.7515 54.0576 47.7409 54.0559L47.7285 54.0538L47.7235 54.0529C47.7233 54.0529 47.7232 54.0529 47.8598 53.2513L47.7235 54.0529C47.2659 53.975 46.958 53.5408 47.0359 53.0833C47.1139 52.6258 47.5479 52.3181 48.0054 52.396C48.0054 52.396 48.0055 52.396 48.0054 52.396L48.0074 52.3963L48.0163 52.3978C48.0245 52.3992 48.0372 52.4013 48.0544 52.404C48.0886 52.4096 48.1403 52.4178 48.2078 52.428C48.3427 52.4485 48.5403 52.4771 48.7875 52.509C49.2823 52.5728 49.9722 52.6494 50.7511 52.7005C52.3373 52.8044 54.1867 52.7938 55.5215 52.4158C57.3862 51.8879 59.4287 50.3063 61.0662 48.7563C61.8697 47.9957 62.5482 47.2695 63.0258 46.7335C63.2642 46.4659 63.4518 46.2465 63.5789 46.095C63.6425 46.0193 63.6909 45.9607 63.7229 45.9215C63.7389 45.9019 63.7509 45.8872 63.7585 45.8777L63.7669 45.8674L63.7686 45.8652L63.7689 45.8649C63.7689 45.8649 63.7688 45.865 63.7689 45.8649Z" fill="#2D2D2D"/>
<path fill-rule="evenodd" clip-rule="evenodd" d="M22.2337 45.8649C21.9438 45.5025 21.4151 45.4437 21.0526 45.7335C20.6901 46.0233 20.6312 46.5521 20.921 46.9146L21.5288 46.4287C20.921 46.9147 20.9212 46.9148 20.9213 46.9149L20.9226 46.9166L20.9258 46.9205L20.9371 46.9345C20.9468 46.9465 20.9607 46.9638 20.9789 46.9859C21.0151 47.0302 21.068 47.0943 21.1363 47.1757C21.2728 47.3383 21.4712 47.5703 21.7218 47.8516C22.2224 48.4135 22.9345 49.1757 23.7809 49.9769C25.4433 51.5505 27.7381 53.3861 30.0232 54.0331C31.6515 54.4941 33.7452 54.4835 35.3613 54.3777C36.1835 54.3238 36.9095 54.2431 37.4303 54.1759C37.691 54.1423 37.901 54.1119 38.0469 54.0897C38.1199 54.0787 38.1769 54.0697 38.2162 54.0633C38.2358 54.0601 38.251 54.0576 38.2616 54.0559L38.2741 54.0538L38.2791 54.0529C38.2792 54.0529 38.2794 54.0529 38.1428 53.2513L38.2791 54.0529C38.7366 53.975 39.0446 53.5408 38.9666 53.0833C38.8887 52.6258 38.4546 52.3181 37.9972 52.396C37.9972 52.396 37.9971 52.396 37.9972 52.396L37.9952 52.3963L37.9863 52.3978C37.9781 52.3992 37.9653 52.4013 37.9482 52.404C37.9139 52.4096 37.8622 52.4178 37.7948 52.428C37.6599 52.4485 37.4622 52.4771 37.2151 52.509C36.7203 52.5728 36.0304 52.6494 35.2514 52.7005C33.6653 52.8044 31.8159 52.7938 30.481 52.4158C28.6164 51.8879 26.5739 50.3063 24.9364 48.7563C24.1328 47.9957 23.4543 47.2695 22.9768 46.7335C22.7383 46.4659 22.5508 46.2465 22.4236 46.095C22.3601 46.0193 22.3117 45.9607 22.2797 45.9215C22.2636 45.9019 22.2517 45.8872 22.244 45.8777L22.2357 45.8674L22.2339 45.8652L22.2337 45.8649C22.2337 45.8649 22.2337 45.865 22.2337 45.8649Z" fill="#2D2D2D"/>
<path fill-rule="evenodd" clip-rule="evenodd" d="M82.3946 36.453C82.6562 36.0696 83.179 35.9708 83.5624 36.2323C83.9459 36.4939 84.0447 37.0167 83.7831 37.4002L83.0889 36.9266C83.7831 37.4002 83.7831 37.4003 83.783 37.4004L83.7817 37.4023L83.7781 37.4075L83.7651 37.4265C83.7537 37.443 83.7371 37.467 83.7154 37.4982C83.6721 37.5607 83.6083 37.6519 83.5257 37.7686C83.3604 38.002 83.1194 38.3375 82.8141 38.7494C82.204 39.5728 81.3354 40.7038 80.301 41.9356C78.2497 44.3783 75.4814 47.2957 72.746 48.9492C70.3295 50.4098 66.9434 51.4854 64.221 52.1918C62.8484 52.548 61.6226 52.8157 60.7396 52.9944C60.2979 53.0838 59.9413 53.1511 59.6943 53.1962C59.5707 53.2188 59.4746 53.2358 59.4088 53.2472C59.3759 53.2529 59.3506 53.2573 59.3333 53.2602L59.3133 53.2636L59.3064 53.2648L59.3059 53.2648C59.3057 53.2649 59.3056 53.2649 59.1678 52.4359L59.3059 53.2648C58.848 53.3409 58.4149 53.0315 58.3388 52.5737C58.2627 52.1158 58.5721 51.683 59.0299 51.6069M59.0299 51.6069L59.0308 51.6067L59.0347 51.6061L59.0516 51.6032C59.0668 51.6006 59.09 51.5967 59.1207 51.5913C59.1821 51.5806 59.2737 51.5644 59.3925 51.5428C59.63 51.4994 59.976 51.4341 60.4061 51.3471C61.2669 51.1728 62.4622 50.9117 63.7989 50.5649C66.4952 49.8653 69.6808 48.8379 71.8765 47.5108C74.3609 46.0091 76.9814 43.2749 79.0139 40.8547C80.0214 39.6549 80.8686 38.5517 81.4637 37.7487C81.7611 37.3474 81.995 37.0217 82.1541 36.7972C82.2336 36.6849 82.2943 36.5979 82.3349 36.5395C82.3552 36.5103 82.3705 36.4882 82.3805 36.4737L82.3915 36.4576L82.3946 36.453" fill="#2D2D2D"/>
<path fill-rule="evenodd" clip-rule="evenodd" d="M4.39689 36.453C4.13535 36.0696 3.6125 35.9708 3.22907 36.2323C2.84564 36.4939 2.74682 37.0167 3.00836 37.4002L3.70263 36.9266C3.00836 37.4002 3.00844 37.4003 3.00854 37.4004L3.00985 37.4023L3.01337 37.4075L3.02641 37.4265C3.03776 37.443 3.05437 37.467 3.07606 37.4982C3.11944 37.5607 3.18318 37.6519 3.26583 37.7686C3.43111 38.002 3.67215 38.3375 3.9774 38.7494C4.58755 39.5728 5.45607 40.7038 6.49048 41.9356C8.54185 44.3783 11.3101 47.2957 14.0455 48.9492C16.462 50.4098 19.8481 51.4854 22.5705 52.1918C23.9431 52.548 25.1689 52.8157 26.0519 52.9944C26.4936 53.0838 26.8502 53.1511 27.0972 53.1962C27.2208 53.2188 27.3169 53.2358 27.3827 53.2472C27.4156 53.2529 27.4409 53.2573 27.4582 53.2602L27.4782 53.2636L27.4852 53.2648L27.4856 53.2648C27.4858 53.2649 27.4859 53.2649 27.6237 52.4359L27.4856 53.2648C27.9435 53.3409 28.3766 53.0315 28.4527 52.5737C28.5288 52.1158 28.2194 51.683 27.7616 51.6069M27.7616 51.6069L27.7607 51.6067L27.7568 51.6061L27.7399 51.6032C27.7247 51.6006 27.7015 51.5967 27.6708 51.5913C27.6094 51.5806 27.5178 51.5644 27.399 51.5428C27.1615 51.4994 26.8155 51.4341 26.3854 51.3471C25.5246 51.1728 24.3293 50.9117 22.9926 50.5649C20.2963 49.8653 17.1107 48.8379 14.915 47.5108C12.4306 46.0091 9.81009 43.2749 7.77759 40.8547C6.77007 39.6549 5.92288 38.5517 5.32781 37.7487C5.03045 37.3474 4.79649 37.0217 4.63744 36.7972C4.55792 36.6849 4.49715 36.5979 4.45658 36.5395C4.43629 36.5103 4.42105 36.4882 4.41104 36.4737L4.39997 36.4576L4.39689 36.453" fill="#2D2D2D"/>
<path fill-rule="evenodd" clip-rule="evenodd" d="M29.9462 29.2527C30.4098 29.2289 30.8048 29.5854 30.8286 30.049C30.8523 30.5125 30.4958 30.9075 30.0323 30.9313L29.9893 30.092L29.9462 29.2527ZM55.1729 30.092C55.1729 29.6279 55.5492 29.2516 56.0133 29.2516V30.092C56.0133 29.2516 56.0132 29.2516 56.0133 29.2516L56.0425 29.2516C56.0613 29.2517 56.0889 29.2518 56.1251 29.2519C56.1975 29.2523 56.304 29.2529 56.4417 29.2542C56.7172 29.2568 57.1177 29.262 57.6201 29.2723C58.6248 29.293 60.038 29.3343 61.6745 29.417C64.9402 29.5819 69.1238 29.9127 72.7271 30.58C72.8753 30.6074 73.1519 30.6487 73.522 30.704C74.6837 30.8774 76.7661 31.1884 78.6851 31.6393C79.9613 31.9391 81.2479 32.3173 82.2325 32.7937C82.7229 33.031 83.1859 33.3149 83.5372 33.662C83.8921 34.0126 84.1921 34.49 84.1921 35.0865C84.1921 36.1258 83.9481 36.9555 83.3637 37.5284C82.7955 38.0854 82.0523 38.2497 81.4186 38.3146C81.0935 38.3479 80.757 38.3582 80.4403 38.3654C80.3851 38.3667 80.3305 38.3678 80.2763 38.369C80.0107 38.3746 79.7575 38.38 79.5028 38.3948C78.8885 38.4305 78.3717 38.5174 77.9426 38.7306C77.0828 39.1579 76.7355 39.6402 76.3193 40.2181C76.2848 40.266 76.2499 40.3145 76.2141 40.3637C75.9753 40.6924 75.6845 41.0718 75.2582 41.4086C74.8242 41.7516 74.2877 42.0222 73.5752 42.2084C72.1622 42.5778 70.6716 42.4107 69.3184 42.1953C69.0123 42.1466 68.7142 42.0958 68.4231 42.0461C67.3687 41.8664 66.4062 41.7022 65.4836 41.71C64.2028 41.7207 63.2825 42.1976 62.1927 42.7809L62.1362 42.8111C61.0721 43.3809 59.8369 44.0424 58.1326 44.0757C56.2988 44.1115 54.9641 43.4265 53.8027 42.8304L53.7897 42.8238C52.6114 42.2191 51.6105 41.71 50.2301 41.71C48.843 41.71 47.8366 42.2026 46.6649 42.7924L46.6106 42.8198C45.4631 43.3977 44.1485 44.0598 42.3515 44.0758C40.5056 44.0922 39.1465 43.4095 37.9651 42.816C37.9407 42.8037 37.9164 42.7915 37.8921 42.7793C36.6798 42.1707 35.642 41.6692 34.219 41.7097C32.9574 41.7456 32.0479 42.2431 30.9625 42.8368L30.918 42.8612C29.8291 43.4567 28.5644 44.1361 26.8057 44.0753C25.2257 44.0207 24.1051 43.3606 23.1576 42.8025L23.1223 42.7817C22.1525 42.2106 21.3575 41.7538 20.2299 41.7094C19.2847 41.6721 18.5613 42.0427 17.644 42.5126C17.5839 42.5434 17.5231 42.5746 17.4612 42.6061C16.4926 43.1001 15.3001 43.6599 13.7453 43.2608C12.413 42.9189 11.6234 42.1764 10.9669 41.4364C10.8244 41.2757 10.6909 41.1195 10.5611 40.9676C10.0813 40.4062 9.65266 39.9047 9.00696 39.4576C8.48432 39.0956 7.83713 38.8281 7.11126 38.5971C6.66224 38.4542 6.24349 38.3419 5.81734 38.2276C5.51872 38.1475 5.21648 38.0664 4.89765 37.9732C4.19444 37.7675 3.45017 37.5114 2.87728 37.099C2.25576 36.6516 1.81042 35.9982 1.81042 35.0865C1.81042 33.9769 2.7059 33.2897 3.54002 32.8726C4.42839 32.4285 5.61574 32.0989 6.88071 31.8326C8.46475 31.4991 10.3271 31.2374 12.0581 30.9941C13.0661 30.8524 14.0295 30.717 14.8675 30.5774C17.2767 30.1758 21.059 29.8451 24.2108 29.6153C25.7926 29.4999 27.2259 29.4093 28.2636 29.3476C28.7825 29.3167 29.2027 29.293 29.4934 29.277C29.6388 29.269 29.7517 29.2629 29.8285 29.2589L29.9462 29.2527C29.9463 29.2527 29.9462 29.2527 29.9893 30.092C30.0323 30.9313 30.0324 30.9313 30.0323 30.9313L29.9175 30.9373C29.8418 30.9413 29.7299 30.9473 29.5857 30.9552C29.2972 30.9711 28.8795 30.9946 28.3634 31.0254C27.331 31.0868 25.9055 31.1769 24.333 31.2916C21.1759 31.5218 17.4663 31.8482 15.1438 32.2353C14.2129 32.3904 13.2074 32.5312 12.182 32.6748C10.5033 32.9097 8.7715 33.1522 7.22697 33.4773C5.99469 33.7368 4.98053 34.0316 4.2917 34.376C3.54862 34.7475 3.4912 35.0132 3.4912 35.0865C3.4912 35.3577 3.58868 35.5401 3.85923 35.7349C4.17842 35.9646 4.67552 36.157 5.36943 36.36C5.60848 36.4299 5.8848 36.5045 6.17704 36.5833C6.64681 36.7101 7.1577 36.848 7.62096 36.9954C8.41023 37.2466 9.24041 37.5748 9.96386 38.0758C10.8072 38.6598 11.4072 39.3652 11.8989 39.9434C12.0126 40.0771 12.1205 40.2039 12.2243 40.3209C12.7901 40.9587 13.3056 41.4127 14.1631 41.6328C15.0681 41.8651 15.7612 41.5863 16.6977 41.1088C16.7712 41.0713 16.8465 41.0323 16.9237 40.9924C17.7902 40.544 18.8908 39.9744 20.2962 40.0299C21.868 40.0919 22.985 40.75 23.9284 41.3058C23.944 41.315 23.9596 41.3242 23.9752 41.3334C24.9432 41.9034 25.7375 42.3566 26.8638 42.3956C28.1226 42.4391 29.029 41.9786 30.1115 41.3865C30.1529 41.3639 30.1947 41.341 30.2367 41.3179C31.2759 40.7481 32.4997 40.0771 34.1712 40.0296C36.0542 39.976 37.4311 40.6672 38.6339 41.271L38.6462 41.2772C39.8657 41.8894 40.907 42.4078 42.3366 42.3951C43.7263 42.3827 44.7341 41.8827 45.9091 41.2912L45.9351 41.2781C47.0927 40.6953 48.4155 40.0292 50.2301 40.0292C52.0274 40.0292 53.3448 40.7058 54.4856 41.2917L54.5571 41.3284C55.7282 41.9294 56.7257 42.4221 58.0998 42.3952C59.3838 42.3701 60.3057 41.8844 61.3996 41.299L61.4248 41.2855C62.5 40.71 63.7446 40.0437 65.4695 40.0293C66.5572 40.0201 67.7151 40.2186 68.7885 40.4025C69.0594 40.4489 69.325 40.4944 69.5826 40.5354C70.9235 40.7488 72.1062 40.8552 73.1501 40.5823C73.6672 40.4471 73.9867 40.2712 74.2161 40.0899C74.4533 39.9025 74.6335 39.6797 74.8543 39.3758C74.8895 39.3275 74.9251 39.2777 74.9617 39.2267C75.3955 38.6214 75.954 37.842 77.1946 37.2255C77.9292 36.8604 78.7172 36.7568 79.4054 36.7169C79.6938 36.7001 79.9833 36.694 80.2492 36.6884C80.3012 36.6873 80.3522 36.6862 80.4021 36.6851C80.7177 36.6779 80.9951 36.6684 81.2473 36.6426C81.7685 36.5892 82.0347 36.4775 82.1871 36.3281C82.3234 36.1945 82.5113 35.8873 82.5113 35.0865C82.5113 35.0824 82.5113 35.0676 82.4947 35.0343C82.476 34.9969 82.4361 34.9369 82.3559 34.8577C82.1896 34.6933 81.9099 34.5048 81.5004 34.3067C80.6849 33.9121 79.5422 33.5672 78.3006 33.2755C76.4661 32.8444 74.5945 32.5649 73.4097 32.388C72.9766 32.3233 72.6352 32.2723 72.4211 32.2327C68.9269 31.5856 64.83 31.2593 61.5897 31.0956C59.9732 31.014 58.577 30.9731 57.5855 30.9527C57.0899 30.9425 56.6957 30.9375 56.4259 30.9349C56.291 30.9336 56.1872 30.933 56.1175 30.9327C56.0974 30.9326 56.0801 30.9325 56.0657 30.9325L56.0388 30.9324L56.0135 30.9324C55.5494 30.9324 55.1729 30.5561 55.1729 30.092Z" fill="#2D2D2D"/>
<path d="M51.2817 10.9195C51.2817 10.9195 48.2259 2.41112 43.6585 1.98194C38.6713 1.51331 34.4581 10.9195 34.4581 10.9195" stroke="#2D2D2D" stroke-width="1.68078" stroke-linecap="round"/>
<path d="M64.4251 10.6566C64.4251 10.6566 59.9001 4.99688 55.7505 3.82201C52.7872 2.98306 47.8644 3.82201 47.8644 3.82201" stroke="#2D2D2D" stroke-width="1.68078" stroke-linecap="round"/>
<path d="M21.5774 10.6566C21.5774 10.6566 26.1024 4.99688 30.2521 3.82201C33.2153 2.98306 38.1382 3.82201 38.1382 3.82201" stroke="#2D2D2D" stroke-width="1.68078" stroke-linecap="round"/>
<path d="M83.0571 20.2258C83.0571 20.2258 77.531 11.9716 72.3112 8.8165C67.6991 6.02866 59.1678 4.61059 59.1678 4.61059" stroke="#2D2D2D" stroke-width="1.68078" stroke-linecap="round"/>
<path d="M3.70263 20.1199C3.70263 20.1199 9.26051 11.9716 14.4803 8.8165C19.0924 6.02866 27.6237 4.6106 27.6237 4.6106" stroke="#2D2D2D" stroke-width="1.68078" stroke-linecap="round"/>
<path d="M29.9893 26.9545C29.9893 26.9545 19.7375 26.4288 15.0057 25.6402C10.274 24.8515 2.65088 24.3258 2.65088 21.96C2.65088 19.5942 6.99329 20.0057 9.48547 18.2798C11.3441 16.9927 11.7644 15.1617 13.9542 14.5997C16.4141 13.9683 17.7255 16.277 20.2631 16.1769C22.9886 16.0694 24.1088 13.9053 26.8348 13.8111C29.8522 13.7067 31.1772 16.091 34.1952 16.1769C37.5076 16.2711 39.0305 13.7816 42.3441 13.8111C45.5593 13.8397 47.0149 16.1769 50.2302 16.1769C53.4455 16.1769 54.9016 13.7482 58.1162 13.8111C61.1349 13.8701 62.4575 16.1515 65.4766 16.1769C68.0161 16.1982 70.9057 15.0088 73.3627 15.6511C75.8218 16.294 75.2925 17.9374 77.5686 19.0684C79.8962 20.2251 83.3518 18.2798 83.3518 21.96C83.3518 24.3258 73.9873 25.3785 72.5741 25.6402C65.4766 26.9545 56.0134 26.9545 56.0134 26.9545" stroke="#2D2D2D" stroke-width="1.68078" stroke-linecap="round"/>
<path d="M44.1461 31.7124C43.9577 31.7124 43.7895 31.6552 43.6415 31.5409C43.4936 31.4198 43.4196 31.2718 43.4196 31.0969V25.2646C43.4196 25.0897 43.4767 24.9451 43.5911 24.8307C43.7122 24.7096 43.8602 24.6491 44.0351 24.6491H46.9411C47.291 24.6491 47.6172 24.7432 47.9199 24.9316C48.2294 25.1132 48.4783 25.3689 48.6666 25.6985C48.855 26.0214 48.9492 26.3947 48.9492 26.8185C48.9492 27.0742 48.8953 27.3231 48.7877 27.5652C48.6868 27.8074 48.5455 28.026 48.3639 28.2211C48.189 28.4162 47.9906 28.5675 47.7686 28.6752L47.7787 28.4431C47.967 28.544 48.1217 28.6651 48.2428 28.8064C48.3706 28.9409 48.4682 29.0889 48.5354 29.2503C48.6094 29.4051 48.6532 29.5732 48.6666 29.7549C48.6935 29.923 48.7104 30.071 48.7171 30.1989C48.7305 30.3267 48.7507 30.4343 48.7776 30.5217C48.8113 30.6092 48.8718 30.6765 48.9593 30.7236C49.1072 30.811 49.1981 30.9388 49.2317 31.107C49.2721 31.2684 49.2351 31.4131 49.1207 31.5409C49.0467 31.6283 48.9525 31.6855 48.8382 31.7124C48.7238 31.7326 48.6094 31.7326 48.4951 31.7124C48.3807 31.6855 48.2866 31.6519 48.2126 31.6115C48.0982 31.5443 47.9838 31.4467 47.8695 31.3189C47.7551 31.1844 47.6609 31.0061 47.5869 30.7841C47.5197 30.5621 47.486 30.2762 47.486 29.9264C47.486 29.812 47.4659 29.7078 47.4255 29.6136C47.3851 29.5127 47.328 29.4286 47.254 29.3613C47.18 29.2873 47.0858 29.2335 46.9714 29.1999C46.8571 29.1595 46.7225 29.1393 46.5678 29.1393H44.5295L44.6809 28.9073V31.0969C44.6809 31.2718 44.6338 31.4198 44.5396 31.5409C44.4454 31.6552 44.3142 31.7124 44.1461 31.7124ZM44.5396 28.1H46.8907C47.0118 28.1 47.1295 28.0462 47.2439 27.9386C47.3582 27.8242 47.4524 27.6729 47.5264 27.4845C47.6004 27.2894 47.6374 27.0775 47.6374 26.8488C47.6374 26.5528 47.5567 26.3073 47.3952 26.1122C47.2405 25.9104 47.0723 25.8095 46.8907 25.8095H44.5598L44.6809 25.4866V28.3422L44.5396 28.1Z" fill="#2D2D2D"/>
<path d="M42.8567 31.995C42.998 31.995 43.1292 32.0521 43.2503 32.1665C43.3713 32.2876 43.4319 32.4255 43.4319 32.5802C43.4319 32.7349 43.3613 32.8796 43.22 33.0141C43.0855 33.1554 42.9105 33.2798 42.6953 33.3875C42.48 33.4951 42.2547 33.5792 42.0192 33.6397C41.7905 33.7003 41.582 33.7305 41.3936 33.7305C40.9765 33.7305 40.6435 33.6902 40.3946 33.6094C40.1457 33.5354 39.9406 33.448 39.7791 33.3471C39.6177 33.2529 39.4663 33.1655 39.325 33.0847C39.1838 33.0107 39.0122 32.9737 38.8104 32.9737C38.6826 32.9737 38.5783 32.9939 38.4976 33.0343C38.4236 33.0814 38.3395 33.1251 38.2454 33.1655C38.1579 33.2126 38.0335 33.2361 37.872 33.2361C37.7038 33.2361 37.5626 33.1722 37.4482 33.0444C37.3339 32.9166 37.2767 32.7787 37.2767 32.6307C37.2767 32.3683 37.3944 32.1934 37.6298 32.106L39.7186 31.329L40.6267 31.551L38.6692 32.2775L39.2443 31.9445C39.4798 31.9445 39.6849 31.9781 39.8598 32.0454C40.0415 32.1194 40.213 32.2001 40.3745 32.2876C40.5359 32.375 40.7007 32.4524 40.8689 32.5197C41.0438 32.5937 41.2422 32.6307 41.4642 32.6307C41.6459 32.6307 41.7972 32.6004 41.9183 32.5398C42.0461 32.4793 42.1571 32.412 42.2513 32.338C42.3657 32.2506 42.4666 32.1699 42.554 32.0959C42.6482 32.0286 42.7491 31.995 42.8567 31.995ZM42.8164 28.1807C42.8164 28.6853 42.7323 29.1562 42.5641 29.5934C42.3959 30.0307 42.1571 30.4175 41.8477 30.7538C41.545 31.0835 41.1817 31.3424 40.7579 31.5308C40.3408 31.7192 39.8834 31.8133 39.3856 31.8133C38.8878 31.8133 38.4304 31.7192 38.0133 31.5308C37.5962 31.3424 37.2329 31.0835 36.9235 30.7538C36.6208 30.4175 36.3853 30.0307 36.2172 29.5934C36.049 29.1562 35.9649 28.6853 35.9649 28.1807C35.9649 27.6762 36.049 27.2053 36.2172 26.7681C36.3853 26.3308 36.6208 25.9474 36.9235 25.6178C37.2329 25.2814 37.5962 25.019 38.0133 24.8307C38.4304 24.6423 38.8878 24.5482 39.3856 24.5482C39.8834 24.5482 40.3408 24.6423 40.7579 24.8307C41.1817 25.019 41.545 25.2814 41.8477 25.6178C42.1571 25.9474 42.3959 26.3308 42.5641 26.7681C42.7323 27.2053 42.8164 27.6762 42.8164 28.1807ZM41.5046 28.1807C41.5046 27.73 41.4138 27.323 41.2322 26.9598C41.0505 26.5898 40.8016 26.2972 40.4855 26.0819C40.1693 25.8667 39.8027 25.759 39.3856 25.759C38.9685 25.759 38.6019 25.8667 38.2857 26.0819C37.9696 26.2972 37.7207 26.5864 37.539 26.9497C37.3641 27.313 37.2767 27.7233 37.2767 28.1807C37.2767 28.6315 37.3641 29.0418 37.539 29.4118C37.7207 29.775 37.9696 30.0643 38.2857 30.2796C38.6019 30.4948 38.9685 30.6025 39.3856 30.6025C39.8027 30.6025 40.1693 30.4948 40.4855 30.2796C40.8016 30.0643 41.0505 29.775 41.2322 29.4118C41.4138 29.0418 41.5046 28.6315 41.5046 28.1807Z" fill="#2D2D2D"/>
<path fill-rule="evenodd" clip-rule="evenodd" d="M42.6072 37.0859C47.4861 37.0859 51.4412 33.1308 51.4412 28.2519C51.4412 23.373 47.4861 19.4179 42.6072 19.4179C37.7284 19.4179 33.7732 23.373 33.7732 28.2519C33.7732 33.1308 37.7284 37.0859 42.6072 37.0859ZM42.6072 38.7667C48.4144 38.7667 53.122 34.0591 53.122 28.2519C53.122 22.4448 48.4144 17.7371 42.6072 17.7371C36.8001 17.7371 32.0925 22.4448 32.0925 28.2519C32.0925 34.0591 36.8001 38.7667 42.6072 38.7667Z" fill="#2D2D2D"/>
</svg>
