<svg width="137" height="90" viewBox="0 0 137 90" fill="none" xmlns="http://www.w3.org/2000/svg">
<path fill-rule="evenodd" clip-rule="evenodd" d="M101.585 72.6105C102.047 72.0343 102.889 71.9407 103.466 72.4015C104.044 72.8623 104.138 73.7032 103.676 74.2796L102.708 73.5069C103.676 74.2796 103.676 74.2798 103.676 74.28L103.674 74.2826L103.669 74.2889L103.651 74.3112C103.635 74.3302 103.613 74.3576 103.584 74.3929C103.526 74.4633 103.442 74.5652 103.333 74.6946C103.116 74.9532 102.8 75.322 102.4 75.7692C101.603 76.6626 100.469 77.8746 99.1203 79.1485C96.472 81.6504 92.8163 84.5691 89.1762 85.5977C86.5822 86.3307 83.247 86.3139 80.6725 86.1456C79.3627 86.06 78.2062 85.9317 77.3765 85.8248C76.9612 85.7713 76.6266 85.723 76.3942 85.6878C76.2779 85.6702 76.1872 85.6559 76.1246 85.6458C76.0933 85.6408 76.069 85.6368 76.0521 85.634L76.0324 85.6307L76.0243 85.6293C76.0241 85.6293 76.0239 85.6293 76.2415 84.3547L76.0243 85.6293C75.2955 85.5054 74.8049 84.815 74.9291 84.0876C75.0533 83.3602 75.7447 82.871 76.4735 82.9948C76.4734 82.9948 76.4736 82.9948 76.4735 82.9948L76.4767 82.9953L76.4908 82.9977C76.5038 82.9998 76.5242 83.0032 76.5515 83.0076C76.6061 83.0164 76.6884 83.0294 76.7958 83.0457C77.0107 83.0782 77.3256 83.1237 77.7193 83.1744C78.5076 83.276 79.6066 83.3978 80.8475 83.4789C83.3742 83.6441 86.3203 83.6273 88.4468 83.0264C91.4172 82.187 94.671 79.6722 97.2796 77.2077C98.5596 75.9984 99.6405 74.8438 100.401 73.9916C100.781 73.566 101.08 73.2172 101.282 72.9764C101.384 72.856 101.461 72.7627 101.512 72.7005C101.537 72.6693 101.556 72.646 101.569 72.6308L101.582 72.6144L101.585 72.611L101.585 72.6105C101.585 72.6104 101.585 72.6106 101.585 72.6105Z" fill="#F9F9F9"/>
<path fill-rule="evenodd" clip-rule="evenodd" d="M35.4186 72.6105C34.9569 72.0343 34.1146 71.9407 33.5372 72.4015C32.9597 72.8623 32.8658 73.7032 33.3275 74.2796L34.2958 73.5069C33.3276 74.2796 33.3277 74.2798 33.3279 74.28L33.33 74.2826L33.3351 74.2889L33.3531 74.3112C33.3685 74.3302 33.3908 74.3576 33.4197 74.3929C33.4774 74.4633 33.5617 74.5652 33.6705 74.6946C33.888 74.9532 34.204 75.322 34.6032 75.7692C35.4006 76.6626 36.535 77.8746 37.8834 79.1485C40.5316 81.6504 44.1873 84.5691 47.8275 85.5977C50.4215 86.3307 53.7567 86.3139 56.3312 86.1456C57.6409 86.06 58.7975 85.9317 59.6271 85.8248C60.0424 85.7713 60.3771 85.723 60.6095 85.6878C60.7257 85.6702 60.8165 85.6559 60.8791 85.6458C60.9104 85.6408 60.9346 85.6368 60.9515 85.634L60.9713 85.6307L60.9793 85.6293C60.9796 85.6293 60.9798 85.6293 60.7621 84.3547L60.9793 85.6293C61.7082 85.5054 62.1988 84.815 62.0746 84.0876C61.9504 83.3602 61.259 82.871 60.5302 82.9948C60.5303 82.9948 60.5301 82.9948 60.5302 82.9948L60.527 82.9953L60.5129 82.9977C60.4998 82.9998 60.4795 83.0032 60.4522 83.0076C60.3976 83.0164 60.3153 83.0294 60.2078 83.0457C59.9929 83.0782 59.678 83.1237 59.2844 83.1744C58.4961 83.276 57.3971 83.3978 56.1562 83.4789C53.6295 83.6441 50.6833 83.6273 48.5569 83.0264C45.5864 82.187 42.3326 79.6722 39.724 77.2077C38.444 75.9984 37.3631 74.8438 36.6024 73.9916C36.2225 73.566 35.9237 73.2172 35.7212 72.9764C35.62 72.856 35.5429 72.7627 35.4919 72.7005C35.4663 72.6693 35.4473 72.646 35.4351 72.6308L35.4218 72.6144L35.419 72.611L35.4186 72.6105C35.4186 72.6104 35.4187 72.6106 35.4186 72.6105Z" fill="#F9F9F9"/>
<path fill-rule="evenodd" clip-rule="evenodd" d="M131.256 57.6454C131.673 57.0358 132.506 56.8786 133.117 57.2945C133.728 57.7103 133.885 58.5416 133.468 59.1513L132.362 58.3983C133.468 59.1513 133.468 59.1515 133.468 59.1517L133.466 59.1548L133.46 59.1629L133.44 59.1931C133.421 59.2193 133.395 59.2576 133.36 59.3073C133.291 59.4066 133.19 59.5516 133.058 59.7371C132.795 60.1082 132.411 60.6416 131.925 61.2966C130.953 62.6057 129.569 64.4041 127.921 66.3625C124.653 70.2464 120.243 74.8851 115.886 77.5141C112.036 79.8365 106.642 81.5467 102.305 82.6698C100.119 83.2361 98.166 83.6617 96.7594 83.9459C96.0558 84.0881 95.4877 84.1951 95.0942 84.2668C94.8974 84.3027 94.7442 84.3297 94.6394 84.3479C94.587 84.357 94.5467 84.3639 94.5191 84.3686L94.4873 84.3739L94.4762 84.3758L94.4755 84.3759C94.4752 84.3759 94.475 84.376 94.2555 83.0579L94.4755 84.3759C93.7461 84.4969 93.0561 84.0049 92.9348 83.277C92.8136 82.549 93.3065 81.8608 94.0358 81.7398M94.0358 81.7398L94.0373 81.7395L94.0434 81.7385L94.0703 81.734C94.0946 81.7298 94.1315 81.7235 94.1804 81.715C94.2783 81.698 94.4243 81.6723 94.6134 81.6378C94.9919 81.5689 95.543 81.4651 96.2282 81.3267C97.5994 81.0496 99.5036 80.6345 101.633 80.0831C105.928 78.9707 111.003 77.3372 114.501 75.227C118.458 72.8393 122.633 68.492 125.871 64.6439C127.476 62.7364 128.825 60.9823 129.773 59.7055C130.247 59.0675 130.62 58.5496 130.873 58.1925C131 58.014 131.097 57.8758 131.161 57.7829C131.194 57.7364 131.218 57.7013 131.234 57.6782L131.251 57.6526L131.256 57.6454" fill="#F9F9F9"/>
<path fill-rule="evenodd" clip-rule="evenodd" d="M7.00411 57.6454C6.58747 57.0358 5.75457 56.8786 5.14375 57.2945C4.53294 57.7103 4.37552 58.5416 4.79216 59.1513L5.89813 58.3983C4.79216 59.1513 4.79229 59.1515 4.79245 59.1517L4.79453 59.1548L4.80014 59.1629L4.82092 59.1931C4.83899 59.2193 4.86544 59.2576 4.9 59.3073C4.96911 59.4066 5.07065 59.5516 5.20232 59.7371C5.46561 60.1082 5.84958 60.6416 6.33585 61.2966C7.30783 62.6057 8.69141 64.4041 10.3393 66.3625C13.6071 70.2464 18.0171 74.8851 22.3746 77.5141C26.2241 79.8365 31.6183 81.5467 35.955 82.6698C38.1417 83.2361 40.0944 83.6617 41.501 83.9459C42.2047 84.0881 42.7728 84.1951 43.1663 84.2668C43.3631 84.3027 43.5163 84.3297 43.6211 84.3479C43.6735 84.357 43.7138 84.3639 43.7414 84.3686L43.7732 84.3739L43.7842 84.3758L43.785 84.3759C43.7853 84.3759 43.7855 84.376 44.005 83.0579L43.785 84.3759C44.5144 84.4969 45.2044 84.0049 45.3256 83.277C45.4468 82.549 44.9539 81.8608 44.2246 81.7398M44.2246 81.7398L44.2232 81.7395L44.217 81.7385L44.1901 81.734C44.1659 81.7298 44.129 81.7235 44.08 81.715C43.9822 81.698 43.8362 81.6723 43.647 81.6378C43.2686 81.5689 42.7175 81.4651 42.0323 81.3267C40.661 81.0496 38.7569 80.6345 36.6275 80.0831C32.3322 78.9707 27.2574 77.3372 23.7597 75.227C19.8021 72.8393 15.6275 68.492 12.3896 64.6439C10.7846 62.7364 9.43505 60.9823 8.48709 59.7055C8.01339 59.0675 7.64069 58.5496 7.38731 58.1925C7.26064 58.014 7.16383 57.8758 7.09919 57.7829C7.06687 57.7364 7.0426 57.7013 7.02666 57.6782L7.00903 57.6526L7.00411 57.6454" fill="#F9F9F9"/>
<path fill-rule="evenodd" clip-rule="evenodd" d="M47.7049 46.1971C48.4433 46.1593 49.0726 46.7261 49.1105 47.4631C49.1483 48.2001 48.5804 48.8282 47.842 48.866L47.7735 47.5316L47.7049 46.1971ZM87.8916 47.5316C87.8916 46.7936 88.4909 46.1954 89.2303 46.1953V47.5316C89.2303 46.1953 89.2301 46.1953 89.2303 46.1953L89.2769 46.1954C89.3067 46.1955 89.3508 46.1956 89.4084 46.1959C89.5237 46.1964 89.6934 46.1974 89.9128 46.1995C90.3516 46.2036 90.9896 46.2118 91.79 46.2283C93.3905 46.2612 95.6418 46.3269 98.2487 46.4583C103.451 46.7205 110.116 47.2465 115.856 48.3075C116.092 48.3511 116.533 48.4168 117.122 48.5046C118.973 48.7804 122.29 49.2748 125.347 49.9917C127.38 50.4685 129.43 51.0698 130.998 51.8272C131.779 52.2046 132.517 52.656 133.077 53.2079C133.642 53.7653 134.12 54.5244 134.12 55.4728C134.12 57.1253 133.731 58.4444 132.8 59.3553C131.895 60.2409 130.711 60.5022 129.702 60.6054C129.184 60.6584 128.648 60.6747 128.143 60.6862C128.055 60.6882 127.968 60.69 127.882 60.6918C127.459 60.7008 127.055 60.7094 126.65 60.7329C125.671 60.7896 124.848 60.9278 124.164 61.2669C122.795 61.9462 122.241 62.713 121.578 63.632C121.523 63.7081 121.468 63.7852 121.411 63.8635C121.03 64.3861 120.567 64.9892 119.888 65.5248C119.196 66.0701 118.342 66.5004 117.207 66.7965C114.956 67.3839 112.581 67.1181 110.426 66.7757C109.938 66.6982 109.463 66.6174 108.999 66.5385C107.32 66.2526 105.786 65.9917 104.317 66.004C102.276 66.0211 100.81 66.7793 99.0743 67.7066L98.9842 67.7548C97.2892 68.6608 95.3214 69.7124 92.6064 69.7654C89.6852 69.8224 87.5589 68.7333 85.7087 67.7855L85.688 67.7749C83.811 66.8134 82.2165 66.004 80.0176 66.004C77.8079 66.004 76.2047 66.7872 74.3382 67.7251L74.2516 67.7686C72.4235 68.6875 70.3294 69.7402 67.4668 69.7656C64.5262 69.7917 62.3611 68.7061 60.4792 67.7626C60.4403 67.743 60.4015 67.7236 60.3628 67.7042C58.4316 66.7366 56.7783 65.9391 54.5115 66.0035C52.5017 66.0606 51.0528 66.8516 49.3238 67.7956L49.2529 67.8344C47.5183 68.7812 45.5036 69.8615 42.702 69.7649C40.1849 69.678 38.3998 68.6285 36.8904 67.741L36.8341 67.7079C35.2893 66.7999 34.0229 66.0737 32.2265 66.003C30.7208 65.9437 29.5684 66.533 28.1071 67.2802C28.0114 67.3291 27.9145 67.3787 27.816 67.4288C26.273 68.2142 24.3733 69.1044 21.8963 68.4698C19.774 67.9261 18.5162 66.7455 17.4704 65.5689C17.2433 65.3134 17.0307 65.0651 16.8239 64.8237C16.0596 63.9311 15.3767 63.1336 14.3481 62.4227C13.5156 61.8472 12.4846 61.4218 11.3282 61.0545C10.6129 60.8273 9.94585 60.6487 9.267 60.467C8.79129 60.3397 8.3098 60.2108 7.80191 60.0625C6.68167 59.7355 5.49604 59.3282 4.58341 58.6725C3.5933 57.9612 2.88388 56.9223 2.88388 55.4728C2.88388 53.7085 4.31039 52.6159 5.63917 51.9527C7.05436 51.2465 8.94583 50.7225 10.961 50.2991C13.4844 49.7689 16.4512 49.3527 19.2087 48.9659C20.8144 48.7407 22.3492 48.5254 23.6841 48.3033C27.5221 47.6649 33.5473 47.139 38.5681 46.7736C41.0881 46.5902 43.3712 46.4461 45.0243 46.3479C45.851 46.2988 46.5204 46.2611 46.9835 46.2357C47.2151 46.223 47.395 46.2134 47.5173 46.2069L47.7049 46.1971C47.705 46.1971 47.7049 46.1971 47.7735 47.5316C47.842 48.866 47.8421 48.866 47.842 48.866L47.6591 48.8756C47.5385 48.882 47.3602 48.8915 47.1305 48.9041C46.671 48.9293 46.0056 48.9668 45.1834 49.0156C43.5388 49.1133 41.268 49.2566 38.7628 49.4389C33.7335 49.8049 27.8241 50.3239 24.1243 50.9394C22.6414 51.1861 21.0395 51.4099 19.406 51.6381C16.7319 52.0117 13.973 52.3972 11.5126 52.9142C9.54952 53.3267 7.93393 53.7954 6.8366 54.343C5.65287 54.9338 5.5614 55.3562 5.5614 55.4728C5.5614 55.904 5.71668 56.194 6.14768 56.5036C6.65616 56.869 7.44804 57.1749 8.55346 57.4976C8.93427 57.6087 9.37446 57.7273 9.84 57.8527C10.5884 58.0543 11.4022 58.2735 12.1402 58.5079C13.3975 58.9073 14.72 59.4291 15.8725 60.2256C17.2159 61.1542 18.1717 62.2759 18.955 63.1951C19.1361 63.4077 19.308 63.6094 19.4734 63.7954C20.3747 64.8095 21.1959 65.5314 22.562 65.8813C24.0036 66.2506 25.1078 65.8074 26.5996 65.0481C26.7167 64.9885 26.8367 64.9265 26.9597 64.863C28.34 64.1501 30.0933 63.2445 32.3321 63.3327C34.8361 63.4313 36.6155 64.4776 38.1183 65.3614C38.1432 65.376 38.1681 65.3906 38.1928 65.4052C39.7349 66.3116 41.0003 67.0321 42.7945 67.094C44.7997 67.1632 46.2437 66.431 47.9681 65.4897C48.0341 65.4537 48.1006 65.4173 48.1676 65.3806C49.823 64.4747 51.7725 63.4078 54.4353 63.3322C57.4351 63.247 59.6285 64.346 61.5445 65.3061L61.5641 65.3159C63.5069 66.2893 65.1657 67.1135 67.443 67.0933C69.6569 67.0736 71.2623 66.2787 73.1341 65.3381L73.1756 65.3173C75.0196 64.3906 77.1269 63.3316 80.0176 63.3316C82.8806 63.3316 84.9794 64.4074 86.7966 65.3389L86.9106 65.3973C88.7761 66.3529 90.3652 67.1362 92.5541 67.0935C94.5996 67.0536 96.0683 66.2814 97.8108 65.3505L97.8509 65.3291C99.5638 64.414 101.547 63.3547 104.294 63.3317C106.027 63.3172 107.872 63.6326 109.582 63.9251C110.013 63.9989 110.436 64.0713 110.847 64.1365C112.983 64.4758 114.867 64.6449 116.53 64.211C117.353 63.996 117.862 63.7163 118.228 63.428C118.606 63.1301 118.893 62.7759 119.245 62.2927C119.3 62.2158 119.357 62.1367 119.416 62.0556C120.107 61.0931 120.996 59.8539 122.973 58.8737C124.143 58.2932 125.398 58.1285 126.495 58.065C126.954 58.0384 127.415 58.0286 127.839 58.0197C127.921 58.018 128.003 58.0162 128.082 58.0144C128.585 58.003 129.027 57.988 129.429 57.9469C130.259 57.862 130.683 57.6845 130.926 57.4469C131.143 57.2344 131.442 56.7459 131.442 55.4728C131.442 55.4662 131.442 55.4426 131.416 55.3897C131.386 55.3303 131.322 55.2349 131.195 55.1089C130.93 54.8476 130.484 54.5479 129.832 54.2329C128.533 53.6055 126.712 53.0571 124.734 52.5933C121.812 51.9079 118.831 51.4635 116.943 51.1822C116.253 51.0793 115.709 50.9983 115.368 50.9352C109.802 49.9064 103.276 49.3875 98.1137 49.1273C95.5385 48.9975 93.3144 48.9326 91.7349 48.9001C90.9454 48.8839 90.3173 48.8758 89.8876 48.8718C89.6727 48.8698 89.5074 48.8688 89.3963 48.8683C89.3643 48.8681 89.3367 48.868 89.3138 48.8679L89.271 48.8678L89.2306 48.8678C88.4913 48.8678 87.8916 48.2695 87.8916 47.5316Z" fill="#F9F9F9"/>
<path fill-rule="evenodd" clip-rule="evenodd" d="M54.2646 71.2503C54.8742 71.0319 55.5457 71.3481 55.7647 71.9564C55.7647 71.9564 55.7647 71.9564 55.7647 71.9564L55.7674 71.9639L55.778 71.9929C55.7878 72.0194 55.8028 72.0599 55.823 72.1135C55.8634 72.2208 55.9246 72.3805 56.0058 72.5852C56.1683 72.9946 56.4105 73.583 56.7263 74.2904C57.3592 75.7083 58.2814 77.5898 59.4429 79.463C60.6093 81.3443 61.9877 83.1692 63.5194 84.5117C65.0543 85.857 66.6458 86.6353 68.2673 86.6353C69.8888 86.6353 71.4804 85.857 73.0153 84.5117C74.547 83.1692 75.9254 81.3443 77.0918 79.463C78.2532 77.5898 79.1754 75.7083 79.8084 74.2904C80.1242 73.583 80.3663 72.9946 80.5288 72.5852C80.61 72.3805 80.6712 72.2208 80.7117 72.1135C80.7319 72.0599 80.7469 72.0194 80.7566 71.9929L80.7672 71.9639L80.7696 71.9576L80.7698 71.9567C80.9888 71.3484 81.6605 71.0319 82.2701 71.2503C82.8798 71.4687 83.1967 72.1391 82.9779 72.7477L81.8739 72.3522C82.9779 72.7477 82.9778 72.748 82.9777 72.7484L82.9773 72.7494L82.9762 72.7525L82.9724 72.7629L82.9588 72.8002C82.947 72.8322 82.9298 72.8785 82.9074 72.938C82.8625 73.0571 82.7964 73.2294 82.7099 73.4473C82.5371 73.883 82.2822 74.502 81.9513 75.2433C81.2908 76.723 80.3206 78.705 79.0867 80.6952C77.8576 82.6774 76.3375 84.7159 74.5633 86.271C72.7924 87.8232 70.6707 88.9767 68.2673 88.9767C65.864 88.9767 63.7423 87.8232 61.9714 86.271C60.1972 84.7159 58.677 82.6774 57.448 80.6952C56.214 78.705 55.2439 76.723 54.5834 75.2433C54.2524 74.502 53.9976 73.883 53.8247 73.4473C53.7382 73.2294 53.6722 73.0571 53.6273 72.938C53.6049 72.8785 53.5877 72.8322 53.5759 72.8002L53.5623 72.7629L53.5585 72.7525L53.557 72.7484C53.5569 72.748 53.5568 72.7477 54.6608 72.3522L53.5568 72.7477C53.3379 72.1391 53.6548 71.4687 54.2646 71.2503Z" fill="#F9F9F9"/>
<path fill-rule="evenodd" clip-rule="evenodd" d="M54.2646 18.8977C54.8742 19.116 55.5457 18.7999 55.7647 18.1915C55.7647 18.1915 55.7647 18.1915 55.7647 18.1915L55.7674 18.184L55.778 18.155C55.7878 18.1286 55.8028 18.0881 55.823 18.0344C55.8634 17.9271 55.9246 17.7674 56.0058 17.5628C56.1683 17.1533 56.4105 16.565 56.7263 15.8575C57.3592 14.4396 58.2814 12.5582 59.4429 10.6849C60.6093 8.80368 61.9877 6.97879 63.5194 5.6363C65.0543 4.29093 66.6458 3.5127 68.2673 3.5127C69.8888 3.5127 71.4804 4.29093 73.0153 5.6363C74.547 6.97879 75.9254 8.80368 77.0918 10.6849C78.2532 12.5582 79.1754 14.4396 79.8084 15.8575C80.1242 16.565 80.3663 17.1533 80.5288 17.5628C80.61 17.7674 80.6712 17.9271 80.7117 18.0344C80.7319 18.0881 80.7469 18.1286 80.7566 18.155L80.7672 18.184L80.7696 18.1904L80.7698 18.1912C80.9888 18.7996 81.6605 19.116 82.2701 18.8977C82.8798 18.6792 83.1967 18.0088 82.9779 17.4003L81.8739 17.7957C82.9779 17.4003 82.9778 17.4 82.9777 17.3996L82.9773 17.3986L82.9762 17.3954L82.9724 17.385L82.9588 17.3478C82.947 17.3157 82.9298 17.2695 82.9074 17.2099C82.8625 17.0908 82.7964 16.9186 82.7099 16.7006C82.5371 16.265 82.2822 15.646 81.9513 14.9046C81.2908 13.425 80.3206 11.443 79.0867 9.45277C77.8576 7.47057 76.3375 5.43201 74.5633 3.87692C72.7924 2.3247 70.6707 1.17122 68.2673 1.17122C65.864 1.17122 63.7423 2.3247 61.9714 3.87692C60.1972 5.43201 58.677 7.47057 57.448 9.45277C56.214 11.443 55.2439 13.425 54.5834 14.9046C54.2524 15.646 53.9976 16.265 53.8247 16.7006C53.7382 16.9186 53.6722 17.0908 53.6273 17.2099C53.6049 17.2695 53.5877 17.3157 53.5759 17.3478L53.5623 17.385L53.5585 17.3954L53.557 17.3996C53.5569 17.4 53.5568 17.4003 54.6608 17.7957L53.5568 17.4003C53.3379 18.0088 53.6548 18.6792 54.2646 18.8977Z" fill="#F9F9F9"/>
<path fill-rule="evenodd" clip-rule="evenodd" d="M101.585 17.4642C102.047 18.0404 102.889 18.134 103.466 17.6732C104.044 17.2124 104.138 16.3716 103.676 15.7952L102.708 16.5678C103.676 15.7951 103.676 15.7949 103.676 15.7947L103.674 15.7921L103.669 15.7858L103.651 15.7635C103.635 15.7445 103.613 15.7171 103.584 15.6818C103.526 15.6114 103.442 15.5095 103.333 15.3801C103.116 15.1215 102.8 14.7527 102.4 14.3055C101.603 13.4121 100.469 12.2001 99.1202 10.9262C96.472 8.42427 92.8163 5.50562 89.1761 4.47699C86.5821 3.74396 83.2469 3.76078 80.6724 3.92909C79.3627 4.01471 78.2061 4.14298 77.3765 4.24986C76.9612 4.30336 76.6265 4.35166 76.3941 4.38686C76.2779 4.40446 76.1871 4.4188 76.1245 4.42889C76.0932 4.43393 76.069 4.43792 76.0521 4.44072L76.0323 4.44401L76.0243 4.44537C76.024 4.44541 76.0238 4.44544 76.2414 5.71998L76.0243 4.44537C75.2954 4.56935 74.8048 5.25966 74.929 5.98714C75.0532 6.71453 75.7446 7.20374 76.4734 7.07992C76.4733 7.07993 76.4735 7.0799 76.4734 7.07992L76.4766 7.07938L76.4907 7.07703C76.5038 7.07486 76.5241 7.07152 76.5514 7.06712C76.606 7.05832 76.6883 7.0453 76.7958 7.02903C77.0106 6.99649 77.3256 6.951 77.7192 6.90029C78.5075 6.79874 79.6065 6.67691 80.8474 6.59579C83.3741 6.43061 86.3203 6.44743 88.4467 7.04833C91.4172 7.88772 94.6709 10.4025 97.2796 12.867C98.5596 14.0763 99.6405 15.2309 100.401 16.0831C100.781 16.5087 101.08 16.8575 101.282 17.0983C101.384 17.2187 101.461 17.312 101.512 17.3742C101.537 17.4054 101.556 17.4287 101.569 17.4439L101.582 17.4603L101.585 17.4637L101.585 17.4642C101.585 17.4643 101.585 17.4641 101.585 17.4642Z" fill="#F9F9F9"/>
<path fill-rule="evenodd" clip-rule="evenodd" d="M35.4184 17.4642C34.9567 18.0404 34.1144 18.134 33.537 17.6732C32.9595 17.2124 32.8656 16.3716 33.3273 15.7952L34.2956 16.5678C33.3274 15.7951 33.3275 15.7949 33.3277 15.7947L33.3298 15.7921L33.3349 15.7858L33.3529 15.7635C33.3683 15.7445 33.3906 15.7171 33.4195 15.6818C33.4772 15.6114 33.5615 15.5095 33.6703 15.3801C33.8878 15.1215 34.2038 14.7527 34.603 14.3055C35.4004 13.4121 36.5348 12.2001 37.8832 10.9262C40.5314 8.42427 44.1871 5.50562 47.8273 4.47699C50.4213 3.74396 53.7565 3.76078 56.331 3.92909C57.6407 4.01471 58.7973 4.14298 59.6269 4.24986C60.0422 4.30336 60.3769 4.35166 60.6093 4.38686C60.7255 4.40446 60.8163 4.4188 60.8789 4.42889C60.9102 4.43393 60.9344 4.43792 60.9513 4.44072L60.9711 4.44401L60.9791 4.44537C60.9794 4.44541 60.9796 4.44544 60.7619 5.71998L60.9791 4.44537C61.708 4.56935 62.1986 5.25966 62.0744 5.98714C61.9502 6.71453 61.2588 7.20374 60.53 7.07992C60.5301 7.07993 60.5299 7.0799 60.53 7.07992L60.5268 7.07938L60.5127 7.07703C60.4996 7.07486 60.4793 7.07152 60.452 7.06712C60.3974 7.05832 60.3151 7.0453 60.2076 7.02903C59.9927 6.99649 59.6778 6.951 59.2842 6.90029C58.4959 6.79874 57.3969 6.67691 56.156 6.59579C53.6293 6.43061 50.6831 6.44743 48.5567 7.04833C45.5862 7.88772 42.3324 10.4025 39.7238 12.867C38.4438 14.0763 37.3629 15.2309 36.6022 16.0831C36.2223 16.5087 35.9235 16.8575 35.721 17.0983C35.6198 17.2187 35.5427 17.312 35.4917 17.3742C35.4661 17.4054 35.4471 17.4287 35.4349 17.4439L35.4216 17.4603L35.4188 17.4637L35.4184 17.4642C35.4184 17.4643 35.4185 17.4641 35.4184 17.4642Z" fill="#F9F9F9"/>
<path fill-rule="evenodd" clip-rule="evenodd" d="M131.199 32.5878C131.611 33.2009 132.442 33.3652 133.056 32.9547C133.671 32.5441 133.835 31.7142 133.424 31.1009L132.312 31.8443C133.424 31.1009 133.424 31.1008 133.424 31.1005L133.423 31.0998L133.422 31.0974L133.416 31.0891L133.395 31.0585C133.377 31.032 133.351 30.9932 133.317 30.9429C133.248 30.8423 133.147 30.6954 133.016 30.5075C132.754 30.1318 132.372 29.5915 131.888 28.9285C130.921 27.6033 129.544 25.7834 127.902 23.8034C124.647 19.8777 120.248 15.192 115.886 12.5602C112.036 10.2378 106.642 8.52756 102.305 7.40445C100.119 6.83815 98.1659 6.41252 96.7593 6.12831C96.0556 5.98612 95.4875 5.87913 95.094 5.80744C94.8972 5.77159 94.744 5.74456 94.6392 5.72636C94.5868 5.71727 94.5465 5.71037 94.5189 5.70569L94.4871 5.70032L94.4753 5.69835C94.475 5.69831 94.4748 5.69827 94.2553 7.01639L94.4753 5.69835C93.7459 5.57734 93.0559 6.06932 92.9347 6.7973C92.8134 7.52528 93.3064 8.21351 94.0358 8.33452L94.0371 8.33473L94.0433 8.33577L94.0702 8.3403C94.0944 8.34443 94.1313 8.35073 94.1803 8.35923C94.2781 8.37623 94.4241 8.40196 94.6133 8.43643C94.9917 8.50536 95.5428 8.60914 96.228 8.74759C97.5993 9.02466 99.5034 9.43974 101.633 9.9912C105.928 11.1036 111.003 12.737 114.501 14.8473C118.453 17.232 122.614 21.6167 125.839 25.5071C127.438 27.4351 128.781 29.2098 129.724 30.5021C130.195 31.1478 130.566 31.6721 130.818 32.0337C130.944 32.2144 131.04 32.3544 131.105 32.4485C131.137 32.4955 131.161 32.5311 131.177 32.5545L131.194 32.5804L131.199 32.5878Z" fill="#F9F9F9"/>
<path fill-rule="evenodd" clip-rule="evenodd" d="M7.00402 32.4288C6.58738 33.0385 5.75447 33.1956 5.14366 32.7797C4.53284 32.3639 4.37543 31.5326 4.79206 30.9229L5.89804 31.6759C4.79206 30.9229 4.79219 30.9227 4.79235 30.9225L4.79444 30.9195L4.80005 30.9113L4.82082 30.8811C4.83889 30.8549 4.86535 30.8166 4.89991 30.767C4.96902 30.6676 5.07056 30.5226 5.20222 30.3371C5.46552 29.9661 5.84949 29.4326 6.33576 28.7776C7.30774 27.4685 8.69131 25.6701 10.3392 23.7117C13.607 19.8278 18.017 15.1891 22.3745 12.5602C26.224 10.2377 31.6182 8.52753 35.955 7.40441C38.1416 6.83812 40.0943 6.41248 41.5009 6.12827C42.2046 5.98609 42.7727 5.87909 43.1662 5.8074C43.363 5.77155 43.5162 5.74453 43.621 5.72633C43.6734 5.71723 43.7137 5.71034 43.7413 5.70566L43.7731 5.70029L43.7842 5.69844L43.7849 5.69831C43.7852 5.69827 43.7854 5.69823 44.0049 7.01636L43.7849 5.69831C44.5143 5.57731 45.2043 6.06928 45.3255 6.79726C45.4468 7.52519 44.9538 8.21339 44.2245 8.33446M44.2245 8.33446L44.2231 8.33469L44.2169 8.33573L44.1901 8.34027C44.1658 8.34439 44.1289 8.3507 44.0799 8.35919C43.9821 8.37619 43.8361 8.40193 43.6469 8.43639C43.2685 8.50533 42.7174 8.6091 42.0322 8.74756C40.661 9.02462 38.7568 9.4397 36.6274 9.99117C32.3321 11.1036 27.2573 12.737 23.7596 14.8472C19.802 17.2349 15.6274 21.5822 12.3896 25.4303C10.7845 27.3378 9.43496 29.0919 8.487 30.3687C8.01329 31.0067 7.6406 31.5246 7.38722 31.8817C7.26054 32.0602 7.16374 32.1984 7.0991 32.2913C7.06678 32.3378 7.04251 32.3729 7.02657 32.396L7.00893 32.4216L7.00402 32.4288" fill="#F9F9F9"/>
<path fill-rule="evenodd" clip-rule="evenodd" d="M47.7049 43.8771C48.4433 43.9149 49.0726 43.3481 49.1105 42.6111C49.1483 41.8741 48.5804 41.246 47.842 41.2082L47.7735 42.5427L47.7049 43.8771ZM87.8916 42.5427C87.8916 43.2806 88.4909 43.8789 89.2303 43.8789V42.5427C89.2303 43.8789 89.2301 43.8789 89.2303 43.8789L89.2769 43.8788C89.3067 43.8787 89.3508 43.8786 89.4084 43.8783C89.5237 43.8778 89.6934 43.8768 89.9128 43.8747C90.3516 43.8706 90.9896 43.8624 91.79 43.8459C93.3905 43.8131 95.6418 43.7474 98.2487 43.6159C103.451 43.3537 110.116 42.8277 115.856 41.7667C116.092 41.7231 116.533 41.6574 117.122 41.5696C118.973 41.2938 122.29 40.7994 125.347 40.0825C127.38 39.6057 129.43 39.0044 130.998 38.247C131.779 37.8697 132.517 37.4182 133.077 36.8664C133.642 36.3089 134.12 35.5499 134.12 34.6015C134.12 32.9489 133.731 31.6298 132.8 30.719C131.895 29.8333 130.711 29.572 129.702 29.4688C129.184 29.4158 128.648 29.3995 128.143 29.3881C128.055 29.3861 127.968 29.3842 127.882 29.3824C127.459 29.3734 127.055 29.3648 126.65 29.3413C125.671 29.2846 124.848 29.1464 124.164 28.8073C122.795 28.128 122.241 27.3612 121.578 26.4423C121.523 26.3661 121.468 26.289 121.411 26.2107C121.03 25.6882 120.567 25.085 119.888 24.5494C119.197 24.0041 118.342 23.5739 117.207 23.2777C114.956 22.6904 112.581 22.9561 110.426 23.2986C109.938 23.376 109.463 23.4568 108.999 23.5357C107.32 23.8216 105.786 24.0825 104.317 24.0702C102.276 24.0531 100.81 23.295 99.0743 22.3676L98.9842 22.3194C97.2891 21.4135 95.3214 20.3618 92.6064 20.3088C89.6851 20.2518 87.5589 21.341 85.7087 22.2887L85.688 22.2993C83.811 23.2608 82.2165 24.0702 80.0176 24.0702C77.8079 24.0702 76.2047 23.287 74.3382 22.3492L74.2516 22.3056C72.4235 21.3867 70.3294 20.334 67.4668 20.3086C64.5262 20.2825 62.3611 21.3681 60.4792 22.3117C60.4403 22.3312 60.4015 22.3506 60.3628 22.37C58.4316 23.3376 56.7783 24.1351 54.5115 24.0707C52.5017 24.0137 51.0528 23.2226 49.3238 22.2786L49.2529 22.2399C47.5183 21.293 45.5036 20.2127 42.702 20.3094C40.1849 20.3962 38.3998 21.4458 36.8904 22.3332L36.8341 22.3663C35.2893 23.2743 34.0229 24.0005 32.2265 24.0712C30.7208 24.1305 29.5684 23.5412 28.1071 22.794C28.0114 22.7451 27.9145 22.6955 27.816 22.6454C26.273 21.86 24.3733 20.9698 21.8963 21.6044C19.774 22.1481 18.5162 23.3287 17.4704 24.5053C17.2433 24.7608 17.0307 25.0092 16.8239 25.2506C16.0596 26.1432 15.3767 26.9406 14.3481 27.6515C13.5156 28.227 12.4846 28.6524 11.3282 29.0197C10.6129 29.2469 9.94586 29.4255 9.26701 29.6072C8.7913 29.7345 8.30981 29.8634 7.80191 30.0117C6.68167 30.3387 5.49604 30.746 4.58341 31.4017C3.5933 32.113 2.88388 33.1519 2.88388 34.6015C2.88388 36.3657 4.31039 37.4584 5.63917 38.1215C7.05436 38.8277 8.94583 39.3517 10.961 39.7751C13.4844 40.3053 16.4512 40.7215 19.2087 41.1083C20.8144 41.3336 22.3492 41.5488 23.6841 41.7709C27.5221 42.4093 33.5473 42.9352 38.5681 43.3006C41.0881 43.484 43.3712 43.6281 45.0243 43.7263C45.851 43.7754 46.5204 43.8131 46.9835 43.8385C47.2151 43.8512 47.395 43.8608 47.5173 43.8673L47.7049 43.8771C47.705 43.8771 47.7049 43.8771 47.7735 42.5427C47.842 41.2082 47.8421 41.2082 47.842 41.2082L47.6591 41.1986C47.5385 41.1923 47.3602 41.1827 47.1305 41.1701C46.671 41.1449 46.0056 41.1075 45.1834 41.0586C43.5388 40.9609 41.268 40.8176 38.7628 40.6353C33.7335 40.2693 27.8241 39.7503 24.1243 39.1348C22.6414 38.8882 21.0395 38.6643 19.406 38.4361C16.7319 38.0625 13.973 37.677 11.5126 37.16C9.54952 36.7475 7.93393 36.2788 6.8366 35.7312C5.65287 35.1405 5.5614 34.718 5.5614 34.6015C5.5614 34.1702 5.71668 33.8803 6.14768 33.5706C6.65616 33.2053 7.44804 32.8993 8.55346 32.5767C8.93427 32.4655 9.37446 32.3469 9.83999 32.2215C10.5884 32.0199 11.4022 31.8007 12.1402 31.5663C13.3975 31.1669 14.72 30.6451 15.8725 29.8486C17.2159 28.92 18.1717 27.7983 18.955 26.8791C19.1361 26.6665 19.308 26.4648 19.4734 26.2788C20.3747 25.2647 21.1959 24.5429 22.562 24.1929C24.0036 23.8236 25.1078 24.2668 26.5996 25.0261C26.7167 25.0857 26.8367 25.1477 26.9597 25.2112C28.34 25.9241 30.0933 26.8297 32.3321 26.7416C34.8361 26.643 36.6155 25.5966 38.1183 24.7129L38.1928 24.669C39.7349 23.7626 41.0003 23.0421 42.7945 22.9802C44.7997 22.911 46.2437 23.6432 47.9681 24.5845C48.0341 24.6206 48.1006 24.6569 48.1676 24.6936C49.8231 25.5996 51.7725 26.6664 54.4353 26.7421C57.4351 26.8272 59.6285 25.7282 61.5445 24.7682L61.5641 24.7584C63.5069 23.7849 65.1657 22.9607 67.443 22.9809C69.6569 23.0006 71.2623 23.7956 73.1341 24.7361L73.1756 24.7569C75.0196 25.6836 77.1269 26.7426 80.0176 26.7426C82.8806 26.7426 84.9793 25.6668 86.7965 24.7353L86.9106 24.6769C88.7761 23.7213 90.3652 22.938 92.5541 22.9807C94.5996 23.0206 96.0683 23.7928 97.8108 24.7237L97.8509 24.7452C99.5638 25.6602 101.547 26.7195 104.294 26.7425C106.027 26.7571 107.872 26.4416 109.582 26.1491C110.013 26.0753 110.436 26.003 110.847 25.9378C112.983 25.5984 114.867 25.4293 116.53 25.8632C117.353 26.0782 117.862 26.3579 118.228 26.6462C118.606 26.9442 118.893 27.2983 119.245 27.7815C119.3 27.8584 119.357 27.9375 119.416 28.0186C120.107 28.981 120.996 30.2203 122.973 31.2005C124.143 31.781 125.398 31.9457 126.495 32.0092C126.954 32.0358 127.415 32.0456 127.839 32.0545C127.921 32.0563 128.003 32.058 128.082 32.0598C128.585 32.0712 129.027 32.0862 129.429 32.1273C130.259 32.2122 130.683 32.3897 130.926 32.6273C131.143 32.8398 131.442 33.3283 131.442 34.6015C131.442 34.608 131.442 34.6316 131.416 34.6845C131.386 34.744 131.322 34.8393 131.195 34.9653C130.93 35.2266 130.484 35.5263 129.832 35.8414C128.533 36.4687 126.712 37.0171 124.734 37.481C121.812 38.1663 118.831 38.6107 116.943 38.892C116.253 38.9949 115.709 39.0759 115.368 39.139C109.802 40.1678 103.276 40.6867 98.1137 40.9469C95.5385 41.0767 93.3144 41.1416 91.7349 41.1741C90.9454 41.1903 90.3173 41.1984 89.8876 41.2024C89.6727 41.2045 89.5074 41.2055 89.3963 41.206C89.3408 41.2062 89.2988 41.2063 89.271 41.2064L89.2306 41.2065C88.4913 41.2065 87.8916 41.8047 87.8916 42.5427Z" fill="#F9F9F9"/>
<path d="M70.3255 50.1081C70.0254 50.1081 69.7575 50.0172 69.5218 49.8353C69.286 49.6428 69.1681 49.4075 69.1681 49.1294V39.8561C69.1681 39.578 69.2592 39.3481 69.4414 39.1662C69.6343 38.9737 69.8701 38.8774 70.1487 38.8774H74.7781C75.3354 38.8774 75.8551 39.0272 76.3373 39.3267C76.8303 39.6155 77.2268 40.0219 77.5268 40.546C77.8269 41.0594 77.9769 41.653 77.9769 42.3269C77.9769 42.7333 77.8912 43.129 77.7197 43.5141C77.559 43.8991 77.334 44.2468 77.0446 44.5569C76.766 44.8671 76.4499 45.1078 76.0962 45.2789L76.1123 44.9099C76.4123 45.0703 76.6588 45.2629 76.8517 45.4875C77.0553 45.7014 77.2107 45.9367 77.3179 46.1934C77.4358 46.4394 77.5054 46.7068 77.5268 46.9956C77.5697 47.263 77.5965 47.4983 77.6072 47.7015C77.6286 47.9047 77.6608 48.0759 77.7037 48.2149C77.7572 48.354 77.8537 48.4609 77.993 48.5358C78.2288 48.6748 78.3734 48.8781 78.427 49.1455C78.4913 49.4022 78.4324 49.6321 78.2502 49.8353C78.1323 49.9744 77.9823 50.0653 77.8001 50.1081C77.6179 50.1402 77.4358 50.1402 77.2536 50.1081C77.0714 50.0653 76.9214 50.0118 76.8035 49.9476C76.6213 49.8407 76.4391 49.6856 76.257 49.4824C76.0748 49.2685 75.9248 48.985 75.8069 48.6321C75.6997 48.2791 75.6461 47.8245 75.6461 47.2683C75.6461 47.0865 75.614 46.9207 75.5497 46.771C75.4854 46.6105 75.3943 46.4768 75.2764 46.3699C75.1585 46.2522 75.0085 46.1667 74.8263 46.1132C74.6442 46.049 74.4298 46.0169 74.1834 46.0169H70.9363L71.1774 45.6479V49.1294C71.1774 49.4075 71.1024 49.6428 70.9524 49.8353C70.8024 50.0172 70.5934 50.1081 70.3255 50.1081ZM70.9524 44.3644H74.6977C74.8906 44.3644 75.0782 44.2788 75.2603 44.1077C75.4425 43.9259 75.5926 43.6852 75.7104 43.3857C75.8283 43.0756 75.8873 42.7386 75.8873 42.375C75.8873 41.9044 75.7587 41.514 75.5015 41.2038C75.255 40.8829 74.9871 40.7225 74.6977 40.7225H70.9845L71.1774 40.2091V44.7495L70.9524 44.3644Z" fill="#F9F9F9"/>
<path d="M68.2715 50.5571C68.4965 50.5571 68.7055 50.648 68.8984 50.8299C69.0913 51.0224 69.1877 51.2416 69.1877 51.4876C69.1877 51.7337 69.0752 51.9636 68.8502 52.1775C68.6358 52.4021 68.3572 52.6 68.0143 52.7711C67.6714 52.9423 67.3124 53.076 66.9373 53.1722C66.573 53.2685 66.2408 53.3166 65.9407 53.3166C65.2763 53.3166 64.7458 53.2525 64.3493 53.1241C63.9528 53.0065 63.626 52.8674 63.3688 52.707C63.1116 52.5572 62.8705 52.4182 62.6454 52.2898C62.4204 52.1722 62.1471 52.1134 61.8256 52.1134C61.622 52.1134 61.4559 52.1454 61.3273 52.2096C61.2095 52.2845 61.0755 52.354 60.9255 52.4182C60.7862 52.4931 60.5879 52.5305 60.3307 52.5305C60.0628 52.5305 59.8378 52.4289 59.6556 52.2257C59.4734 52.0224 59.3823 51.8032 59.3823 51.5679C59.3823 51.1507 59.5699 50.8726 59.9449 50.7336L63.2723 49.4982L64.719 49.8512L61.6006 51.0063L62.5168 50.4769C62.8919 50.4769 63.2188 50.5304 63.4974 50.6373C63.7867 50.755 64.06 50.8833 64.3172 51.0224C64.5744 51.1614 64.8369 51.2844 65.1048 51.3914C65.3834 51.509 65.6996 51.5679 66.0532 51.5679C66.3426 51.5679 66.5837 51.5197 66.7766 51.4235C66.9802 51.3272 67.157 51.2203 67.307 51.1026C67.4892 50.9635 67.6499 50.8352 67.7893 50.7175C67.9393 50.6106 68.1 50.5571 68.2715 50.5571ZM68.2072 44.4926C68.2072 45.2947 68.0732 46.0435 67.8053 46.7387C67.5374 47.4339 67.157 48.0489 66.664 48.5837C66.1818 49.1078 65.6031 49.5196 64.928 49.8191C64.2636 50.1186 63.5349 50.2683 62.7419 50.2683C61.9489 50.2683 61.2202 50.1186 60.5558 49.8191C59.8913 49.5196 59.3127 49.1078 58.8197 48.5837C58.3375 48.0489 57.9624 47.4339 57.6945 46.7387C57.4266 46.0435 57.2926 45.2947 57.2926 44.4926C57.2926 43.6904 57.4266 42.9417 57.6945 42.2464C57.9624 41.5512 58.3375 40.9415 58.8197 40.4174C59.3127 39.8826 59.8913 39.4655 60.5558 39.166C61.2202 38.8665 61.9489 38.7168 62.7419 38.7168C63.5349 38.7168 64.2636 38.8665 64.928 39.166C65.6031 39.4655 66.1818 39.8826 66.664 40.4174C67.157 40.9415 67.5374 41.5512 67.8053 42.2464C68.0732 42.9417 68.2072 43.6904 68.2072 44.4926ZM66.1175 44.4926C66.1175 43.7759 65.9728 43.1288 65.6835 42.5513C65.3942 41.963 64.9977 41.4977 64.494 41.1555C63.9903 40.8132 63.4063 40.6421 62.7419 40.6421C62.0775 40.6421 61.4934 40.8132 60.9898 41.1555C60.4861 41.4977 60.0896 41.9576 59.8003 42.5352C59.5216 43.1128 59.3823 43.7652 59.3823 44.4926C59.3823 45.2092 59.5216 45.8616 59.8003 46.4499C60.0896 47.0275 60.4861 47.4874 60.9898 47.8297C61.4934 48.1719 62.0775 48.3431 62.7419 48.3431C63.4063 48.3431 63.9903 48.1719 64.494 47.8297C64.9977 47.4874 65.3942 47.0275 65.6835 46.4499C65.9728 45.8616 66.1175 45.2092 66.1175 44.4926Z" fill="#F9F9F9"/>
<path fill-rule="evenodd" clip-rule="evenodd" d="M67.8742 58.6514C75.6464 58.6514 81.947 52.3629 81.947 44.6055C81.947 36.8482 75.6464 30.5596 67.8742 30.5596C60.1021 30.5596 53.8015 36.8482 53.8015 44.6055C53.8015 52.3629 60.1021 58.6514 67.8742 58.6514ZM67.8742 61.3238C77.1251 61.3238 84.6245 53.8388 84.6245 44.6055C84.6245 35.3723 77.1251 27.8872 67.8742 27.8872C58.6233 27.8872 51.124 35.3723 51.124 44.6055C51.124 53.8388 58.6233 61.3238 67.8742 61.3238Z" fill="#F9F9F9"/>
</svg>
