<svg width="327" height="218" viewBox="0 0 327 218" fill="none" xmlns="http://www.w3.org/2000/svg">
<g opacity="0.1">
<path d="M286.037 271.24L301.696 233.25C302.793 233.393 303.922 232.894 304.532 231.887C305.355 230.527 304.919 228.757 303.559 227.934C302.574 227.338 301.375 227.406 300.476 228.003L260.794 191.461C261.528 190.117 261.084 188.421 259.76 187.621C258.4 186.798 256.63 187.234 255.808 188.594C255.579 188.973 255.451 189.384 255.409 189.797L209.562 191.122C209.411 190.356 208.953 189.653 208.232 189.216C207.257 188.627 206.074 188.687 205.178 189.266L159.958 140.085C160.026 139.997 160.091 139.907 160.149 139.81C160.972 138.45 160.536 136.68 159.176 135.857C157.816 135.035 156.046 135.47 155.224 136.831C155.034 137.145 154.914 137.481 154.854 137.823L112.055 135.327C111.976 134.446 111.496 133.614 110.681 133.121C109.724 132.542 108.566 132.589 107.676 133.139L72.2209 91.2599C72.2299 91.2456 72.2402 91.2328 72.2486 91.2186C73.0714 89.8585 72.6357 88.0888 71.2754 87.2664C70.0757 86.5406 68.5586 86.7955 67.6526 87.7983L40.0371 70.416C40.7703 69.0725 40.3255 67.3777 39.0026 66.5777C38.2232 66.1065 37.3098 66.0498 36.5167 66.342L1.4003 -10.0244C1.8003 -10.2587 2.14927 -10.5931 2.40624 -11.0174C3.22905 -12.3775 2.79329 -14.1472 1.43298 -14.9697C0.0729044 -15.7925 -1.69675 -15.3567 -2.51925 -13.9964C-2.6989 -13.6994 -2.81515 -13.3824 -2.87822 -13.0605L-33.5942 -13.1113C-33.7315 -13.9035 -34.1959 -14.6346 -34.9379 -15.0834C-36.2982 -15.9059 -38.0676 -15.4705 -38.8901 -14.1102C-39.5123 -13.0812 -39.4137 -11.819 -38.7403 -10.9085L-64.7021 12.1727C-64.7196 12.1614 -64.7359 12.1486 -64.7538 12.1379C-66.1141 11.3154 -67.8835 11.7509 -68.706 13.1112C-69.2982 14.0903 -69.2356 15.2797 -68.6481 16.1771L-102.316 46.599L-100.673 46.0934L-52.1312 75.4533C-52.6742 76.7474 -52.2053 78.2775 -50.9686 79.0255C-49.939 79.6481 -48.6758 79.5488 -47.7654 78.8743L-17.5393 109.092C-17.5922 109.164 -17.6431 109.238 -17.6901 109.315C-18.5129 110.675 -18.0769 112.445 -16.7168 113.268C-15.3567 114.09 -13.5871 113.655 -12.7646 112.294C-12.6477 112.101 -12.5593 111.9 -12.4923 111.694L44.816 121.338C44.7776 122.35 45.274 123.351 46.2017 123.912C46.9226 124.348 47.7572 124.428 48.506 124.206L69.7357 172.045C69.3713 172.276 69.0519 172.589 68.8135 172.984C67.9907 174.344 68.4264 176.113 69.7868 176.936C71.1471 177.758 72.9165 177.323 73.739 175.963C73.7663 175.917 73.7889 175.87 73.8134 175.824L138.459 198.804C138.233 199.957 138.728 201.178 139.791 201.821C140.337 202.151 140.949 202.275 141.539 202.222L151.118 241.775C150.562 242 150.07 242.397 149.736 242.95C148.913 244.31 149.349 246.079 150.709 246.902C151.643 247.467 152.769 247.438 153.65 246.925L176.827 275.823C176.697 275.964 176.579 276.12 176.476 276.29C175.653 277.651 176.089 279.42 177.449 280.243C178.809 281.066 180.579 280.63 181.401 279.269C181.455 279.181 181.502 279.092 181.545 279.001L245.411 298.091C245.252 299.2 245.751 300.348 246.77 300.964C248.13 301.787 249.9 301.351 250.723 299.991C251.249 299.121 251.258 298.085 250.843 297.235L282.321 275.54C282.517 275.773 282.752 275.979 283.027 276.145C284.387 276.968 286.157 276.532 286.979 275.172C287.796 273.823 287.372 272.071 286.037 271.24ZM299.408 231.486L275.928 243.875L259.89 192.46C260.029 192.366 260.159 192.259 260.281 192.139L264.01 195.573L299.846 228.574C299.761 228.679 299.679 228.788 299.607 228.907C299.117 229.718 299.076 230.671 299.408 231.486ZM168.769 248.669L235.489 263.956C235.478 264.105 235.478 264.253 235.489 264.401L181.617 276.733C181.394 276.163 180.992 275.659 180.429 275.317C179.783 274.927 179.047 274.823 178.362 274.964L168.769 248.669ZM259.119 192.831L275.167 244.277L240.677 262.476C240.459 262.179 240.181 261.919 239.846 261.716C239.739 261.652 239.629 261.598 239.519 261.548L258.378 192.959C258.631 192.949 258.879 192.905 259.119 192.831ZM240.819 265.668C240.92 265.5 241.002 265.326 241.066 265.149L281.135 273.116L241.846 274.746L239.552 266.796C240.061 266.564 240.508 266.183 240.819 265.668ZM240.976 274.782L183.515 277.167L235.679 265.226C235.901 265.796 236.303 266.301 236.867 266.641C237.452 266.995 238.111 267.115 238.739 267.03L240.976 274.782ZM168.423 247.722L165.271 239.079C165.705 238.844 166.086 238.495 166.361 238.042C166.381 238.008 166.398 237.972 166.417 237.938L232.118 262.315L168.423 247.722ZM167.441 247.497L155.067 244.662C155.105 244.158 155.012 243.653 154.795 243.199L161.775 238.494C161.956 238.692 162.167 238.869 162.408 239.015C163.054 239.406 163.79 239.509 164.475 239.369L167.441 247.497ZM151.941 241.576L142.362 202.022C142.375 202.017 142.387 202.012 142.399 202.007L162.059 234.341C161.819 234.541 161.606 234.781 161.436 235.063C160.915 235.923 160.9 236.948 161.302 237.792L154.323 242.497C154.141 242.299 153.931 242.122 153.689 241.976C153.143 241.646 152.532 241.522 151.941 241.576ZM140.379 196.627L119.385 154.899L155.31 139.939C155.536 140.271 155.832 140.561 156.197 140.783C156.362 140.882 156.533 140.963 156.708 141.026L141.62 196.502C141.2 196.452 140.776 196.496 140.379 196.627ZM161.014 196.603L144.057 198.605C143.869 197.916 143.43 197.294 142.771 196.895C142.662 196.829 142.55 196.774 142.436 196.725L157.539 141.194C157.56 141.196 157.581 141.195 157.601 141.195L161.014 196.603ZM161.066 197.449L163.301 233.74C163.123 233.778 162.95 233.832 162.782 233.903L143.121 201.569C143.361 201.37 143.573 201.13 143.744 200.848C144.01 200.407 144.142 199.925 144.157 199.445L161.066 197.449ZM161.907 197.349L203.953 192.386C204.049 192.763 204.222 193.12 204.464 193.434L197.41 200.826L165.555 234.203C165.5 234.164 165.446 234.125 165.388 234.089C164.997 233.853 164.572 233.724 164.146 233.687L161.907 197.349ZM207.538 194.442L214.812 211.152L166.267 234.921C166.235 234.876 166.202 234.831 166.168 234.787L198.179 201.245L205.074 194.021C205.132 194.063 205.19 194.104 205.253 194.142C205.967 194.574 206.794 194.656 207.538 194.442ZM215.15 211.929L236.833 261.739C236.461 261.971 236.136 262.289 235.893 262.689C235.873 262.723 235.857 262.758 235.838 262.793L166.712 237.145C166.815 236.655 166.787 236.151 166.638 235.682L215.15 211.929ZM215.911 211.556L256.046 191.905C256.248 192.153 256.492 192.372 256.781 192.547C257.019 192.691 257.271 192.794 257.527 192.863L238.703 261.324C238.334 261.279 237.963 261.307 237.609 261.402L215.911 211.556ZM275.423 245.098L283.501 270.992C282.918 271.212 282.401 271.619 282.054 272.193C282.01 272.265 281.972 272.339 281.936 272.413L241.231 264.319C241.249 263.946 241.194 263.574 241.072 263.225L275.423 245.098ZM250.362 296.539C250.185 296.35 249.982 296.18 249.75 296.039C249.165 295.686 248.506 295.566 247.878 295.65L242.088 275.583L281.654 273.942C281.681 274.244 281.756 274.541 281.876 274.82L250.362 296.539ZM181.788 278.19C181.794 278.155 181.795 278.12 181.798 278.085L241.217 275.619L247.064 295.884C246.555 296.116 246.108 296.497 245.797 297.012C245.744 297.1 245.697 297.19 245.653 297.281L181.788 278.19ZM154.311 246.396C154.441 246.255 154.559 246.099 154.662 245.929C154.748 245.785 154.818 245.637 154.877 245.486L167.786 248.444L177.567 275.253C177.54 275.266 177.513 275.279 177.488 275.294L154.311 246.396ZM74.0979 175.027C74.1806 174.606 74.1694 174.177 74.0665 173.769L118.602 155.225L139.624 197.006C139.308 197.228 139.031 197.517 138.819 197.869C138.791 197.914 138.769 197.961 138.744 198.007L74.0979 175.027ZM-14.0111 16.4737C-14.6907 16.2778 -15.4102 16.3407 -16.0342 16.6341L-27.6949 -0.85358L-2.61963 -11.2034C-2.43234 -10.8347 -2.16556 -10.5026 -1.82371 -10.2369L-14.0111 16.4737ZM-12.5587 109.735C-12.6081 109.61 -12.6644 109.489 -12.7315 109.372L35.6074 71.1939C35.7353 71.307 35.8731 71.4118 36.0242 71.5031C36.4822 71.7803 36.9863 71.9112 37.4856 71.9156L42.3907 96.6668L-12.5587 109.735ZM-14.7912 107.959L-14.6356 74.0529L34.768 69.8929C34.8388 70.1209 34.9368 70.3401 35.0626 70.5452L-13.2561 108.708C-13.4008 108.572 -13.5614 108.448 -13.7382 108.341C-14.0708 108.14 -14.4288 108.015 -14.7912 107.959ZM-14.6314 73.2035L-14.3968 22.0853C-13.9086 22.0147 -13.4426 21.8175 -13.0458 21.5106L35.0356 67.5799C34.7623 68.0432 34.6358 68.5524 34.6389 69.0548L-14.6314 73.2035ZM-15.4779 73.2751L-46.6786 75.9023C-46.8194 75.3063 -47.1505 74.7572 -47.6448 74.3484L-15.9163 21.8888C-15.6967 21.981 -15.4709 22.0463 -15.2428 22.0812L-15.4779 73.2751ZM-60.5075 33.7375L-17.4022 20.478C-17.2261 20.8467 -16.969 21.1795 -16.6406 21.4509L-48.3694 73.9103C-48.8342 73.7155 -49.3278 73.6508 -49.8061 73.7058L-60.5075 33.7375ZM-60.7265 32.9197L-64.9446 17.1651C-64.4791 16.9301 -64.0705 16.5684 -63.7804 16.0893C-63.6236 15.8304 -63.5133 15.5561 -63.4455 15.2769L-17.6789 19.4029C-17.6736 19.4921 -17.6644 19.5812 -17.6511 19.6693L-60.7265 32.9197ZM-61.536 33.1685L-98.9171 44.6675L-68.0848 16.8077C-67.9746 16.8992 -67.8592 16.9863 -67.7332 17.0626C-67.1139 17.437 -66.4108 17.5483 -65.7498 17.4326L-61.536 33.1685ZM-63.4509 13.9048L-28.4927 -0.524475L-16.7379 17.1035C-16.9404 17.2869 -17.1209 17.5013 -17.2696 17.7472C-17.4245 18.0036 -17.5348 18.2745 -17.6027 18.5512L-63.386 14.2812C-63.4003 14.1545 -63.42 14.0286 -63.4509 13.9048ZM39.5266 71.0937L67.1831 88.5015C66.8338 89.2399 66.8289 90.0665 67.1134 90.7871L43.2144 96.471L38.325 71.7986C38.7708 71.6671 39.1848 71.429 39.5266 71.0937ZM70.6245 126.248L50.5637 121.618C50.6106 120.809 50.3125 120.004 49.7261 119.417L58.5776 107.54L69.7082 92.604C69.9635 92.6108 70.2182 92.5852 70.465 92.5252L70.6245 126.248ZM43.379 97.301L67.5614 91.5499C67.7636 91.7972 68.0082 92.0161 68.2971 92.1909C68.4547 92.2864 68.6187 92.3633 68.7854 92.4252L57.9374 106.982L49.0456 118.913C48.5854 118.667 48.0857 118.557 47.5945 118.574L43.379 97.301ZM93.501 117.704L107.031 133.686C106.921 133.811 106.819 133.946 106.729 134.094C106.644 134.235 106.575 134.382 106.516 134.531L71.4718 126.444L71.3089 92.1687C71.4322 92.0919 71.551 92.006 71.6627 91.91L93.501 117.704ZM71.6859 171.623L71.476 127.313L106.325 135.356C106.27 136.057 106.474 136.761 106.903 137.325L72.9594 172.141C72.8968 172.096 72.8335 172.051 72.7663 172.01C72.4244 171.804 72.0575 171.677 71.6859 171.623ZM110.093 138.315L118.22 154.467L73.7412 172.988C73.688 172.9 73.6287 172.814 73.5655 172.731L77.9653 168.218L107.509 137.916C107.572 137.961 107.635 138.006 107.702 138.046C108.451 138.499 109.322 138.568 110.093 138.315ZM49.2742 123.85C49.6208 123.622 49.9251 123.317 50.1542 122.939C50.2501 122.78 50.3277 122.615 50.39 122.447L70.6288 127.118L70.8402 171.629C70.7288 171.646 70.6185 171.672 70.5099 171.702L49.2742 123.85ZM-12.3518 110.859C-12.35 110.758 -12.354 110.658 -12.3626 110.558L42.5552 97.4977L46.7621 118.726C46.1437 118.937 45.5932 119.357 45.2285 119.96C45.1221 120.136 45.0375 120.319 44.9726 120.506L-12.3518 110.859ZM-47.1672 78.2752C-47.114 78.2035 -47.0634 78.1294 -47.0161 78.0519C-46.7677 77.6413 -46.6358 77.1931 -46.6079 76.7453L-15.4816 74.1244L-15.637 107.956C-16.1054 108.023 -16.5546 108.206 -16.9405 108.493L-47.1672 78.2752ZM-99.5896 45.7596L-61.3169 33.9869L-50.6234 73.9242C-51.0303 74.1001 -51.3981 74.3719 -51.6931 74.7287L-99.5896 45.7596ZM-38.1411 -10.3098C-38.0694 -10.2565 -37.995 -10.2057 -37.9169 -10.1585C-36.9641 -9.58216 -35.8116 -9.62547 -34.9233 -10.1692L-28.971 -1.24247L-63.7739 13.1227C-63.8563 12.9851 -63.9512 12.8539 -64.0569 12.7303L-38.1411 -10.3098ZM-2.91663 -12.2147C-2.90942 -12.1455 -2.90034 -12.0768 -2.88821 -12.0084L-28.1733 -1.57158L-34.2717 -10.7173C-34.1596 -10.8445 -34.0555 -10.9813 -33.965 -11.1314C-33.7486 -11.4894 -33.6213 -11.8754 -33.5731 -12.2653L-2.91663 -12.2147ZM35.7738 66.7494C35.7034 66.8028 35.6354 66.8588 35.57 66.9192L12.4957 44.8106L-12.4606 20.8986C-12.4207 20.8424 -12.3801 20.7862 -12.3441 20.7262C-11.5376 19.3925 -11.9431 17.6677 -13.2415 16.8254L-1.08345 -9.82039C-0.529962 -9.60835 0.0611828 -9.57627 0.6139 -9.70888L35.7738 66.7494ZM154.832 138.669C154.853 138.841 154.89 139.011 154.942 139.176L119.003 154.141L110.849 137.935C111.165 137.713 111.442 137.424 111.654 137.072C111.828 136.786 111.942 136.481 112.007 136.171L154.832 138.669ZM204.544 189.826C204.449 189.94 204.359 190.059 204.28 190.19C204.022 190.615 203.888 191.081 203.867 191.545L161.856 196.504L158.443 141.094C158.765 141.006 159.071 140.864 159.347 140.67L204.544 189.826ZM255.451 190.643C255.487 190.825 255.54 191.003 255.611 191.175L215.573 210.779L208.308 194.091C208.662 193.862 208.972 193.554 209.205 193.169C209.434 192.79 209.562 192.38 209.603 191.967L255.451 190.643ZM300.877 233.015L285.261 270.904C284.954 270.822 284.64 270.792 284.331 270.812L276.185 244.697L299.841 232.214C300.044 232.463 300.289 232.684 300.58 232.86C300.677 232.919 300.777 232.969 300.877 233.015Z" fill="#707070"/>
</g>
</svg>
