<svg width="100" height="76" viewBox="0 0 100 76" fill="none" xmlns="http://www.w3.org/2000/svg">
<rect y="0.857178" width="100" height="74.2857" rx="25.7143" fill="url(#paint0_linear_549_1703)"/>
<path d="M56.1117 49.3933C55.9113 47.808 54.4626 46.9424 53.5605 46.7419" stroke="white" stroke-width="1.2" stroke-miterlimit="10" stroke-linecap="round" stroke-linejoin="round"/>
<path d="M55.748 23.4809C58.3265 23.1893 57.8618 20.4742 57.8618 20.4742L57.88 20.4286C65.57 21.932 63.9482 30.36 63.7477 30.5149C63.7477 30.5149 67.3558 36.1456 62.3264 39.8175C62.3264 39.8175 64.7682 49.84 56.3038 49.3753C57.7251 54.5505 53.0328 55.6621 49.6616 55.817C47.9396 55.899 46.5 54.5323 46.5 52.8103V17.595C50.2812 12.6566 57.6614 15.4174 57.8709 20.4742" stroke="white" stroke-width="1.2" stroke-miterlimit="10" stroke-linecap="round" stroke-linejoin="round"/>
<path d="M54.8457 30.323C58.882 33.8582 62.6632 31.3708 63.7475 30.5144" stroke="white" stroke-width="1.2" stroke-miterlimit="10" stroke-linecap="round" stroke-linejoin="round"/>
<path d="M56.3041 49.366H52.8145" stroke="white" stroke-width="1.2" stroke-miterlimit="10" stroke-linecap="round" stroke-linejoin="round"/>
<path d="M60.1751 36.5554C60.1386 36.6739 58.2162 38.7877 56.4668 38.4324" stroke="white" stroke-width="1.2" stroke-miterlimit="10" stroke-linecap="round" stroke-linejoin="round"/>
<path d="M61.0586 25.3123C61.9424 25.5948 62.9173 25.2121 63.3729 24.7019" stroke="white" stroke-width="1.2" stroke-miterlimit="10" stroke-linecap="round" stroke-linejoin="round"/>
<path d="M62.3174 39.8079C62.3174 39.8079 61.4518 35.4072 55.8848 35.0154" stroke="white" stroke-width="1.2" stroke-miterlimit="10" stroke-linecap="round" stroke-linejoin="round"/>
<path d="M38.6815 27.0158C29.0964 18.7063 41.26 10.7521 46.499 17.5856V52.8191C46.499 54.5411 45.0594 55.8987 43.3465 55.8167C39.9662 55.6618 35.2739 54.5502 36.6952 49.375" stroke="white" stroke-width="1.2" stroke-miterlimit="10" stroke-linecap="round" stroke-linejoin="round"/>
<path d="M35.1292 20.2458C27.4301 21.7583 28.9426 30.241 28.9426 30.241C28.9426 30.241 29.6624 33.4391 33.8901 32.5188" stroke="white" stroke-width="1.2" stroke-miterlimit="10" stroke-linecap="round" stroke-linejoin="round"/>
<path d="M31.957 32.3094C32.1575 30.724 33.6062 29.8584 34.5082 29.658" stroke="white" stroke-width="1.2" stroke-miterlimit="10" stroke-linecap="round" stroke-linejoin="round"/>
<path d="M29.2607 30.9883C29.2607 30.9883 25.6344 36.1453 30.6821 39.808C30.6821 39.808 28.2312 49.8305 36.6956 49.3749H40.1761" stroke="white" stroke-width="1.2" stroke-miterlimit="10" stroke-linecap="round" stroke-linejoin="round"/>
<path d="M33.4697 43.8806C33.4697 43.8806 31.3377 45.0651 31.7477 47.6071" stroke="white" stroke-width="1.2" stroke-miterlimit="10" stroke-linecap="round" stroke-linejoin="round"/>
<path d="M30.6816 39.8075C30.6816 39.8075 34.9184 39.7528 34.9093 36.5457" stroke="white" stroke-width="1.2" stroke-miterlimit="10" stroke-linecap="round" stroke-linejoin="round"/>
<path d="M42.4712 27.9272C42.4712 28.9932 41.6057 29.8679 40.5305 29.8679C39.4554 29.8679 38.5898 28.9932 38.5898 27.9272V27.827C38.6445 26.7974 39.4918 25.9774 40.5305 25.9774C41.6057 25.9683 42.4712 26.8429 42.4712 27.9272Z" stroke="white" stroke-width="1.2" stroke-miterlimit="10" stroke-linecap="round" stroke-linejoin="round"/>
<path d="M42.4712 35.4164C42.4712 36.4824 41.6057 37.3571 40.5305 37.3571C39.4554 37.3571 38.5898 36.4824 38.5898 35.4164V35.3162C38.6445 34.2866 39.4918 33.4666 40.5305 33.4666C41.6057 33.4666 42.4712 34.3412 42.4712 35.4164Z" stroke="white" stroke-width="1.2" stroke-miterlimit="10" stroke-linecap="round" stroke-linejoin="round"/>
<path d="M52.522 49.3932C52.522 50.4592 51.6564 51.3339 50.5813 51.3339C49.5062 51.3339 48.6406 50.4592 48.6406 49.3932V49.293C48.6953 48.2634 49.5426 47.4434 50.5813 47.4434C51.6564 47.4434 52.522 48.3181 52.522 49.3932Z" stroke="white" stroke-width="1.2" stroke-miterlimit="10" stroke-linecap="round" stroke-linejoin="round"/>
<path d="M40.8053 45.3471C40.8053 46.4131 39.9397 47.2877 38.8645 47.2877C37.7894 47.2877 36.9238 46.4131 36.9238 45.3471V45.2468C36.9785 44.2172 37.8259 43.3972 38.8645 43.3972C39.9397 43.3972 40.8053 44.2719 40.8053 45.3471Z" stroke="white" stroke-width="1.2" stroke-miterlimit="10" stroke-linecap="round" stroke-linejoin="round"/>
<path d="M53.7057 25.7494C53.7057 26.8154 52.8401 27.6901 51.7649 27.6901C50.6898 27.6901 49.8242 26.8154 49.8242 25.7494V25.6492C49.8789 24.6196 50.7262 23.7996 51.7649 23.7996C52.8401 23.7996 53.7057 24.6743 53.7057 25.7494Z" stroke="white" stroke-width="1.2" stroke-miterlimit="10" stroke-linecap="round" stroke-linejoin="round"/>
<path d="M53.1588 34.2591C53.1588 35.3252 52.2932 36.1999 51.2181 36.1999C50.1429 36.1999 49.2773 35.3252 49.2773 34.2591V34.1589C49.332 33.1293 50.1794 32.3093 51.2181 32.3093C52.2932 32.3093 53.1588 33.184 53.1588 34.2591Z" stroke="white" stroke-width="1.2" stroke-miterlimit="10" stroke-linecap="round" stroke-linejoin="round"/>
<path d="M50.0535 26.988L46.6094 30.4321" stroke="white" stroke-width="1.2" stroke-miterlimit="10" stroke-linecap="round" stroke-linejoin="round"/>
<path d="M50.9638 36.2361V40.81L46.6086 43.3976L46.4264 45.3474H40.8047" stroke="white" stroke-width="1.2" stroke-miterlimit="10" stroke-linecap="round" stroke-linejoin="round"/>
<path d="M41.8613 36.8289L46.499 40.1272" stroke="white" stroke-width="1.2" stroke-miterlimit="10" stroke-linecap="round" stroke-linejoin="round"/>
<defs>
<linearGradient id="paint0_linear_549_1703" x1="50" y1="0.857178" x2="50" y2="75.1429" gradientUnits="userSpaceOnUse">
<stop stop-color="#9893EA"/>
<stop offset="1" stop-color="#4D4A8E"/>
</linearGradient>
</defs>
</svg>
