<svg width="100" height="76" viewBox="0 0 100 76" fill="none" xmlns="http://www.w3.org/2000/svg">
<rect y="0.857178" width="100" height="74.2857" rx="25.7143" fill="url(#paint0_linear_549_1735)"/>
<path d="M30 52.1391C30 53.3091 30.95 54.2491 32.11 54.2491C33.28 54.2491 34.22 53.2991 34.22 52.1391C34.22 50.9691 33.27 50.0291 32.11 50.0291C30.94 50.0291 30 50.9691 30 52.1391Z" stroke="white" stroke-width="1.2" stroke-miterlimit="10" stroke-linecap="round" stroke-linejoin="round"/>
<path d="M39.6198 54.8096C40.7851 54.8096 41.7298 53.8649 41.7298 52.6996C41.7298 51.5343 40.7851 50.5896 39.6198 50.5896C38.4544 50.5896 37.5098 51.5343 37.5098 52.6996C37.5098 53.8649 38.4544 54.8096 39.6198 54.8096Z" stroke="white" stroke-width="1.2" stroke-miterlimit="10" stroke-linecap="round" stroke-linejoin="round"/>
<path d="M36.3288 60.4405C37.4941 60.4405 38.4388 59.4958 38.4388 58.3305C38.4388 57.1652 37.4941 56.2205 36.3288 56.2205C35.1634 56.2205 34.2188 57.1652 34.2188 58.3305C34.2188 59.4958 35.1634 60.4405 36.3288 60.4405Z" stroke="white" stroke-width="1.2" stroke-miterlimit="10" stroke-linecap="round" stroke-linejoin="round"/>
<path d="M48.8594 57.6C48.8594 58.77 49.8094 59.71 50.9694 59.71C52.1394 59.71 53.0794 58.76 53.0794 57.6C53.0794 56.43 52.1294 55.49 50.9694 55.49C49.8094 55.49 48.8594 56.43 48.8594 57.6Z" stroke="white" stroke-width="1.2" stroke-miterlimit="10" stroke-linecap="round" stroke-linejoin="round"/>
<path d="M66.6602 43.1898C66.6602 44.3598 67.6102 45.2998 68.7702 45.2998C69.9402 45.2998 70.8802 44.3498 70.8802 43.1898C70.8802 42.0198 69.9302 41.0798 68.7702 41.0798C67.6102 41.0798 66.6602 42.0198 66.6602 43.1898Z" stroke="white" stroke-width="1.2" stroke-miterlimit="10" stroke-linecap="round" stroke-linejoin="round"/>
<path d="M62.0202 54.8096C63.1855 54.8096 64.1302 53.8649 64.1302 52.6996C64.1302 51.5343 63.1855 50.5896 62.0202 50.5896C60.8549 50.5896 59.9102 51.5343 59.9102 52.6996C59.9102 53.8649 60.8549 54.8096 62.0202 54.8096Z" stroke="white" stroke-width="1.2" stroke-miterlimit="10" stroke-linecap="round" stroke-linejoin="round"/>
<path d="M51.1406 43.5799V26.6199" stroke="white" stroke-width="1.2" stroke-miterlimit="10" stroke-linecap="round" stroke-linejoin="round"/>
<path d="M51.1395 33.7498C51.1395 33.7498 45.4795 28.9698 45.5895 24.5298C45.6995 20.0898 51.1395 15.9998 51.1395 15.9998C51.1395 15.9998 56.5795 20.0898 56.6895 24.5298C56.7995 28.9698 51.1395 33.7498 51.1395 33.7498Z" stroke="white" stroke-width="1.2" stroke-miterlimit="10" stroke-linecap="round" stroke-linejoin="round"/>
<path d="M53.7695 38.8399C53.7695 38.8399 55.5195 34.0299 58.4295 33.0399C61.3395 32.0499 65.2795 34.6099 65.2795 34.6099C65.2795 34.6099 63.9195 39.1099 61.0695 40.2399C58.2195 41.3799 53.7695 38.8399 53.7695 38.8399Z" stroke="white" stroke-width="1.2" stroke-miterlimit="10" stroke-linecap="round" stroke-linejoin="round"/>
<path d="M37.3789 34.0498C37.3789 34.0498 42.0189 31.8798 44.7689 33.2398C47.5189 34.5998 48.5089 39.1998 48.5089 39.1998C48.5089 39.1998 44.3689 41.4298 41.5489 40.2098C38.7289 38.9798 37.3789 34.0498 37.3789 34.0498Z" stroke="white" stroke-width="1.2" stroke-miterlimit="10" stroke-linecap="round" stroke-linejoin="round"/>
<path d="M45.5801 37.7191L51.1501 40.2291L56.8901 37.6091" stroke="white" stroke-width="1.2" stroke-miterlimit="10" stroke-linecap="round" stroke-linejoin="round"/>
<path d="M46.3398 47.9998L55.6099 47.8598L51.1399 43.5798L46.3398 47.9998Z" stroke="white" stroke-width="1.2" stroke-miterlimit="10" stroke-linecap="round" stroke-linejoin="round"/>
<path d="M55.6094 47.8599H64.1294L67.3294 44.6599" stroke="white" stroke-width="1.2" stroke-miterlimit="10" stroke-linecap="round" stroke-linejoin="round"/>
<path d="M59.9093 52.7H44.9293L42.3493 58.33H38.5293" stroke="white" stroke-width="1.2" stroke-miterlimit="10" stroke-linecap="round" stroke-linejoin="round"/>
<path d="M46.3399 47.9998H35.3299L33.1699 50.1598" stroke="white" stroke-width="1.2" stroke-miterlimit="10" stroke-linecap="round" stroke-linejoin="round"/>
<path d="M50.9688 55.49V52.7" stroke="white" stroke-width="1.2" stroke-miterlimit="10" stroke-linecap="round" stroke-linejoin="round"/>
<path d="M41.7305 52.7H44.9305" stroke="white" stroke-width="1.2" stroke-miterlimit="10" stroke-linecap="round" stroke-linejoin="round"/>
<defs>
<linearGradient id="paint0_linear_549_1735" x1="50" y1="0.857178" x2="50" y2="75.1429" gradientUnits="userSpaceOnUse">
<stop stop-color="#9893EA"/>
<stop offset="1" stop-color="#4D4A8E"/>
</linearGradient>
</defs>
</svg>
