<svg width="44" height="44" viewBox="0 0 44 44" fill="none" xmlns="http://www.w3.org/2000/svg">
<path d="M43.5 22C43.5 33.8741 33.8741 43.5 22 43.5C10.1259 43.5 0.5 33.8741 0.5 22C0.5 10.1259 10.1259 0.5 22 0.5C33.8741 0.5 43.5 10.1259 43.5 22Z" stroke="black"/>
<path d="M22.0003 20.0002C21.4699 20.0002 20.9612 20.2109 20.5861 20.5859C20.2111 20.961 20.0003 21.4697 20.0003 22.0002C20.0003 22.5306 20.2111 23.0393 20.5861 23.4144C20.9612 23.7894 21.4699 24.0002 22.0003 24.0002C22.5308 24.0002 23.0395 23.7894 23.4146 23.4144C23.7896 23.0393 24.0003 22.5306 24.0003 22.0002C24.0003 21.4697 23.7896 20.961 23.4146 20.5859C23.0395 20.2109 22.5308 20.0002 22.0003 20.0002ZM22.0003 18.6668C22.8844 18.6668 23.7322 19.018 24.3574 19.6431C24.9825 20.2683 25.3337 21.1161 25.3337 22.0002C25.3337 22.8842 24.9825 23.7321 24.3574 24.3572C23.7322 24.9823 22.8844 25.3335 22.0003 25.3335C21.1163 25.3335 20.2684 24.9823 19.6433 24.3572C19.0182 23.7321 18.667 22.8842 18.667 22.0002C18.667 21.1161 19.0182 20.2683 19.6433 19.6431C20.2684 19.018 21.1163 18.6668 22.0003 18.6668ZM26.3337 18.5002C26.3337 18.7212 26.2459 18.9331 26.0896 19.0894C25.9333 19.2457 25.7214 19.3335 25.5003 19.3335C25.2793 19.3335 25.0674 19.2457 24.9111 19.0894C24.7548 18.9331 24.667 18.7212 24.667 18.5002C24.667 18.2791 24.7548 18.0672 24.9111 17.9109C25.0674 17.7546 25.2793 17.6668 25.5003 17.6668C25.7214 17.6668 25.9333 17.7546 26.0896 17.9109C26.2459 18.0672 26.3337 18.2791 26.3337 18.5002ZM22.0003 16.6668C20.351 16.6668 20.0817 16.6715 19.3143 16.7055C18.7917 16.7302 18.441 16.8002 18.1157 16.9268C17.8434 17.0268 17.5973 17.187 17.3957 17.3955C17.187 17.5971 17.0266 17.8432 16.9263 18.1155C16.7997 18.4422 16.7297 18.7922 16.7057 19.3142C16.671 20.0502 16.6663 20.3075 16.6663 22.0002C16.6663 23.6502 16.671 23.9188 16.705 24.6862C16.7297 25.2082 16.7997 25.5595 16.9257 25.8842C17.039 26.1742 17.1723 26.3828 17.3937 26.6042C17.6183 26.8282 17.827 26.9622 18.1137 27.0728C18.443 27.2002 18.7937 27.2708 19.3137 27.2948C20.0497 27.3295 20.307 27.3335 21.9997 27.3335C23.6497 27.3335 23.9183 27.3288 24.6857 27.2948C25.207 27.2702 25.5577 27.2002 25.8837 27.0742C26.1557 26.9737 26.4017 26.8136 26.6037 26.6055C26.8283 26.3815 26.9623 26.1728 27.073 25.8855C27.1997 25.5575 27.2703 25.2068 27.2943 24.6855C27.329 23.9502 27.333 23.6922 27.333 22.0002C27.333 20.3508 27.3283 20.0815 27.2943 19.3142C27.2697 18.7928 27.199 18.4408 27.073 18.1155C26.9725 17.8435 26.8124 17.5975 26.6043 17.3955C26.4028 17.1867 26.1567 17.0263 25.8843 16.9262C25.5577 16.7995 25.207 16.7295 24.6857 16.7055C23.9503 16.6708 23.693 16.6668 21.9997 16.6668M21.9997 15.3335C23.811 15.3335 24.037 15.3402 24.7483 15.3735C25.4577 15.4068 25.9417 15.5182 26.3663 15.6835C26.8063 15.8528 27.177 16.0822 27.5477 16.4522C27.8867 16.7854 28.149 17.1886 28.3163 17.6335C28.481 18.0582 28.593 18.5422 28.6263 19.2522C28.6577 19.9628 28.6663 20.1888 28.6663 22.0002C28.6663 23.8115 28.6597 24.0375 28.6263 24.7482C28.593 25.4582 28.481 25.9415 28.3163 26.3668C28.1494 26.812 27.8871 27.2152 27.5477 27.5482C27.2143 27.887 26.8112 28.1493 26.3663 28.3168C25.9417 28.4815 25.4577 28.5935 24.7483 28.6268C24.037 28.6582 23.811 28.6668 21.9997 28.6668C20.1883 28.6668 19.9623 28.6602 19.251 28.6268C18.5417 28.5935 18.0583 28.4815 17.633 28.3168C17.1879 28.1498 16.7847 27.8875 16.4517 27.5482C16.1126 27.2149 15.8503 26.8118 15.683 26.3668C15.5177 25.9422 15.4063 25.4582 15.373 24.7482C15.341 24.0375 15.333 23.8115 15.333 22.0002C15.333 20.1888 15.3397 19.9628 15.373 19.2522C15.4063 18.5422 15.5177 18.0588 15.683 17.6335C15.8498 17.1883 16.1122 16.785 16.4517 16.4522C16.7848 16.113 17.188 15.8506 17.633 15.6835C18.0577 15.5182 18.541 15.4068 19.251 15.3735C19.963 15.3422 20.189 15.3335 22.0003 15.3335" fill="black"/>
</svg>
