<svg width="44" height="44" viewBox="0 0 44 44" fill="none" xmlns="http://www.w3.org/2000/svg">
<path d="M43.5 22C43.5 33.8741 33.8741 43.5 22 43.5C10.1259 43.5 0.5 33.8741 0.5 22C0.5 10.1259 10.1259 0.5 22 0.5C33.8741 0.5 43.5 10.1259 43.5 22Z" stroke="white"/>
<path d="M23.3337 22.9997H25.0003L25.667 20.333H23.3337V18.9997C23.3337 18.313 23.3337 17.6663 24.667 17.6663H25.667V15.4263C25.4497 15.3977 24.629 15.333 23.7623 15.333C21.9523 15.333 20.667 16.4377 20.667 18.4663V20.333H18.667V22.9997H20.667V28.6663H23.3337V22.9997Z" fill="white"/>
</svg>
