<svg width="44" height="44" viewBox="0 0 44 44" fill="none" xmlns="http://www.w3.org/2000/svg">
<path d="M43.5 22C43.5 33.8741 33.8741 43.5 22 43.5C10.1259 43.5 0.5 33.8741 0.5 22C0.5 10.1259 10.1259 0.5 22 0.5C33.8741 0.5 43.5 10.1259 43.5 22Z" stroke="white"/>
<path d="M22.0003 19.9997C21.4699 19.9997 20.9612 20.2104 20.5861 20.5855C20.2111 20.9605 20.0003 21.4692 20.0003 21.9997C20.0003 22.5301 20.2111 23.0388 20.5861 23.4139C20.9612 23.789 21.4699 23.9997 22.0003 23.9997C22.5308 23.9997 23.0395 23.789 23.4146 23.4139C23.7896 23.0388 24.0003 22.5301 24.0003 21.9997C24.0003 21.4692 23.7896 20.9605 23.4146 20.5855C23.0395 20.2104 22.5308 19.9997 22.0003 19.9997ZM22.0003 18.6663C22.8844 18.6663 23.7322 19.0175 24.3574 19.6427C24.9825 20.2678 25.3337 21.1156 25.3337 21.9997C25.3337 22.8837 24.9825 23.7316 24.3574 24.3567C23.7322 24.9818 22.8844 25.333 22.0003 25.333C21.1163 25.333 20.2684 24.9818 19.6433 24.3567C19.0182 23.7316 18.667 22.8837 18.667 21.9997C18.667 21.1156 19.0182 20.2678 19.6433 19.6427C20.2684 19.0175 21.1163 18.6663 22.0003 18.6663ZM26.3337 18.4997C26.3337 18.7207 26.2459 18.9326 26.0896 19.0889C25.9333 19.2452 25.7214 19.333 25.5003 19.333C25.2793 19.333 25.0674 19.2452 24.9111 19.0889C24.7548 18.9326 24.667 18.7207 24.667 18.4997C24.667 18.2787 24.7548 18.0667 24.9111 17.9104C25.0674 17.7541 25.2793 17.6663 25.5003 17.6663C25.7214 17.6663 25.9333 17.7541 26.0896 17.9104C26.2459 18.0667 26.3337 18.2787 26.3337 18.4997ZM22.0003 16.6663C20.351 16.6663 20.0817 16.671 19.3143 16.705C18.7917 16.7297 18.441 16.7997 18.1157 16.9263C17.8434 17.0263 17.5973 17.1865 17.3957 17.395C17.187 17.5966 17.0266 17.8427 16.9263 18.115C16.7997 18.4417 16.7297 18.7917 16.7057 19.3137C16.671 20.0497 16.6663 20.307 16.6663 21.9997C16.6663 23.6497 16.671 23.9183 16.705 24.6857C16.7297 25.2077 16.7997 25.559 16.9257 25.8837C17.039 26.1737 17.1723 26.3823 17.3937 26.6037C17.6183 26.8277 17.827 26.9617 18.1137 27.0723C18.443 27.1997 18.7937 27.2703 19.3137 27.2943C20.0497 27.329 20.307 27.333 21.9997 27.333C23.6497 27.333 23.9183 27.3283 24.6857 27.2943C25.207 27.2697 25.5577 27.1997 25.8837 27.0737C26.1557 26.9732 26.4017 26.8131 26.6037 26.605C26.8283 26.381 26.9623 26.1723 27.073 25.885C27.1997 25.557 27.2703 25.2063 27.2943 24.685C27.329 23.9497 27.333 23.6917 27.333 21.9997C27.333 20.3503 27.3283 20.081 27.2943 19.3137C27.2697 18.7923 27.199 18.4403 27.073 18.115C26.9725 17.843 26.8124 17.597 26.6043 17.395C26.4028 17.1862 26.1567 17.0258 25.8843 16.9257C25.5577 16.799 25.207 16.729 24.6857 16.705C23.9503 16.6703 23.693 16.6663 21.9997 16.6663M21.9997 15.333C23.811 15.333 24.037 15.3397 24.7483 15.373C25.4577 15.4063 25.9417 15.5177 26.3663 15.683C26.8063 15.8523 27.177 16.0817 27.5477 16.4517C27.8867 16.7849 28.149 17.1881 28.3163 17.633C28.481 18.0577 28.593 18.5417 28.6263 19.2517C28.6577 19.9623 28.6663 20.1883 28.6663 21.9997C28.6663 23.811 28.6597 24.037 28.6263 24.7477C28.593 25.4577 28.481 25.941 28.3163 26.3663C28.1494 26.8115 27.8871 27.2147 27.5477 27.5477C27.2143 27.8866 26.8112 28.1488 26.3663 28.3163C25.9417 28.481 25.4577 28.593 24.7483 28.6263C24.037 28.6577 23.811 28.6663 21.9997 28.6663C20.1883 28.6663 19.9623 28.6597 19.251 28.6263C18.5417 28.593 18.0583 28.481 17.633 28.3163C17.1879 28.1493 16.7847 27.887 16.4517 27.5477C16.1126 27.2145 15.8503 26.8113 15.683 26.3663C15.5177 25.9417 15.4063 25.4577 15.373 24.7477C15.341 24.037 15.333 23.811 15.333 21.9997C15.333 20.1883 15.3397 19.9623 15.373 19.2517C15.4063 18.5417 15.5177 18.0583 15.683 17.633C15.8498 17.1878 16.1122 16.7846 16.4517 16.4517C16.7848 16.1125 17.188 15.8502 17.633 15.683C18.0577 15.5177 18.541 15.4063 19.251 15.373C19.963 15.3417 20.189 15.333 22.0003 15.333" fill="white"/>
</svg>
