<svg width="108" height="65" viewBox="0 0 108 65" fill="none" xmlns="http://www.w3.org/2000/svg">
<path fill-rule="evenodd" clip-rule="evenodd" d="M61.4116 2.99C53.4315 -2.05739 45.4794 -0.3344 32.6729 5.31633C41.746 9.91985 44.4414 19.2486 53.0604 24.132C67.6288 32.3835 75.4236 13.6557 61.4116 2.99Z" fill="url(#paint0_radial_507_1232)"/>
<path fill-rule="evenodd" clip-rule="evenodd" d="M32.7305 5.52364C38.8551 8.63733 42.4731 14.0494 46.6869 18.446C42.4016 13.1251 41.7185 7.86163 37.2102 3.45605C36.0791 4.20619 33.8691 4.55173 32.7305 5.52364Z" fill="url(#paint1_radial_507_1232)"/>
<path fill-rule="evenodd" clip-rule="evenodd" d="M48.5957 19.9413C50.029 21.2391 51.6065 22.4418 53.4298 23.4703C66.9874 31.1488 74.3624 16.0313 64.0163 5.30908C68.8835 16.3722 60.4491 22.3465 48.5957 19.9413Z" fill="url(#paint2_radial_507_1232)"/>
<path fill-rule="evenodd" clip-rule="evenodd" d="M66.4559 8.65716C72.6706 18.8569 63.4133 28.3323 51.2297 21.4158C42.6299 16.5304 41.6595 9.95703 32.6066 5.35005C26.4317 2.21865 14.1681 4.91972 13.0869 16.6814C16.2739 15.6213 20.3429 15.6928 24.9526 17.5183C40.4344 23.6381 44.3182 38.4355 60.8568 40.2044C83.2858 42.6033 84.4096 9.34973 66.4559 8.65716Z" fill="url(#paint3_radial_507_1232)"/>
<path fill-rule="evenodd" clip-rule="evenodd" d="M13.8734 13.0275C13.4998 14.1185 13.2364 15.33 13.1084 16.6443C16.3024 15.5845 20.3806 15.6559 25.0005 17.4807C33.2446 20.7298 39.975 27.5734 46.9688 33.5388C37.284 24.2736 24.3873 6.93262 13.8734 13.0275Z" fill="url(#paint4_radial_507_1232)"/>
<path fill-rule="evenodd" clip-rule="evenodd" d="M47.2021 34.1572C51.5987 37.256 56.2593 39.5898 61.5802 40.1554C78.8091 41.995 84.843 23.3596 74.9422 12.4155C82.9795 24.5785 69.7526 43.406 47.2021 34.1572Z" fill="url(#paint5_radial_507_1232)"/>
<path fill-rule="evenodd" clip-rule="evenodd" d="M19.6326 34.6044C17.9835 36.2208 16.9237 37.9503 16.3983 39.6545C14.0884 47.1425 22.0691 54.0158 34.6309 47.7869C40.7556 44.7522 48.6497 35.3531 52.904 38.2197C50.848 36.7626 48.8896 35.1685 46.9695 33.5358C39.2598 27.1417 26.7694 27.5957 19.6326 34.6044Z" fill="url(#paint6_radial_507_1232)"/>
<path fill-rule="evenodd" clip-rule="evenodd" d="M52.9404 38.0308C48.7167 35.5796 41.0523 44.9685 34.9697 47.5648C44.7582 44.6327 34.1082 56.5244 47.7924 61.6933C51.7119 63.174 58.0579 62.0379 57.8856 60.1642C56.3458 60.9008 55.4527 61.7907 52.5439 61.3487C49.2198 60.8435 46.2272 58.7608 44.9324 55.6575C42.09 48.8431 48.0206 42.3821 52.9404 38.0308Z" fill="url(#paint7_radial_507_1232)"/>
<path fill-rule="evenodd" clip-rule="evenodd" d="M34.6338 47.7884C37.5093 46.7927 39.1354 47.3956 39.6221 48.5982C41.9082 44.6079 48.8212 36.7239 52.9065 38.2211C48.6529 35.3531 40.7585 44.7521 34.6338 47.7884Z" fill="url(#paint8_radial_507_1232)"/>
<path fill-rule="evenodd" clip-rule="evenodd" d="M32.0189 29.1094C27.4153 29.5082 22.9457 31.3553 19.6326 34.6059C17.9835 36.2223 16.9238 37.9518 16.3984 39.656C14.2 46.7853 21.3204 53.3565 32.8553 48.6011C19.3305 48.4805 19.6326 34.6044 32.0189 29.1094Z" fill="url(#paint9_radial_507_1232)"/>
<path fill-rule="evenodd" clip-rule="evenodd" d="M13.1082 16.6427C3.76568 19.7489 2.02875 32.5743 16.3975 39.6545C16.9229 37.9503 17.9826 36.2208 19.6317 34.6044C26.7685 27.5957 39.2589 27.1402 46.9687 33.5372C39.9748 27.5718 33.2444 20.7283 25.0003 17.4792C20.3804 15.6559 16.3023 15.583 13.1082 16.6427Z" fill="url(#paint10_radial_507_1232)"/>
<path fill-rule="evenodd" clip-rule="evenodd" d="M13.1085 16.6427C5.66814 19.1119 3.04858 27.746 9.54832 34.7399C3.16766 22.0038 18.358 15.9729 32.9664 21.8684C30.4421 20.1077 27.8047 18.5865 25.0006 17.4792C20.3807 15.6559 16.3026 15.583 13.1085 16.6427Z" fill="url(#paint11_radial_507_1232)"/>
<path d="M77.0793 62.0273H74.6632L71.9508 57.3773H69.6095V62.0273H67.4326V49.6602H71.9924C72.9537 49.6602 73.776 49.8141 74.4572 50.1218C75.139 50.4297 75.6636 50.8721 76.0321 51.4493C76.4 52.0209 76.5846 52.7107 76.5846 53.5187C76.5846 54.3762 76.3727 55.1044 75.9496 55.7035C75.5264 56.2972 74.9271 56.7314 74.1523 57.0063L77.0793 62.0273ZM69.6095 55.5964H71.8357C72.6326 55.5964 73.2508 55.4205 73.6908 55.0687C74.1354 54.717 74.3584 54.2222 74.3584 53.5847C74.3584 52.9471 74.1387 52.4524 73.6986 52.1006C73.2592 51.7488 72.6378 51.5729 71.8357 51.5729H69.6095V55.5964Z" fill="#3E2D87"/>
<path d="M64.5673 64.9999C63.3882 64.7706 62.3482 64.5372 61.4473 64.2998C60.5471 64.0705 59.691 63.8002 58.8805 63.4891C58.0699 63.1861 57.2061 62.8176 56.2889 62.3836H55.7111C54.3194 62.3836 53.0337 62.1461 51.8546 61.6712C50.6833 61.1963 49.6641 60.5289 48.7957 59.6691C47.928 58.8093 47.2526 57.798 46.769 56.6352C46.2945 55.4642 46.0566 54.1908 46.0566 52.8152C46.0566 51.4313 46.2945 50.1579 46.769 48.9951C47.2526 47.8323 47.928 46.8211 48.7957 45.9613C49.6641 45.0932 50.6833 44.4218 51.8546 43.9468C53.0337 43.4719 54.3233 43.2344 55.7234 43.2344C57.1157 43.2344 58.3975 43.4719 59.5682 43.9468C60.7395 44.4218 61.7587 45.0932 62.6264 45.9613C63.4948 46.8211 64.1663 47.8323 64.6408 48.9951C65.1159 50.1579 65.3538 51.4313 65.3538 52.8152C65.3538 54.1663 65.1198 55.4191 64.6531 56.5737C64.1864 57.7201 63.5312 58.7192 62.6882 59.5708C61.8445 60.4225 60.8539 61.0816 59.7157 61.5484C60.3709 61.7121 60.993 61.8473 61.5825 61.9537C62.1721 62.0602 62.7616 62.1461 63.3512 62.2116C63.9492 62.2772 64.5836 62.3263 65.255 62.3591L64.5673 64.9999ZM55.7111 59.5463C56.6204 59.5463 57.4596 59.3784 58.2292 59.0426C58.9988 58.7069 59.6663 58.2361 60.2312 57.6301C60.8045 57.0159 61.2471 56.2994 61.5578 55.4806C61.8776 54.6617 62.0369 53.7732 62.0369 52.8152C62.0369 51.8571 61.8776 50.9686 61.5578 50.1497C61.2471 49.3309 60.8045 48.6185 60.2312 48.0125C59.6663 47.3983 58.9988 46.9234 58.2292 46.5877C57.4596 46.2519 56.6204 46.084 55.7111 46.084C54.8108 46.084 53.971 46.2519 53.1936 46.5877C52.4234 46.9234 51.7519 47.3983 51.1786 48.0125C50.6138 48.6185 50.1718 49.3309 49.8526 50.1497C49.5328 50.9686 49.3736 51.8571 49.3736 52.8152C49.3736 53.7732 49.5328 54.6617 49.8526 55.4806C50.1718 56.2994 50.6138 57.0159 51.1786 57.6301C51.7519 58.2361 52.4234 58.7069 53.1936 59.0426C53.971 59.3784 54.8108 59.5463 55.7111 59.5463Z" fill="#3E2D87"/>
<defs>
<radialGradient id="paint0_radial_507_1232" cx="0" cy="0" r="1" gradientUnits="userSpaceOnUse" gradientTransform="translate(68.8534 32.4186) scale(51.3274 51.3274)">
<stop stop-color="white"/>
<stop offset="0.28" stop-color="#7771E8"/>
<stop offset="0.8" stop-color="#3E2D87"/>
</radialGradient>
<radialGradient id="paint1_radial_507_1232" cx="0" cy="0" r="1" gradientUnits="userSpaceOnUse" gradientTransform="translate(97.383 -7.55059) scale(75.5007 75.5008)">
<stop stop-color="white"/>
<stop offset="0.28" stop-color="#7771E8"/>
<stop offset="0.8" stop-color="#3E2D87"/>
</radialGradient>
<radialGradient id="paint2_radial_507_1232" cx="0" cy="0" r="1" gradientUnits="userSpaceOnUse" gradientTransform="translate(83.1419 34.0064) scale(96.3911 96.3911)">
<stop stop-color="white"/>
<stop offset="0.28" stop-color="#7771E8"/>
<stop offset="0.8" stop-color="#3E2D87"/>
</radialGradient>
<radialGradient id="paint3_radial_507_1232" cx="0" cy="0" r="1" gradientUnits="userSpaceOnUse" gradientTransform="translate(48.5094 92.6199) scale(126.529 126.865)">
<stop stop-color="white"/>
<stop offset="0.5" stop-color="#FFA211"/>
<stop offset="1" stop-color="#C4272E"/>
</radialGradient>
<radialGradient id="paint4_radial_507_1232" cx="0" cy="0" r="1" gradientUnits="userSpaceOnUse" gradientTransform="translate(77.385 -55.0978) scale(119.326 119.326)">
<stop stop-color="white"/>
<stop offset="0.5" stop-color="#FBB03B"/>
<stop offset="1" stop-color="#E43700"/>
</radialGradient>
<radialGradient id="paint5_radial_507_1232" cx="0" cy="0" r="1" gradientUnits="userSpaceOnUse" gradientTransform="translate(118.122 43.2383) scale(143.149 143.149)">
<stop stop-color="white"/>
<stop offset="0.0001" stop-color="#FFE2B5"/>
<stop offset="0.5" stop-color="#FF9B00"/>
<stop offset="1" stop-color="#C4272E"/>
</radialGradient>
<radialGradient id="paint6_radial_507_1232" cx="0" cy="0" r="1" gradientUnits="userSpaceOnUse" gradientTransform="translate(-2.39088 69.7274) scale(74.6005 74.6005)">
<stop stop-color="white"/>
<stop offset="0.5" stop-color="#7771E8"/>
<stop offset="1" stop-color="#3E2D87"/>
</radialGradient>
<radialGradient id="paint7_radial_507_1232" cx="0" cy="0" r="1" gradientUnits="userSpaceOnUse" gradientTransform="translate(12.2258 82.7894) scale(63.4124 54.6123)">
<stop stop-color="white"/>
<stop offset="0.5" stop-color="#7771E8"/>
<stop offset="1" stop-color="#3E2D87"/>
</radialGradient>
<radialGradient id="paint8_radial_507_1232" cx="0" cy="0" r="1" gradientUnits="userSpaceOnUse" gradientTransform="translate(-45.0559 73.4979) scale(79.5704 79.5704)">
<stop stop-color="white"/>
<stop offset="0.5" stop-color="#7771E8"/>
<stop offset="1" stop-color="#3E2D87"/>
</radialGradient>
<radialGradient id="paint9_radial_507_1232" cx="0" cy="0" r="1" gradientUnits="userSpaceOnUse" gradientTransform="translate(-17.6716 58.0183) scale(102.153 102.153)">
<stop stop-color="white"/>
<stop offset="0.5" stop-color="#7771E8"/>
<stop offset="1" stop-color="#3E2D87"/>
</radialGradient>
<radialGradient id="paint10_radial_507_1232" cx="0" cy="0" r="1" gradientUnits="userSpaceOnUse" gradientTransform="translate(10.1104 -1.51665) scale(55.6642 55.6642)">
<stop stop-color="white"/>
<stop offset="0.5" stop-color="#A4C132"/>
<stop offset="1" stop-color="#01658C"/>
</radialGradient>
<radialGradient id="paint11_radial_507_1232" cx="0" cy="0" r="1" gradientUnits="userSpaceOnUse" gradientTransform="translate(5.34788 2.65076) scale(58.1012 58.1012)">
<stop stop-color="white"/>
<stop offset="0.5" stop-color="#A4C132"/>
<stop offset="1" stop-color="#009417"/>
</radialGradient>
</defs>
</svg>
