<svg width="68" height="51" viewBox="0 0 68 51" fill="none" xmlns="http://www.w3.org/2000/svg">
<rect y="0.899902" width="68" height="50" rx="17.517" fill="url(#paint0_linear_590_1694)"/>
<path d="M30.9619 34.1602H29.2755" stroke="white" stroke-miterlimit="10" stroke-linecap="round" stroke-linejoin="round"/>
<path d="M25.9023 34.1599C25.9023 35.0789 26.6586 35.8261 27.5887 35.8261C28.5189 35.8261 29.2751 35.0789 29.2751 34.1599C29.2751 33.2408 28.5189 32.4937 27.5887 32.4937C26.6586 32.4937 25.9023 33.2408 25.9023 34.1599Z" stroke="white" stroke-miterlimit="10" stroke-linecap="round" stroke-linejoin="round"/>
<path d="M34.3346 34.1599C34.3346 35.0789 33.5784 35.8261 32.6483 35.8261C31.7181 35.8261 30.9619 35.0789 30.9619 34.1599C30.9619 33.2408 31.7181 32.4937 32.6483 32.4937C33.5784 32.4937 34.3346 33.2408 34.3346 34.1599Z" stroke="white" stroke-miterlimit="10" stroke-linecap="round" stroke-linejoin="round"/>
<path d="M21.9834 14.2283C21.9834 14.2283 22.343 13.9509 22.5908 13.9116" stroke="white" stroke-miterlimit="10" stroke-linecap="round" stroke-linejoin="round"/>
<path d="M22.5479 12.7124C22.5479 12.7124 22.8233 13.2461 22.9441 13.3791" stroke="white" stroke-miterlimit="10" stroke-linecap="round" stroke-linejoin="round"/>
<path d="M45.3813 28.501C44.4633 27.1842 36.318 16.7954 34.8668 15.0689C33.4155 13.3425 31.5795 12.1421 28.9432 11.2063C26.3069 10.2698 24.4708 9.94778 24.0562 10.0067C23.6415 10.0649 20.3389 12.582 20.0428 12.9335C19.7468 13.285 21.4941 15.304 21.9531 15.3773C22.4121 15.4506 24.1151 15.0409 24.1151 14.7922C24.1151 14.5436 23.9904 13.6297 22.5896 13.9147C22.4221 13.9487 22.9469 13.6645 22.9201 13.3976C22.904 13.2359 23.1749 13.895 23.7517 13.567C23.8741 13.4974 24.5106 14.3977 24.4808 14.6169C24.4509 14.8361 24.0546 15.5096 22.0709 15.8021C20.0864 16.0946 20.5898 18.3774 22.5843 17.6261C24.5787 16.8747 24.0944 16.7674 24.7661 16.8067C25.4378 16.846 27.1851 17.1869 28.2317 16.846C29.2782 16.5043 29.3471 16.1143 29.8505 16.2995C30.3539 16.4847 33.4935 19.6647 34.0467 22.3186C34.5998 24.9718 35.1001 27.6106 35.7052 28.4058C36.0801 28.8986 36.24 29.0316 35.2493 28.7338C34.5233 28.5154 33.9878 28.1911 32.5656 27.8593C31.9451 27.7149 29.6233 27.4103 27.6097 28.2395C26.323 28.7693 25.5464 25.6574 20 24.4222V40.825C21.5691 39.862 21.7894 39.2482 23.2575 38.8748C23.8228 38.7312 26.881 40.6172 37 39.5393C38.8858 39.3383 43.5575 38.8105 44.9957 37.0486C45.6361 36.264 48.1354 35.9949 48.4613 34.7953C48.788 33.5927 46.2993 29.8178 45.3813 28.501Z" stroke="white" stroke-miterlimit="10" stroke-linecap="round" stroke-linejoin="round"/>
<path d="M39.7137 31.5433C39.7137 31.5433 37.4125 29.5674 35.793 28.875" stroke="white" stroke-miterlimit="10" stroke-linecap="round" stroke-linejoin="round"/>
<path d="M37.2076 34.5728C37.2076 35.473 36.5449 36.3931 35.2421 37.1169C33.9562 37.8313 32.1458 38.2888 30.1189 38.2888C28.092 38.2888 26.2817 37.8313 24.9958 37.1169C23.6929 36.3931 23.0303 35.473 23.0303 34.5728C23.0303 33.6727 23.6929 32.7526 24.9958 32.0288C26.2817 31.3144 28.092 30.8569 30.1189 30.8569C32.1458 30.8569 33.9562 31.3144 35.2421 32.0288C36.5449 32.7526 37.2076 33.6727 37.2076 34.5728Z" stroke="white"/>
<defs>
<linearGradient id="paint0_linear_590_1694" x1="34" y1="0.899902" x2="34" y2="50.8999" gradientUnits="userSpaceOnUse">
<stop stop-color="#9893EA"/>
<stop offset="1" stop-color="#4D4A8E"/>
</linearGradient>
</defs>
</svg>
