<svg width="68" height="50" viewBox="0 0 68 50" fill="none" xmlns="http://www.w3.org/2000/svg">
<rect width="68" height="50" rx="17.517" fill="url(#paint0_linear_592_1754)"/>
<path d="M33 17.9331C33.4 15.5331 40.5 10.4334 44 17.9331C47 26.9329 37 31.9998 32.5 36" stroke="white" stroke-linecap="round"/>
<path d="M33 17.9999C32.6 15.5999 25.0996 10.4334 21.5996 17.933C18.5996 26.9329 28 31.9998 32.5 36" stroke="white" stroke-linecap="round"/>
<path d="M56 28.3924H50.6588C50.4743 28.3924 50.3047 28.2908 50.2178 28.1279L48.4598 24.835C48.2907 24.5183 47.8528 24.4777 47.6284 24.7579L45.2538 27.7233C45.0144 28.0222 44.5417 27.9521 44.3993 27.5966L43.3786 25.0474C43.229 24.6738 42.7219 24.621 42.4985 24.9557L40.4334 28.0503C40.3008 28.2491 40.046 28.3262 39.8254 28.2344L37.2884 27.1784C37.031 27.0712 36.7357 27.1953 36.6321 27.4541L35.2852 30.818C35.0932 31.2976 34.3886 31.2065 34.3249 30.6938L33.0505 20.4381C32.9919 19.9665 32.3703 19.8349 32.1257 20.2423L27.685 27.6361C27.485 27.9692 26.9982 27.9569 26.8153 27.6142L25.3316 24.835C25.1625 24.5183 24.7246 24.4777 24.5002 24.7579L23.2538 26.3145C23.0144 26.6134 22.5417 26.5433 22.3993 26.1878L21.3691 23.6147C21.2214 23.246 20.7234 23.1883 20.4954 23.5137L17.2262 28.1794C17.1326 28.3129 16.9798 28.3924 16.8167 28.3924H12" stroke="white" stroke-linecap="round"/>
<defs>
<linearGradient id="paint0_linear_592_1754" x1="34" y1="0" x2="34" y2="50" gradientUnits="userSpaceOnUse">
<stop stop-color="#9893EA"/>
<stop offset="1" stop-color="#4D4A8E"/>
</linearGradient>
</defs>
</svg>
