<svg width="68" height="51" viewBox="0 0 68 51" fill="none" xmlns="http://www.w3.org/2000/svg">
<rect y="0.399902" width="68" height="50" rx="17.517" fill="url(#paint0_linear_592_1789)"/>
<path d="M35.3628 21.6882C36.0989 21.1219 36.5883 20.2321 36.5883 19.2209C36.5883 17.5222 35.1969 16.147 33.4779 16.147C31.759 16.147 30.3676 17.5222 30.3676 19.2209C30.3676 20.2321 30.857 21.1219 31.5972 21.6882C29.9591 22.4162 28.8145 24.0341 28.8145 25.9351V30.0606C28.8145 30.3437 29.0612 30.5864 29.3443 30.5864H30.8975V36.7748C30.8975 37.0579 31.1442 37.3006 31.4273 37.3006C31.7145 37.3006 31.9612 37.0579 31.9612 36.7748V28.4832C31.9612 28.2001 31.7145 27.9574 31.4273 27.9574C31.1401 27.9574 30.8975 28.2001 30.8975 28.4832V29.5348H29.8742V25.8946C29.8742 23.9127 31.5122 22.2949 33.5143 22.2949C35.5205 22.2949 37.1545 23.9127 37.1545 25.8946V29.5348H36.1312V28.5236C36.1312 28.2405 35.8845 27.9978 35.5974 27.9978C35.3102 27.9978 35.0675 28.2405 35.0675 28.5236V36.7748C35.0675 37.0579 35.3142 37.3006 35.5974 37.3006C35.8805 37.3006 36.1312 37.0579 36.1312 36.7748V30.546H37.6844C37.9716 30.546 38.2183 30.3033 38.2183 30.0202V25.8946C38.1859 24.0341 37.0413 22.3758 35.3628 21.6882ZM31.395 19.2209C31.395 18.0884 32.3373 17.1581 33.482 17.1581C34.6266 17.1581 35.569 18.0884 35.569 19.2209C35.569 20.3534 34.6266 21.2837 33.482 21.2837C32.3333 21.2837 31.395 20.3534 31.395 19.2209Z" fill="white"/>
<path d="M33.4772 32.0815C33.1901 32.0815 32.9434 32.3242 32.9434 32.6074V36.7329C32.9434 37.016 33.1901 37.2587 33.4772 37.2587C33.7644 37.2587 34.0071 37.016 34.0071 36.7329V32.6074C34.0111 32.3242 33.7644 32.0815 33.4772 32.0815Z" fill="white"/>
<path d="M27.7508 18.6943C29.4698 18.6943 30.8612 17.3191 30.8612 15.6203C30.8612 13.9216 29.4698 12.5464 27.7508 12.5464C26.0319 12.5464 24.6405 13.9216 24.6405 15.6203C24.6 17.3191 26.0319 18.6943 27.7508 18.6943ZM27.7508 13.5576C28.8955 13.5576 29.8379 14.4878 29.8379 15.6203C29.8379 16.7528 28.8955 17.6831 27.7508 17.6831C26.6062 17.6831 25.6638 16.7528 25.6638 15.6203C25.6638 14.4878 26.6062 13.5576 27.7508 13.5576Z" fill="white"/>
<path d="M39.209 18.6943C40.928 18.6943 42.3193 17.3191 42.3193 15.6203C42.3193 13.9216 40.928 12.5464 39.209 12.5464C37.49 12.5464 36.0986 13.9216 36.0986 15.6203C36.0986 17.3191 37.49 18.6943 39.209 18.6943ZM39.209 13.5576C40.3536 13.5576 41.296 14.4878 41.296 15.6203C41.296 16.7528 40.3536 17.6831 39.209 17.6831C38.0643 17.6831 37.1219 16.7528 37.1219 15.6203C37.1219 14.4878 38.0603 13.5576 39.209 13.5576Z" fill="white"/>
<path d="M26.9742 29.0083C26.687 29.0083 26.4443 29.251 26.4443 29.5341V36.7336C26.4443 37.0167 26.6911 37.2594 26.9742 37.2594C27.2614 37.2594 27.5081 37.0167 27.5081 36.7336V29.5341C27.4636 29.251 27.2614 29.0083 26.9742 29.0083Z" fill="white"/>
<path d="M25.1335 32.6079C24.8463 32.6079 24.5996 32.8506 24.5996 33.1337V36.7335C24.5996 37.0166 24.8463 37.2593 25.1335 37.2593C25.4207 37.2593 25.6674 37.0166 25.6674 36.7335V33.1337C25.6633 32.8506 25.4207 32.6079 25.1335 32.6079Z" fill="white"/>
<path d="M25.1337 18.6138C23.5805 18.6138 22.3509 19.8676 22.3509 21.4046C22.3509 22.254 22.7594 23.0225 23.3742 23.5483C21.9829 24.1954 21 25.6515 21 27.2693V30.8691C21 31.1522 21.2467 31.3949 21.5298 31.3949H22.8403V36.7339C22.8403 37.017 23.087 37.2597 23.3742 37.2597C23.6614 37.2597 23.9041 37.017 23.9041 36.7339V29.5344C23.9041 29.2512 23.6573 29.0086 23.3742 29.0086C23.087 29.0086 22.8403 29.2512 22.8403 29.5344V30.3433H22.0637V27.2693C22.0637 25.5706 23.4551 24.1954 25.1741 24.1954C26.7272 24.1954 27.9973 22.9416 27.9973 21.445C27.9568 19.8676 26.6868 18.6138 25.1337 18.6138ZM25.1337 23.1438C24.1508 23.1438 23.3742 22.3753 23.3742 21.4046C23.3742 20.4339 24.1508 19.6654 25.1337 19.6654C26.1165 19.6654 26.8931 20.4339 26.8931 21.4046C26.8931 22.3753 26.1165 23.1438 25.1337 23.1438Z" fill="white"/>
<path d="M43.5851 23.5479C44.1999 23.022 44.6084 22.2536 44.6084 21.4042C44.6084 19.8672 43.3384 18.6538 41.8257 18.6538C40.2725 18.6538 39.043 19.9076 39.043 21.4042C39.043 22.9411 40.313 24.1546 41.8257 24.1546C43.5447 24.1546 44.936 25.5297 44.936 27.2285V30.3429H44.1595V29.534C44.1595 29.2508 43.9127 29.0081 43.6256 29.0081C43.3384 29.0081 43.0957 29.2508 43.0957 29.534V36.7334C43.0957 37.0166 43.3425 37.2593 43.6256 37.2593C43.9087 37.2593 44.1595 37.0166 44.1595 36.7334V31.3945H45.4699C45.7571 31.3945 45.9998 31.1518 45.9998 30.8687V27.2689C45.9998 25.6106 45.017 24.195 43.5851 23.5479ZM40.0663 21.4042C40.0663 20.4335 40.8428 19.665 41.8257 19.665C42.8086 19.665 43.5851 20.4335 43.5851 21.4042C43.5851 22.3749 42.8086 23.1434 41.8257 23.1434C40.8428 23.1434 40.0663 22.3749 40.0663 21.4042Z" fill="white"/>
<path d="M39.9851 29.0083C39.6979 29.0083 39.4512 29.251 39.4512 29.5341V36.7336C39.4512 37.0167 39.6979 37.2594 39.9851 37.2594C40.2722 37.2594 40.519 37.0167 40.519 36.7336V29.5341C40.5149 29.251 40.2722 29.0083 39.9851 29.0083Z" fill="white"/>
<path d="M41.8257 32.6079C41.5386 32.6079 41.2959 32.8506 41.2959 33.1337V36.7335C41.2959 37.0166 41.5426 37.2593 41.8257 37.2593C42.1129 37.2593 42.3596 37.0166 42.3596 36.7335V33.1337C42.3596 32.8506 42.1129 32.6079 41.8257 32.6079Z" fill="white"/>
<defs>
<linearGradient id="paint0_linear_592_1789" x1="34" y1="0.399902" x2="34" y2="50.3999" gradientUnits="userSpaceOnUse">
<stop stop-color="#9893EA"/>
<stop offset="1" stop-color="#4D4A8E"/>
</linearGradient>
</defs>
</svg>
