<svg width="68" height="51" viewBox="0 0 68 51" fill="none" xmlns="http://www.w3.org/2000/svg">
<rect y="0.899902" width="68" height="50" rx="17.517" fill="url(#paint0_linear_590_1658)"/>
<path d="M21 40.7567V20.8202V18.6865C21 14.4462 24.6924 11 29.2552 11H34.2872C34.2872 11 41.7332 12.326 42.8416 19.7231C43.95 27.1135 46.3232 28.5875 46.3232 28.5875H43.0048V33.9115C43.0048 33.9115 43.1204 35.7625 40.8628 35.7625C39.87 35.7625 38.6664 35.7625 37.6192 35.7625" stroke="white" stroke-miterlimit="10" stroke-linecap="round" stroke-linejoin="round"/>
<path d="M27.3306 22.1811C27.3306 23.009 26.6507 23.6821 25.8143 23.6821C24.9779 23.6821 24.2979 23.009 24.2979 22.1811C24.2979 21.3533 24.9779 20.6802 25.8143 20.6802C26.6507 20.6802 27.3306 21.3533 27.3306 22.1811Z" stroke="white" stroke-miterlimit="10" stroke-linecap="round" stroke-linejoin="round"/>
<path d="M33.4508 16.3989C33.4508 17.2268 32.7708 17.8999 31.9344 17.8999C31.098 17.8999 30.418 17.2268 30.418 16.3989C30.418 15.571 31.098 14.8979 31.9344 14.8979C32.7708 14.8979 33.4508 15.571 33.4508 16.3989Z" stroke="white" stroke-miterlimit="10" stroke-linecap="round" stroke-linejoin="round"/>
<path d="M25.8619 31.1523C25.8619 31.9802 25.1819 32.6533 24.3455 32.6533C23.5091 32.6533 22.8291 31.9802 22.8291 31.1523C22.8291 30.3245 23.5091 29.6514 24.3455 29.6514C25.1887 29.6514 25.8619 30.3245 25.8619 31.1523Z" stroke="white" stroke-miterlimit="10" stroke-linecap="round" stroke-linejoin="round"/>
<path d="M28.9026 40.779V32.6549L25.8154 31.5376" stroke="white" stroke-miterlimit="10" stroke-linecap="round" stroke-linejoin="round"/>
<path d="M30.4183 40.7789V28.0443L25.8555 26.0116V23.6626" stroke="white" stroke-miterlimit="10" stroke-linecap="round" stroke-linejoin="round"/>
<path d="M36.5322 18.9155C36.5322 19.7434 37.2122 20.4165 38.0486 20.4165C38.885 20.4165 39.565 19.7434 39.565 18.9155C39.565 18.0876 38.885 17.4146 38.0486 17.4146C37.2122 17.4146 36.5322 18.0876 36.5322 18.9155Z" stroke="white" stroke-miterlimit="10" stroke-linecap="round" stroke-linejoin="round"/>
<path d="M33.4512 40.7786V24.7729L38.014 22.7402V20.3911" stroke="white" stroke-miterlimit="10" stroke-linecap="round" stroke-linejoin="round"/>
<path d="M38.001 29.2275C38.001 30.0554 38.681 30.7285 39.5174 30.7285C40.3538 30.7285 41.0338 30.0554 41.0338 29.2275C41.0338 28.3996 40.3538 27.7266 39.5174 27.7266C38.681 27.7266 38.001 28.3996 38.001 29.2275Z" stroke="white" stroke-miterlimit="10" stroke-linecap="round" stroke-linejoin="round"/>
<path d="M34.9678 40.7771V30.3242L38.055 29.2002" stroke="white" stroke-miterlimit="10" stroke-linecap="round" stroke-linejoin="round"/>
<path d="M31.9346 40.7779V17.873" stroke="white" stroke-miterlimit="10" stroke-linecap="round" stroke-linejoin="round"/>
<defs>
<linearGradient id="paint0_linear_590_1658" x1="34" y1="0.899902" x2="34" y2="50.8999" gradientUnits="userSpaceOnUse">
<stop stop-color="#9893EA"/>
<stop offset="1" stop-color="#4D4A8E"/>
</linearGradient>
</defs>
</svg>
